<svg width="50" height="50" viewBox="0 0 50 50" fill="none" xmlns="http://www.w3.org/2000/svg">
<path d="M25 0C11.1929 0 0 11.1929 0 25C0 38.807 11.1929 50 25 50C38.807 50 50 38.807 50 25C50 11.1929 38.807 0 25 0Z" fill="#FF4344"/>
<path d="M25.0002 10C20.8582 10 17.5002 13.3579 17.5002 17.5C17.5002 21.6423 20.8582 25 25.0002 25C29.1424 25 32.5002 21.6423 32.5002 17.5C32.5002 13.3579 29.1424 10 25.0002 10Z" fill="white"/>
<path d="M39.737 36.382C40.089 37.0857 40.089 37.9142 39.737 38.6182C39.7583 38.5743 39.7353 38.6217 39.7353 38.6217L39.7333 38.6255L39.7295 38.633L39.7208 38.65L39.7003 38.689C39.685 38.7177 39.6668 38.751 39.6455 38.7887C39.6025 38.8645 39.5468 38.958 39.4768 39.0667C39.337 39.2845 39.1398 39.5635 38.8745 39.8817C38.3425 40.52 37.541 41.3112 36.3875 42.0802C34.0575 43.6335 30.438 45 25.0005 45C15.7877 45 11.9141 41.076 10.6666 39.2788C9.91191 38.1913 9.99548 36.9207 10.452 36.0077C12.293 32.3257 16.0562 30 20.1728 30H29.4108C33.7838 30 37.7813 32.4707 39.737 36.382Z" fill="white"/>
</svg>
