<svg width="302" height="267" viewBox="0 0 302 267" fill="none" xmlns="http://www.w3.org/2000/svg">
<g clip-path="url(#clip0_69_268)">
<path d="M130.055 87.9989C127.795 86.4911 125.479 85.0639 123.251 83.5118C122.845 83.2296 122.483 82.4999 122.523 82.0121C122.792 78.8716 123.243 75.7432 123.492 72.6027C123.564 71.6875 123.769 71.2078 124.642 70.8611C127.714 69.6315 130.755 68.3213 133.807 67.0393C134.301 66.8296 134.788 66.6039 135.64 66.2289C134.149 61.5323 132.673 56.888 131.161 52.1228C127.228 52.9332 123.641 53.6104 120.086 54.4369C118.831 54.7272 118.148 54.5861 117.331 53.425C115.666 51.0505 113.668 48.9138 111.874 46.6279C111.601 46.2772 111.476 45.5677 111.633 45.1524C112.819 42.0039 114.006 38.8512 115.381 35.7833C116.04 34.3118 115.703 33.5257 114.388 32.8524C113.881 32.5944 113.471 32.1509 113.012 31.7921C110.74 30.5867 108.468 29.3813 106.2 28.18C105.915 28.1235 105.613 28.1155 105.348 28.0106C102.577 26.8979 103.112 26.9181 101.559 29.2362C99.6694 32.0623 97.8236 34.9246 96.203 37.3959C91.9685 37.029 88.0155 36.6823 83.9298 36.3275C82.3575 32.5783 80.7168 28.6597 79.068 24.7129C74.0896 25.4184 69.5213 27.0229 65.0455 29.1878C65.8498 33.0661 66.6219 36.8476 67.4222 40.6251C67.5669 41.3024 67.5267 41.7136 66.8672 42.2175C64.2815 44.1808 61.744 46.2167 59.303 48.3534C58.5993 48.9702 58.1449 48.9743 57.3808 48.6598C54.2321 47.3576 51.0512 46.128 47.8944 44.838C47.1103 44.5155 46.6036 44.5437 46.0325 45.3137C43.4589 48.7687 41.7136 52.6268 40.29 56.6623C40.0086 57.4605 40.3906 57.8032 40.9938 58.1902C43.7806 59.9802 46.5272 61.8387 49.326 63.6085C50.1343 64.1205 50.3796 64.5599 50.2268 65.6041C49.696 69.2042 49.3743 72.8325 48.94 76.743C45.5379 78.1742 41.6814 79.7988 37.825 81.4235C38.5206 86.5072 39.912 91.2119 42.1921 95.6869C46.4065 94.7878 50.5083 93.913 54.2241 93.1228C56.5605 95.7876 58.6717 98.3234 60.9357 100.706C61.7922 101.609 61.9451 102.29 61.4585 103.415C60.1556 106.411 58.9693 109.458 57.7628 112.494C57.5256 113.095 57.0551 113.796 57.988 114.28C61.7922 116.263 65.5965 118.247 69.4047 120.226C70.213 120.646 70.7197 120.372 71.2022 119.606C72.9998 116.759 74.922 113.994 76.6673 111.119C77.3428 110.011 78.0747 109.962 79.2168 110.111C82.0438 110.474 84.8909 110.781 87.734 110.825C88.9605 110.845 89.4109 111.164 89.8332 112.252C91.1844 115.751 92.6763 119.202 94.0838 122.597C97.1199 122.577 105.376 119.92 108.343 118.045C107.539 114.316 106.763 110.535 105.882 106.777C105.661 105.838 105.939 105.431 106.655 104.858C108.959 103.016 111.134 101.008 113.422 99.1418C113.809 98.8274 114.593 98.65 115.035 98.8193C117.846 99.8997 120.621 101.081 123.395 102.262C124.948 102.923 125.571 103.193 126.162 102.79L132.56 90.6677C132.568 89.684 131.893 89.2244 130.067 88.0069L130.055 87.9989ZM105.955 83.9271C100.236 94.7596 86.8413 98.8959 76.0359 93.1632C65.2305 87.4304 61.1046 74.0016 66.823 63.169C72.5413 52.3365 85.9365 48.2002 96.7419 53.933C107.547 59.6657 111.673 73.0945 105.955 83.9271Z" fill="#CAE1F9"/>
<path opacity="0.2" d="M220.744 72.518C219.916 71.9657 219.064 71.4416 218.247 70.8691C218.098 70.7643 217.966 70.4982 217.982 70.3168C218.082 69.1638 218.247 68.0149 218.34 66.8619C218.368 66.5273 218.44 66.3499 218.762 66.2209C219.892 65.7693 221.006 65.2896 222.128 64.8179C222.309 64.7413 222.49 64.6566 222.799 64.5196C222.252 62.7941 221.71 61.0888 221.155 59.3432C219.711 59.6415 218.392 59.8915 217.089 60.1938C216.631 60.2986 216.377 60.2503 216.08 59.8229C215.468 58.9521 214.737 58.166 214.077 57.3274C213.977 57.1984 213.932 56.9364 213.989 56.7872C214.423 55.6302 214.861 54.4732 215.364 53.3484C215.605 52.8082 215.481 52.5179 214.998 52.272C214.813 52.1752 214.66 52.014 214.495 51.885C213.663 51.4415 212.826 51.0021 211.994 50.5586C211.889 50.5385 211.777 50.5344 211.68 50.4941C210.663 50.0869 210.86 50.091 210.289 50.9456C209.593 51.9858 208.918 53.0339 208.322 53.941C206.77 53.808 205.319 53.679 203.819 53.55C203.244 52.1752 202.64 50.736 202.033 49.2847C200.207 49.5427 198.53 50.1313 196.886 50.9295C197.179 52.3526 197.465 53.7394 197.758 55.1263C197.811 55.3762 197.799 55.5254 197.553 55.7108C196.604 56.4325 195.671 57.1783 194.775 57.9644C194.517 58.1902 194.348 58.1942 194.067 58.0773C192.909 57.5976 191.742 57.146 190.584 56.6743C190.295 56.5574 190.11 56.5655 189.901 56.8477C188.956 58.1176 188.316 59.5327 187.793 61.0122C187.689 61.3065 187.83 61.4315 188.051 61.5726C189.072 62.2297 190.082 62.911 191.107 63.5601C191.405 63.7455 191.493 63.9108 191.437 64.2938C191.244 65.6161 191.123 66.9465 190.966 68.3817C189.72 68.9058 188.3 69.5025 186.885 70.0991C187.142 71.9657 187.653 73.6912 188.489 75.336C190.037 75.0054 191.541 74.6869 192.905 74.3967C193.761 75.3763 194.537 76.3036 195.37 77.1824C195.683 77.513 195.74 77.7629 195.563 78.1782C195.084 79.2788 194.65 80.3955 194.208 81.5122C194.119 81.7339 193.946 81.9879 194.292 82.1693C195.687 82.895 197.087 83.6247 198.482 84.3544C198.78 84.5076 198.965 84.4068 199.142 84.1286C199.801 83.0845 200.505 82.0686 201.148 81.0123C201.398 80.6051 201.663 80.589 202.085 80.6414C203.123 80.7745 204.168 80.8873 205.21 80.9035C205.66 80.9115 205.825 81.0284 205.978 81.4276C206.473 82.7136 207.02 83.9795 207.538 85.2252C208.652 85.2171 211.684 84.2415 212.774 83.5521C212.477 82.1814 212.195 80.7946 211.869 79.4159C211.789 79.0691 211.889 78.92 212.151 78.7103C212.995 78.0331 213.796 77.2953 214.636 76.6099C214.777 76.493 215.066 76.4285 215.227 76.493C216.261 76.8881 217.278 77.3235 218.295 77.7549C218.867 77.9968 219.092 78.0976 219.309 77.9484L221.657 73.4977C221.657 73.1348 221.412 72.9695 220.74 72.522L220.744 72.518ZM211.897 71.0223C209.798 74.9974 204.88 76.5172 200.915 74.4128C196.95 72.3084 195.434 67.3779 197.533 63.4029C199.632 59.4278 204.55 57.908 208.516 60.0124C212.481 62.1168 213.997 67.0473 211.897 71.0223Z" fill="#9BC1F9"/>
<path d="M77.0171 226.706C77.0171 226.706 34.5516 205.714 27.2488 194.768C19.946 183.819 30.683 183.202 30.683 183.202C30.683 183.202 11.7344 164.726 14.4005 156.945C17.0667 149.168 26.8828 156.3 26.8828 156.3C26.8828 156.3 14.6981 129.108 20.4446 126.374C31.1455 121.283 46.1572 150.539 46.1572 150.539C46.1572 150.539 42.9321 137.828 50.2992 138.243C61.4142 138.868 60.9518 167.616 60.9518 167.616C60.9518 167.616 62.2064 156.594 68.906 160.174C80.9259 166.6 77.0171 226.71 77.0171 226.71V226.706Z" fill="#3C8F7C"/>
<path d="M71.3228 155.723C66.091 152.813 60.8834 161.319 60.8834 161.319C60.8834 161.319 61.4102 138.864 50.2991 138.239C42.932 137.828 46.1571 150.535 46.1571 150.535C46.1571 150.535 31.1454 121.279 20.4446 126.37L77.0693 226.238C77.4674 219.263 81.6899 161.488 71.3268 155.723H71.3228Z" fill="#50BFA5"/>
<path d="M75.9192 226.964C75.9192 226.964 41.1868 231.289 32.195 227.435C23.2033 223.581 29.6455 218.82 29.6455 218.82C29.6455 218.82 10.3349 215.014 8.84701 209.076C7.3591 203.138 16.2664 203.613 16.2664 203.613C16.2664 203.613 -2.24792 191.591 0.225213 187.548C4.83771 180.013 26.0584 192.148 26.0584 192.148C26.0584 192.148 18.8964 185.536 23.6577 182.791C30.8438 178.65 42.2082 196.772 42.2082 196.772C42.2082 196.772 41.5004 192.305 47.1303 191.809C57.232 190.922 75.9152 226.964 75.9152 226.964H75.9192Z" fill="#3C8F7C"/>
<path d="M47.3636 188.564C41.7337 189.06 42.2122 196.772 42.2122 196.772C42.2122 196.772 30.6388 175.292 23.4566 179.433C18.6913 182.178 24.3293 191.188 24.3293 191.188C24.3293 191.188 4.84175 180.013 0.229248 187.548L76.0278 226.77C73.4501 222.259 56.8017 187.733 47.3676 188.564H47.3636Z" fill="#50BFA5"/>
<path d="M275.628 176.115L277.494 171.595C278.942 168.269 282.645 166.685 285.766 168.052C293.632 171.495 297.05 181.077 293.402 189.451L290.736 195.575C289.566 198.259 289.976 201.21 291.549 203.291C292.98 205.181 293.213 207.81 292.22 210.088L290.813 213.317C289.293 216.812 286.329 219.4 282.818 220.469C280.763 221.094 278.95 222.638 277.989 224.843L275.998 229.415C273.798 234.47 268.164 236.881 263.419 234.805L260.713 233.619C255.968 231.543 253.905 225.762 256.104 220.707C259.663 214.664 259.378 210.152 258.119 207.092C256.265 202.593 256.285 197.417 258.292 192.813L258.573 192.168C260.689 187.306 264.778 183.674 269.648 182.122C271.8 181.436 274.04 179.759 275.624 176.115H275.628Z" fill="#50BFA5"/>
<path d="M152.743 265.395C147.7 258.844 120.058 223.738 102.034 217.889C82.1362 211.43 100.888 237.078 100.888 237.078C100.888 237.078 65.5924 198.388 52.6396 201.876C40.7685 205.073 52.6396 229.056 52.6396 229.056C52.6396 229.056 39.2686 215.776 23.0504 215.776C6.83227 215.776 34.077 262.876 35.5247 265.395H152.743Z" fill="#96D9C9"/>
<path d="M301.646 124.859C301.646 124.859 296.559 131.446 293.563 134.03C290.567 136.614 287.712 139.09 283.892 147.31C280.072 155.53 280.184 156.473 279.167 158.59C278.153 160.706 272.821 168.999 272.419 170.656C272.017 172.309 263.315 180.235 260.62 184.266C257.926 188.298 253.507 193.922 252.927 197.175L253.712 197.159C253.712 197.159 256.056 189.806 262.961 183.432C269.865 177.058 269.459 175.458 276.207 172.926C282.955 170.398 289.224 160.529 289.224 160.529C289.224 160.529 297.878 150.241 299.008 144.105C300.138 137.969 302.989 132.865 301.642 124.859H301.646Z" fill="#256653"/>
<path d="M296.366 111.676C296.366 111.676 295.047 116.473 292.819 118.989C290.591 121.504 288.846 122.936 287.841 125.983C286.836 129.031 283.996 136.828 278.741 139.735C273.485 142.641 270.207 154.252 266.077 157.03C261.947 159.811 260.922 162.263 260.118 168.495C259.313 174.728 259.434 183.654 252.079 193.555L251.629 190.564C251.629 190.564 257.166 182.299 257.564 176.796C257.962 171.293 256.933 162.601 258.883 159.001C260.833 155.401 257.073 153.732 260.793 148.467C264.513 143.202 264.006 140.952 268.402 136.675C268.402 136.675 268.788 136.518 270.621 132.458C272.455 128.398 281.105 122.194 284.873 120.267C288.641 118.34 294.175 115.131 296.362 111.676H296.366Z" fill="#256653"/>
<path d="M277.968 132.664C277.968 132.664 272.692 138.259 271.671 142.42C270.65 146.576 270.316 150.072 267.079 155.337C263.845 160.602 266.797 165.093 264.975 167.991C263.154 170.89 262.201 174.603 261.577 177.437C260.954 180.275 254.427 188.624 252.662 193.212C250.901 197.8 251.741 198.014 251.741 198.014C251.741 198.014 253.917 191.922 255.397 190.084C256.88 188.246 261.581 181.819 262.937 179.223C264.288 176.627 266.628 175.305 269.379 171.015C272.129 166.726 275.407 163.339 276.766 156.659C278.125 149.979 282.412 143.597 277.96 132.66L277.968 132.664Z" fill="#3C8F7C"/>
<path d="M255.26 194.252C255.26 194.252 258.927 186.443 266.54 187.351C274.152 188.262 278.17 190.745 284.805 185.964C291.44 181.178 296.696 172.357 298.751 171.108C298.751 171.108 296.431 169.136 291.102 172.22C285.77 175.304 281.974 177.699 278.881 179.497C275.793 181.295 274.096 179.259 271.052 180.211C268.502 181.009 264.718 184.15 262.977 185.847C262.41 186.399 261.783 186.879 261.095 187.27C260.472 187.625 259.724 188.064 259.229 188.403C258.244 189.076 254.681 194.144 254.681 194.144L255.26 194.248V194.252Z" fill="#3C8F7C"/>
<path d="M252.98 192.192C252.98 192.192 257.926 182.75 257.315 177.421C256.703 172.091 252.063 167.173 253 164.133C253.937 161.093 259.394 153.563 257.966 146.673C257.966 146.673 255.59 151.966 254.226 152.95C252.863 153.934 244.326 157.187 244.109 164.065C243.891 170.942 250.716 174.151 252.035 176.498C253.354 178.844 255.742 179.4 255.457 180.69C255.175 181.98 254.556 186.766 252.69 191.196L252.972 192.192H252.98Z" fill="#3C8F7C"/>
<path d="M257.403 186.129L263.54 176.377C263.54 176.377 267.678 168.346 270.581 161.521C273.485 154.696 277.973 132.664 277.973 132.664C277.973 132.664 272.696 138.259 271.675 142.42C270.654 146.576 270.32 150.071 267.083 155.337C263.849 160.602 266.801 165.093 264.979 167.991C263.158 170.89 262.205 174.603 261.581 177.437C260.958 180.275 254.431 188.624 252.666 193.212C251.701 195.724 251.516 196.925 251.548 197.498C251.922 193.212 257.403 186.133 257.403 186.133V186.129Z" fill="#327F6B"/>
<path d="M276.967 184.028C273.537 183.92 270.658 183.012 266.093 185.008C261.529 187.004 258.521 189.572 258.521 189.572C258.521 189.572 256.044 192.297 254.938 193.781C254.777 194.01 254.681 194.143 254.681 194.143L255.26 194.248C255.26 194.248 258.927 186.439 266.54 187.346C274.152 188.257 278.17 190.741 284.805 185.959C291.44 181.174 296.696 172.353 298.751 171.104C298.751 171.104 292.168 174.151 287.829 177.199C283.49 180.243 280.397 184.133 276.967 184.024V184.028Z" fill="#327F6B"/>
<path d="M254.234 152.95C252.871 153.934 244.334 157.187 244.117 164.065C243.899 170.942 250.724 174.151 252.043 176.498C253.362 178.844 255.75 179.4 255.465 180.69C255.183 181.981 254.564 186.766 252.698 191.196L252.819 191.632C253.623 189.923 254.797 187.302 255.457 185.262C256.527 181.944 256.305 180.416 255.855 177.425C255.405 174.434 249.964 167.278 248.954 163.952C247.945 160.622 254.029 156.873 255.674 154.76C257.323 152.648 257.966 146.677 257.966 146.677C257.966 146.677 255.59 151.97 254.226 152.954L254.234 152.95Z" fill="#327F6B"/>
<path d="M162.937 265.395C167.98 258.844 195.623 223.738 213.647 217.889C233.544 211.43 214.793 237.078 214.793 237.078C214.793 237.078 250.088 198.388 263.041 201.876C274.912 205.073 263.041 229.056 263.041 229.056C263.041 229.056 276.412 215.776 292.63 215.776C308.848 215.776 281.604 262.876 280.156 265.395H162.937Z" fill="#96D9C9"/>
<path d="M74.2423 265.194C58.1287 243.227 38.5367 222.92 15.2409 205.262C15.0077 205.085 14.694 205.492 14.9273 205.673C37.0206 222.698 56.5685 242.803 73.0158 265.525L74.2423 265.194Z" fill="#256653"/>
<path d="M28.2419 224.928C28.7808 224.545 30.1762 223.093 32.0381 222.638C33.7995 222.041 36.0313 222.44 35.9549 222.489C36.0032 222.593 34.4871 220.868 32.1225 220.368C29.8505 219.703 26.7259 220.263 25.7045 221.166C23.3882 222.739 23.2032 225.407 24.3493 225.903C25.4913 226.431 27.0154 225.702 28.2419 224.932V224.928Z" fill="#256653"/>
<path d="M18.7516 216.55C19.2904 216.167 20.6859 214.716 22.5477 214.26C24.3091 213.664 26.5409 214.063 26.4645 214.111C26.5128 214.216 24.9967 212.491 22.6322 211.991C20.3601 211.325 17.2355 211.886 16.2141 212.789C13.8978 214.361 13.7128 217.03 14.8589 217.526C16.001 218.054 17.5251 217.324 18.7516 216.554V216.55Z" fill="#256653"/>
<path d="M44.2108 221.207C43.7081 221.521 41.9106 222.154 41.0862 223.593C40.1291 224.887 40.1412 226.988 40.2095 226.944C40.3141 227.028 38.7619 225.016 38.6653 222.759C38.3798 220.517 39.546 218.022 40.6881 217.494C42.7792 216.107 45.6424 217.014 45.9561 218.207C46.3059 219.409 45.2523 220.445 44.2108 221.203V221.207Z" fill="#256653"/>
<path d="M46.6638 191.261C61.0844 213.841 71.6083 238.921 77.6283 265.569L78.6175 265.303C72.6257 239.215 62.1702 214.176 47.7737 191.62C44.4279 186.379 40.8127 180.158 34.5515 178.114C34.4308 178.074 34.3866 178.259 34.4992 178.304C40.2216 180.465 43.5352 186.359 46.6678 191.261H46.6638Z" fill="#256653"/>
<path d="M45.3489 177.26C44.9789 177.808 43.5553 179.235 43.1371 181.11C42.5782 182.888 43.0205 185.117 43.0688 185.036C43.1773 185.081 41.424 183.597 40.8771 181.235C40.1694 178.969 40.664 175.828 41.5447 174.788C43.0647 172.434 45.7269 172.196 46.2416 173.337C46.7885 174.47 46.0928 176.014 45.3489 177.256V177.26Z" fill="#256653"/>
<path d="M41.8986 197.413C42.4374 197.03 43.8328 195.579 45.6947 195.123C47.4561 194.527 49.6879 194.926 49.6115 194.974C49.6598 195.079 48.1437 193.353 45.7792 192.853C43.5071 192.188 40.3825 192.749 39.3611 193.652C37.0448 195.224 36.8598 197.893 38.0059 198.389C39.1479 198.917 40.672 198.187 41.8986 197.417V197.413Z" fill="#256653"/>
<path d="M47.1022 206.246C47.641 205.863 49.0364 204.411 50.8983 203.956C52.6597 203.359 54.8915 203.758 54.8151 203.807C54.8634 203.912 53.3473 202.186 50.9787 201.686C48.7067 201.021 45.5821 201.581 44.5607 202.484C42.2444 204.057 42.0594 206.726 43.2055 207.221C44.3475 207.75 45.8716 207.02 47.0981 206.25L47.1022 206.246Z" fill="#256653"/>
<path d="M52.6315 187.254C52.1771 187.737 50.5524 188.919 49.8447 190.705C49.0122 192.374 49.0967 194.643 49.157 194.571C49.2575 194.631 47.7616 192.89 47.5927 190.471C47.2509 188.124 48.2321 185.097 49.2656 184.21C51.1395 182.126 53.8017 182.311 54.1314 183.521C54.4934 184.726 53.5644 186.137 52.6315 187.25V187.254Z" fill="#256653"/>
<path d="M60.2882 197.272C59.6448 197.615 57.3928 198.235 56.2628 199.925C54.98 201.428 54.8191 203.996 54.9036 203.944C55.0242 204.053 53.2991 201.465 53.3755 198.691C53.2146 195.921 54.8553 192.97 56.303 192.426C58.9812 190.91 62.4034 192.261 62.6849 193.752C63.0066 195.256 61.6353 196.429 60.2922 197.268L60.2882 197.272Z" fill="#256653"/>
<path d="M68.3469 212.442C67.6552 212.672 65.3309 212.906 63.9315 214.377C62.4154 215.643 61.8243 218.147 61.9168 218.111C62.0173 218.24 60.7506 215.397 61.2894 212.676C61.595 209.919 63.7103 207.286 65.2263 206.992C68.1177 205.948 71.2664 207.859 71.2946 209.374C71.3629 210.91 69.8107 211.838 68.3469 212.438V212.442Z" fill="#256653"/>
<path d="M32.0904 180.811C32.392 180.562 33.1561 179.642 34.2378 179.292C35.2552 178.86 36.5903 179.001 36.5461 179.034C36.5782 179.094 35.6051 178.139 34.1855 177.945C32.8102 177.651 30.9885 178.118 30.4256 178.699C29.1226 179.731 29.1307 181.319 29.8304 181.561C30.5301 181.823 31.3987 181.328 32.0904 180.816V180.811Z" fill="#256653"/>
<path d="M34.9777 174.361C34.9656 174.752 34.7042 175.921 35.0863 176.994C35.3677 178.066 36.2927 179.042 36.2927 178.985C36.361 178.973 35.0139 178.784 33.9924 177.776C32.9228 176.865 32.1788 175.131 32.2914 174.329C32.3115 172.664 33.5702 171.7 34.1895 172.111C34.8208 172.507 34.9616 173.498 34.9777 174.361Z" fill="#256653"/>
<path d="M11.9193 208.016C12.2209 207.766 12.9849 206.846 14.0667 206.496C15.0841 206.064 16.4192 206.205 16.3749 206.238C16.4071 206.298 15.4339 205.343 14.0144 205.149C12.6391 204.855 10.8174 205.323 10.2544 205.903C8.95149 206.935 8.95953 208.524 9.65925 208.765C10.359 209.028 11.2276 208.532 11.9193 208.02V208.016Z" fill="#256653"/>
<path d="M15.4057 201.509C15.3615 201.9 15.0036 203.041 15.2971 204.142C15.4902 205.23 16.3306 206.282 16.3347 206.226C16.403 206.218 15.076 205.919 14.143 204.831C13.1497 203.835 12.5506 202.045 12.7275 201.255C12.8843 199.598 14.2154 198.743 14.7985 199.199C15.3977 199.642 15.454 200.646 15.4017 201.505L15.4057 201.509Z" fill="#256653"/>
<path d="M18.5103 244.887C33.2366 246.504 46.9494 253.023 60.1515 259.376C69.0548 263.662 68.6044 264.883 70.418 265.52C70.7116 265.625 71.0052 265.303 70.8644 265.02C70.1647 263.634 68.339 262.698 67.0642 261.9C65.5844 260.973 64.0361 260.154 62.4638 259.388C59.1019 257.752 55.6556 256.28 52.2294 254.789C45.2604 251.753 38.1788 248.899 30.8157 246.968C26.7783 245.907 22.6725 245.145 18.5144 244.77C18.438 244.762 18.4259 244.883 18.5063 244.891L18.5103 244.887Z" fill="#256653"/>
<path d="M30.5221 240.118C30.4255 240.723 29.7982 242.481 30.1843 244.218C30.4135 245.932 31.6601 247.621 31.6722 247.54C31.7807 247.536 29.7258 246.984 28.3385 245.222C26.8546 243.605 26.0342 240.775 26.3599 239.554C26.7098 236.982 28.8451 235.728 29.7258 236.482C30.6306 237.215 30.6548 238.784 30.518 240.122L30.5221 240.118Z" fill="#256653"/>
<path d="M43.4951 244.774C43.3986 245.379 42.7712 247.137 43.1573 248.874C43.3865 250.588 44.6331 252.277 44.6452 252.196C44.7538 252.192 42.6988 251.64 41.3115 249.878C39.8276 248.262 39.0072 245.432 39.333 244.21C39.6828 241.638 41.8182 240.384 42.6988 241.138C43.6037 241.872 43.6278 243.44 43.4911 244.778L43.4951 244.774Z" fill="#256653"/>
<path d="M56.6771 250.665C56.5806 251.269 55.9532 253.027 56.3393 254.765C56.5685 256.478 57.8151 258.171 57.8272 258.086C57.9358 258.082 55.8809 257.53 54.4935 255.768C53.0096 254.152 52.1892 251.322 52.515 250.1C52.8648 247.528 55.0002 246.274 55.8809 247.028C56.7857 247.762 56.8098 249.33 56.6731 250.669L56.6771 250.665Z" fill="#256653"/>
<path d="M26.6495 252.269C26.9149 251.769 27.4297 250.12 28.6843 249.06C29.8063 247.927 31.6682 247.379 31.628 247.443C31.7044 247.508 29.8827 246.766 27.88 247.286C25.8855 247.649 23.7059 249.274 23.2676 250.358C22.0933 252.451 22.97 254.567 24.0356 254.507C25.1093 254.474 26.0021 253.333 26.6455 252.269H26.6495Z" fill="#256653"/>
<path d="M40.1412 257.058C40.4066 256.558 40.9214 254.91 42.176 253.849C43.298 252.717 45.1599 252.168 45.1197 252.233C45.1961 252.297 43.3744 251.555 41.3717 252.076C39.3772 252.438 37.1976 254.063 36.7593 255.147C35.585 257.24 36.4617 259.356 37.5273 259.296C38.601 259.264 39.4938 258.123 40.1372 257.058H40.1412Z" fill="#256653"/>
<path d="M16.3709 247.343C16.6042 247.064 17.143 246.097 18.072 245.597C18.9285 245.033 20.1671 244.936 20.1349 244.972C20.1751 245.02 19.1296 244.315 17.8025 244.379C16.5036 244.343 14.9192 245.073 14.501 245.698C13.4876 246.855 13.7571 248.302 14.4367 248.403C15.1163 248.524 15.824 247.927 16.3709 247.343Z" fill="#256653"/>
<path d="M17.9312 240.981C17.9835 241.34 17.9393 242.448 18.4701 243.363C18.9044 244.291 19.9097 245.024 19.9017 244.976C19.962 244.956 18.7033 245.008 17.6055 244.258C16.4795 243.609 15.5104 242.154 15.4782 241.404C15.2168 239.884 16.2061 238.796 16.8374 239.066C17.4808 239.32 17.7704 240.203 17.9312 240.985V240.981Z" fill="#256653"/>
<path d="M231.331 234.916C272.047 194.097 272.047 127.916 231.331 87.0973C190.614 46.2782 124.599 46.2782 83.8823 87.0973C43.1655 127.916 43.1655 194.097 83.8823 234.916C124.599 275.735 190.614 275.735 231.331 234.916Z" fill="#B75742"/>
<path d="M224.836 228.405C261.966 191.182 261.966 130.831 224.836 93.608C187.706 56.3848 127.507 56.3848 90.3769 93.608C53.247 130.831 53.247 191.182 90.3769 228.405C127.507 265.628 187.706 265.628 224.836 228.405Z" fill="#F47458"/>
<path d="M214.142 217.684C245.365 186.382 245.365 135.631 214.142 104.329C182.918 73.0275 132.295 73.0275 101.071 104.329C69.848 135.631 69.848 186.382 101.071 217.684C132.295 248.986 182.918 248.986 214.142 217.684Z" fill="#FCF5EB"/>
<path d="M200.103 203.61C223.573 180.081 223.573 141.932 200.103 118.403C176.633 94.874 138.58 94.874 115.11 118.403C91.6398 141.932 91.6398 180.081 115.11 203.61C138.58 227.139 176.633 227.139 200.103 203.61Z" fill="#F47458"/>
<path d="M187.785 191.261C204.452 174.552 204.452 147.461 187.785 130.752C171.118 114.043 144.095 114.043 127.428 130.752C110.761 147.461 110.761 174.552 127.428 191.261C144.095 207.97 171.118 207.97 187.785 191.261Z" fill="#FCF5EB"/>
<path d="M168.487 161.009C168.487 167.036 163.613 171.918 157.605 171.918C151.597 171.918 146.723 167.032 146.723 161.009C146.723 154.986 151.597 150.1 157.605 150.1C163.613 150.1 168.487 154.986 168.487 161.009Z" fill="#B75742"/>
<path d="M224.42 106.854L224.034 99.7666L247.969 80.9961L246.718 91.2602L223.262 109.652L224.42 106.854Z" fill="#184655"/>
<path d="M226.189 109.241L232.961 111.325L256.897 92.5543L246.658 91.3005L223.202 109.692L226.189 109.241Z" fill="#12353D"/>
<path d="M156.789 161.912C157.332 162.609 158.337 162.734 159.033 162.186L226.467 109.309L224.496 106.781L157.062 159.658C156.367 160.202 156.242 161.21 156.789 161.908V161.912Z" fill="#184655"/>
<path d="M257.403 181.545C257.403 182.222 257.656 182.77 257.966 182.77C258.276 182.77 258.529 182.222 258.529 181.545C258.529 180.868 258.276 180.319 257.966 180.319C257.656 180.319 257.403 180.868 257.403 181.545Z" fill="#F7A491"/>
<path d="M252.087 261.094C252.236 260.038 252.28 258.417 252.264 256.542H255.955C255.573 259.195 255.272 261.259 255.272 261.259L255.364 262.098V264.573H247.293C247.293 264.573 249.007 263.803 251.403 262.283C251.58 262.17 251.99 261.812 252.087 261.098V261.094Z" fill="#F7A491"/>
<path d="M267.827 260.473L266.753 257.393H269.564C269.709 259.373 269.765 260.707 269.765 260.707L270.481 262.735L271.204 265.142C271.204 265.142 268.816 265.758 267.561 265.065L267.702 262.666L267.831 260.473H267.827Z" fill="#F7A491"/>
<path d="M253.253 193.486C254.226 192.152 258.248 188.286 258.694 188.294C259.997 188.318 264.268 188.318 265.104 188.745L265.064 196.107C264.927 196.724 261.979 206.351 262.148 208.455L262.128 208.475C259.655 210.87 255.758 210.68 253.498 208.06C253.498 208.06 253.506 205.141 253.161 202.476C252.614 198.304 250.836 196.804 253.257 193.49L253.253 193.486Z" fill="#F7CC7F"/>
<path d="M260.005 184.149C260.005 184.149 259.892 186.867 260.138 187.895C260.383 188.923 260.705 189.003 258.618 189.314C257.797 189.439 257.005 189.62 257.005 189.62C257.005 189.62 257.218 188.108 257.25 187.471C257.303 186.419 257.009 183.174 257.009 183.174L260.005 184.149Z" fill="#F7A491"/>
<path d="M258.412 185.5C257.982 185.734 257.58 185.871 257.21 185.927C257.138 184.645 257.005 183.174 257.005 183.174L259.864 184.105C259.53 184.661 259.06 185.149 258.412 185.5Z" fill="#F47458"/>
<path d="M267.698 262.654C268.8 263.146 269.986 262.848 270.465 262.694L270.621 263.122L271.229 265.154C271.229 265.154 268.808 265.754 267.557 265.061L267.698 262.654Z" fill="#E25A44"/>
<path d="M255.449 265.186H247.056C246.747 265.158 246.67 264.904 246.779 264.746C247 264.424 247.981 264.186 249.079 263.674C251.009 263.88 255.059 262.541 255.364 262.094C255.541 262.993 255.622 265.15 255.449 265.186Z" fill="#E25A44"/>
<path d="M256.084 208.596L261.002 243.67L265.482 259.844H270.356C270.356 259.844 269.226 246.814 266.801 242.198C266.801 242.198 265.743 229.83 264.682 222.263C264.525 221.134 265.309 218.199 265.104 217.437C263.532 211.608 262.148 208.451 262.148 208.451L256.084 208.592V208.596Z" fill="#355389"/>
<path d="M259.124 223.762L257.986 237.236C257.986 237.236 259.148 244.936 258.352 250.044C257.552 255.151 256.494 259.844 256.494 259.844H252.015L251.126 234.397C251.126 234.397 249.405 220.574 250 216.82C250.595 213.067 253.494 208.056 253.494 208.056L260.54 208.378C260.54 208.378 262.45 215.24 262.128 217.546C261.887 219.255 259.124 223.758 259.124 223.758V223.762Z" fill="#466EB6"/>
<path d="M266.053 200.654C271.377 199.054 269.954 194.345 269.922 194.526C269.938 194.381 270.44 193.789 270.686 193.281C271.719 191.172 270.356 188.628 268.792 187.749C269.829 185.065 268.8 182.492 266.849 181.42C265.864 180.88 265.036 180.11 264.368 179.219C262.892 177.243 260.202 175.252 256.973 175.901C253.776 176.719 258.055 178.578 257.632 181.662C257.419 183.226 258.035 183 259 184.258C257.612 186.701 258.417 190.801 260.54 192.66C259.498 197.062 260.616 202.291 266.049 200.654H266.053Z" fill="#184655"/>
<path d="M262.096 179.138C262.723 181.738 259.321 183.629 256.623 183.698C254.87 183.742 254.065 183.561 253.784 181.71C253.326 178.707 254.56 176.877 256.285 176.119C258.517 175.143 261.577 176.989 262.096 179.138Z" fill="#184655"/>
<path d="M258.135 177.389C258.135 177.389 259.321 177.788 259.953 178.989C260.584 180.19 260.27 184.032 257.64 185.298C255.01 186.564 253.804 183.69 253.993 181.565C254.182 179.441 254.946 176.663 258.135 177.389Z" fill="#F7A491"/>
<path d="M256.494 183.303L254.628 183.274C254.628 183.274 254.661 184 255.481 184.036C256.482 184.081 256.494 183.303 256.494 183.303Z" fill="white"/>
<path d="M260.886 181.896C261.276 179.912 261.123 178.404 259.715 177.679C258.308 176.953 257.106 176.231 255.847 177.538L255.561 177.699C255.561 177.699 257.938 178.356 258.071 179.622C258.203 180.888 259.466 182.391 259.273 183.012C259.08 183.633 258.855 184.875 258.855 184.875L259.374 184.448C259.374 184.448 260.496 183.883 260.886 181.9V181.896Z" fill="#184655"/>
<path d="M258.437 181.138C258.24 181.686 258.388 182.238 258.766 182.367C259.144 182.496 259.611 182.158 259.808 181.61C260.005 181.061 259.856 180.509 259.478 180.38C259.1 180.251 258.634 180.59 258.437 181.138Z" fill="#F7A491"/>
<path d="M58.6113 228.427H82.8158L77.0412 265.266H79.5384L112.115 57.4846H109.618L109.128 60.6171H84.8748L85.3654 57.4846H82.8681L50.2589 265.266H52.7562L58.6153 228.427H58.6113ZM100.132 117.973L96.1346 143.456H71.9059L75.8951 117.973H100.132ZM76.2288 115.844L80.218 90.3612H104.463L100.466 115.844H76.2288ZM95.8008 145.588L91.8036 171.071H67.5829L71.5721 145.588H95.8008ZM91.4698 173.2L87.4726 198.683H63.26L67.2491 173.2H91.4698ZM108.79 62.7457L104.793 88.2286H80.5478L84.537 62.7457H108.79ZM58.941 226.294L62.9302 200.811H87.1428L83.1456 226.294H58.941Z" fill="#F7CC7F"/>
<path d="M161.723 23.2011C161.695 23.2938 161.494 23.9348 161.188 24.8862L164.425 25.5393C164.457 25.0072 164.494 24.5637 164.53 24.2412C164.795 21.9916 165.853 21.3788 166.396 20.1291C166.939 18.8793 169.046 18.0851 168.784 17.6618C168.523 17.2385 166.565 18.9559 166.09 18.7705C165.62 18.585 167.767 16.0049 167.51 15.6582C167.035 15.0252 164.992 18.3673 164.751 18.0892C164.51 17.815 166.452 14.2835 165.676 14.2391C164.9 14.1948 164.035 18.0569 163.629 17.8876C163.219 17.7183 164.759 14.3278 163.979 13.8239C163.561 13.5538 162.077 19.8549 161.417 20.2178C160.754 20.5806 159.825 18.0972 159.194 18.3069C158.562 18.5165 161.84 22.8019 161.731 23.193L161.723 23.2011Z" fill="#F79C8D"/>
<path d="M131.583 9.80443C131.567 9.90119 131.49 10.5664 131.378 11.5622L128.161 10.8204C128.35 10.3245 128.503 9.90522 128.599 9.59479C129.283 7.43393 128.571 6.44219 128.591 5.07955C128.611 3.71692 127.019 2.12449 127.429 1.84632C127.839 1.56814 128.921 3.94268 129.428 3.9709C129.934 3.99912 129.037 0.757819 129.415 0.548183C130.111 0.169225 130.598 4.05556 130.927 3.90639C131.261 3.7532 130.944 -0.262142 131.667 0.0200609C132.395 0.302264 131.591 4.1765 132.033 4.1886C132.476 4.20069 132.468 0.479648 133.389 0.342578C133.879 0.270012 132.641 6.6236 133.091 7.22832C133.545 7.83304 135.415 5.95438 135.902 6.40993C136.388 6.86146 131.643 9.41338 131.583 9.81249V9.80443Z" fill="#F79C8D"/>
<path d="M164.811 24.5797C164.811 24.5797 160.955 23.6525 160.919 23.9669C160.11 30.768 159.744 33.2272 159.608 33.2998C159.141 33.5417 152.944 27.8613 151.838 27.4783C151.312 27.2929 150.737 27.3251 150.186 27.3413C148.871 27.3816 148.613 27.3856 148.613 27.3856C148.577 27.3856 148.565 27.3856 148.565 27.3856L148.573 28.6233C150.053 29.9577 153.443 50.1876 153.728 50.1715C154.046 50.1553 160.746 51.8486 160.629 51.2801C160.609 51.1874 156.089 47.4784 154.806 42.1247C154.376 40.3266 154.163 38.3915 153.93 36.6983C155.417 37.4482 161.232 40.3145 162.153 39.9356C165.02 38.7584 164.815 24.5797 164.815 24.5797H164.811Z" fill="#F7CC7F"/>
<path d="M176.349 60.4962C176.349 60.4962 182.582 65.3904 182.791 66.2572C183.088 67.5069 188.799 65.8621 187.419 65.6081C187.102 65.5517 186.088 65.2937 186.008 65.2453C185.562 65.0074 180.016 58.3071 180.016 58.3071L176.349 60.4922V60.4962Z" fill="#F7A491"/>
<path d="M190.094 65.608L186.113 65.2815C186.113 65.2815 184.975 66.2249 182.791 66.2692C182.791 66.2692 182.441 67.269 182.606 68.4422C182.634 68.6437 182.67 69.2525 182.871 69.2404C183.607 69.192 185.566 68.7002 187.798 68.2527C187.798 68.2527 190.797 67.6157 192.531 66.5756C194.264 65.5355 190.094 65.604 190.094 65.604V65.608Z" fill="#F7CC7F"/>
<path d="M148.42 48.2163C148.42 48.2163 152.985 48.9863 158.031 47.8011C163.87 46.4304 170.333 45.1645 172.223 46.2691C173.747 47.156 183.257 61.5645 183.257 61.5645L179.586 64.2535L169.114 52.4977C169.114 52.4977 155.751 57.4403 152.751 56.892C145.915 55.6463 145.818 50.1716 148.42 48.2203V48.2163Z" fill="#355389"/>
<path d="M162.692 70.1594C162.692 70.1594 162.415 77.7184 162.242 78.9964C162.069 80.2703 165.443 84.1083 165.008 82.7739C164.908 82.4675 164.655 81.4516 164.655 81.3548C164.655 80.8468 165.905 72.2276 165.905 72.2276L162.692 70.1594Z" fill="#F7A491"/>
<path d="M167.164 85.5274L164.675 81.4718C164.675 81.4718 163.307 80.9154 162.23 79.0085C162.23 79.0085 161.184 79.1779 160.235 79.8793C160.07 80.0003 158.956 80.8187 159.033 81.0082C159.318 81.7016 160.838 83.1892 162.495 84.8139C162.495 84.8139 164.848 86.7167 166.585 87.7528C168.318 88.7889 167.164 85.5355 167.164 85.5355V85.5274Z" fill="#F7CC7F"/>
<path d="M170.087 55.2632C168.491 53.1305 155.611 51.1027 155.611 51.1027L152.019 44.1807L144.077 49.091C144.077 49.091 144.869 55.4285 145.469 57.1176C146.261 59.3753 151.601 59.4881 154.859 59.4559C157.858 59.4236 163.336 60.0364 163.336 60.0364L161.482 76.4243C161.482 76.4243 165.125 77.2548 166.146 77.1218C166.263 77.1057 172.07 57.9118 170.083 55.2591L170.087 55.2632Z" fill="#466EB6"/>
<path d="M148.605 27.3938L144.126 27.6438C144.126 27.6438 144.021 27.676 143.993 27.68C143.627 27.7486 143.961 40.8387 144.286 45.7289C144.612 50.6191 145.272 52.6711 145.272 52.6711C145.272 52.6711 151.348 51.5907 153.214 50.865C153.986 50.5626 155.86 48.2163 155.86 48.2163C155.86 48.2163 153.946 45.6362 152.981 41.4475C152.237 38.2143 151.32 32.4855 150.797 31.2922C149.591 28.5468 148.605 27.3938 148.605 27.3938Z" fill="#184655"/>
<path d="M144.254 23.6768L144.125 27.6437C144.125 27.6437 147.025 32.6548 148.517 31.9574C149.767 31.3728 148.658 27.5591 148.658 27.5591C148.658 27.5591 148.44 26.6842 148.143 25.6804C147.934 24.9789 147.757 24.217 147.773 23.6606C147.805 22.3061 144.258 23.6768 144.258 23.6768H144.254Z" fill="#F7A491"/>
<path d="M147.769 23.6645C147.801 22.31 144.254 23.6807 144.254 23.6807L144.242 24.0677C144.363 24.2491 144.492 24.4023 144.636 24.5192C145.589 25.2973 146.969 25.644 148.091 25.515C147.902 24.8619 147.757 24.1765 147.769 23.6645Z" fill="#F47458"/>
<path d="M147.721 14.634C147.721 14.634 149.201 16.8675 149.309 18.7461C149.418 20.6248 149.024 21.9108 149.024 21.9108L144.278 16.2265L147.721 14.634Z" fill="#F7CC7F"/>
<path d="M149.8 18.3632C149.868 19.0204 149.611 19.5888 149.229 19.6251C148.847 19.6654 148.485 19.1615 148.416 18.5043C148.348 17.8472 148.605 17.2788 148.987 17.2425C149.369 17.2022 149.731 17.7061 149.8 18.3632Z" fill="#F48C7F"/>
<path d="M142.742 17.1336C142.634 17.1094 142.646 22.5841 144.226 23.8702C145.806 25.1562 148.561 25.2691 149.365 23.975C150.254 22.5398 149.41 16.7748 147.057 15.5492C144.705 14.3237 142.742 17.1336 142.742 17.1336Z" fill="#F7A491"/>
<path d="M142.34 13.7432C141.134 14.8034 140.547 15.5815 139.73 17.4682C138.725 19.7904 140.719 22.1931 142.392 23.1486C144.065 24.104 144.202 25.2611 144.202 25.2611L144.27 24.5475C144.303 24.2854 144.294 24.0758 144.25 23.8944C144.198 23.6807 144.097 23.5033 144.013 23.3179C143.872 23.0115 143.414 21.9674 143.237 21.6932C142.766 20.9676 142.674 20.8103 142.907 20.1169C143.084 19.5848 142.879 18.4116 143.156 17.5327L145.408 17.0449C145.408 17.0449 146.816 16.7063 147.528 15.8839C149.57 13.5214 145.533 10.8889 142.348 13.7432H142.34Z" fill="#F7CC7F"/>
<path d="M143.438 20.7096C143.715 21.3102 143.659 21.9271 143.309 22.0883C142.959 22.2496 142.453 21.8948 142.175 21.2941C141.898 20.6934 141.954 20.0766 142.304 19.9154C142.654 19.7541 143.161 20.1089 143.438 20.7096Z" fill="#F7A491"/>
<path d="M144.126 27.6436C144.126 27.6436 139.682 27.438 138.536 26.9179C137.84 26.6034 132.134 21.9914 132.134 21.9914L132.198 9.64306L128.185 9.33667C128.185 9.33667 126.102 22.9832 126.826 24.4789C127.57 26.0229 135.926 32.3725 137.599 35.126C138.56 36.7144 140.571 58.3069 140.872 58.5004C143.036 59.6292 149.711 60.754 149.554 60.0727C145.207 41.1611 144.13 27.6436 144.13 27.6436H144.126Z" fill="#F7CC7F"/>
<path d="M146.02 22.1366L148.605 21.3142C148.605 21.3142 148.859 22.318 147.733 22.7131C146.357 23.1929 146.02 22.1366 146.02 22.1366Z" fill="white"/>
<path d="M256.366 70.1797C256.699 70.1233 256.864 69.6839 256.695 69.4057C256.422 68.9582 256.157 68.5067 255.887 68.0592C255.296 67.0674 255.24 67.0473 255.288 66.9344C255.405 66.6643 255.911 66.7893 256.092 66.8497C256.498 66.9908 256.872 67.2327 257.303 67.2892C258.143 67.398 258.754 66.753 258.38 65.9346C258.039 65.1888 257.652 64.455 257.258 63.7253C258.159 63.9108 259.056 64.1204 259.961 64.2938C260.282 64.3543 260.5 64.068 260.371 63.7697C260.085 63.1085 259.237 61.1533 258.955 60.5042C258.883 60.3389 258.453 59.6012 258.602 59.4601C258.734 59.3351 259.354 59.5044 259.494 59.5246C260.278 59.6374 260.556 59.6697 263.114 59.9801C263.419 60.0164 263.672 59.6012 263.492 59.3472C261.706 56.8436 262.016 56.6179 261.38 56.2671C261.24 56.1865 261.103 56.2873 261.079 56.4324C261.022 56.8073 261.034 56.9041 261.706 58.0974C261.879 58.4078 262.06 58.7102 262.249 59.0085C259.148 58.5691 258.38 58.3837 257.958 59.0811C257.669 59.5649 257.809 59.6979 259.426 63.3948C258.493 63.1529 257.548 62.9674 256.599 62.7618C256.241 62.6852 255.976 63.0239 256.128 63.3585C257.367 66.0273 257.508 66.0475 257.556 66.3136C257.556 66.3216 257.721 66.3579 257.476 66.3377C257.065 66.3015 256.305 65.7008 255.517 65.7935C254.826 65.8741 254.162 66.4426 254.319 67.2005C254.411 67.6399 254.572 67.7971 255.397 69.2686C254.584 69.4299 253.792 69.6879 252.98 70.0588C252.63 70.22 252.417 70.3732 252.2 70.6958C252.019 70.9578 252.244 71.3851 252.565 71.365C253.482 71.3126 253.88 70.599 256.35 70.1838L256.366 70.1797Z" fill="#F7CC7F"/>
<path d="M272.644 77.5654C272.527 76.7833 272.471 76.0335 272.495 75.211C272.499 75.0578 272.471 74.7676 272.628 74.6708C273.006 74.437 273.569 75.0861 275.013 75.4005C275.64 75.5376 276.927 75.8762 277.2 75.0337C277.341 74.6023 277.248 74.054 277.248 73.6025C277.248 73.2598 277.261 72.9212 277.265 72.5785C279.613 73.2437 279.476 73.3808 280.011 73.1469C280.148 73.0865 280.22 72.8768 280.14 72.7438C279.834 72.26 279.899 72.3971 276.947 71.5303C276.677 71.4497 276.348 71.6392 276.348 71.9456C276.348 72.4051 276.472 74.4975 276.444 74.7555C276.42 74.7394 276.307 74.7595 276.283 74.7555C275.302 74.7232 274.478 74.3644 273.589 73.9976C272.861 73.6952 271.872 73.6912 271.643 74.6265C271.518 75.1344 271.57 76.1826 271.643 76.9889C270.215 76.5293 268.788 76.0617 267.356 75.6142C267.074 75.5255 266.672 75.7351 266.696 76.0697C266.761 77.0051 266.793 77.9403 266.817 78.8756C265.977 78.5975 265.184 78.1903 264.465 77.6702C263.934 77.2873 263.258 78.0331 264.662 78.9079C265.434 79.4239 266.278 79.7989 267.187 80.0407C267.489 80.1214 267.847 79.9279 267.851 79.5812C267.851 78.6539 267.814 77.7267 267.758 76.7994C269.186 77.2389 270.621 77.6622 272.049 78.1016C272.399 78.2105 272.7 77.9041 272.648 77.5574L272.644 77.5654Z" fill="#F47458"/>
<path d="M277.59 96.3359C277.594 96.6222 277.775 96.8036 278.045 96.852C279.356 97.0898 280.659 97.2108 281.974 96.985C282.661 96.8681 282.416 95.8441 281.744 95.9167C280.695 96.0295 279.609 96.09 278.547 95.9529C278.572 95.1628 278.676 94.3807 278.869 93.6147C278.942 93.3244 278.753 92.9334 278.411 92.9414C277.562 92.9656 274.357 93.1511 274.329 93.1874C274.329 93.1793 274.337 93.1591 274.329 93.1027C274.265 92.76 274.518 91.599 274.49 91.0668C274.462 90.4702 273.67 90.2565 273.191 90.2081C272.222 90.1154 271.144 90.8169 270.199 90.4379C269.29 90.0751 270.312 88.6439 269.58 87.5272C269.017 86.6644 268.044 86.9265 266.512 87.2208C266.134 87.2934 265.768 87.37 265.579 87.7409C265.53 87.8336 265.522 87.9666 265.607 88.0472C266.069 88.4786 266.62 88.2851 268.024 88.0472C268.201 88.019 268.502 87.9102 268.663 88.0472C269.194 88.4867 268.418 89.6961 269.045 90.7161C269.532 91.5103 270.509 91.6554 271.337 91.5586C271.989 91.4821 272.789 91.1031 273.448 91.3369C273.412 91.9013 273.36 92.4738 273.368 93.0382C273.376 93.655 273.69 94.0823 274.309 94.1348C274.993 94.1912 275.704 94.0985 276.388 94.0662C276.846 94.0461 277.309 94.0259 277.767 94.0017C277.639 94.7717 277.57 95.5458 277.586 96.3319L277.59 96.3359Z" fill="#3CB4C5"/>
<path d="M239.83 60.4358C236.162 57.4203 234.296 60.1335 235.35 61.3832C235.8 61.9194 236.605 61.9638 237.011 61.355C237.196 61.0768 236.922 60.6173 236.576 60.7261C236.291 60.8148 236.223 60.4923 236.528 60.3633C236.938 60.194 237.433 60.4923 237.787 60.6818C238.607 61.1172 239.681 61.6735 239.818 62.7056C240.027 64.2456 238.462 65.8743 236.146 64.9793C232.804 63.6852 232.965 58.2064 236.508 57.2953C238.434 56.7995 240.505 57.6219 241.688 59.2103C241.917 59.5207 242.331 59.1579 242.206 58.8474C241.261 56.489 238.257 55.59 235.977 56.3882C233.641 57.2066 232.475 59.6779 232.825 62.0646C233.19 64.5681 235.326 66.6483 237.932 66.3823C240.787 66.088 242.391 62.5443 239.826 60.4358H239.83Z" fill="#3CB4C5"/>
<path d="M275.938 104.681C275.338 104.262 274.104 104.004 273.702 104.822C273.517 105.201 273.621 105.669 274.06 105.814C274.49 105.955 274.892 105.725 275.226 106.124C275.511 106.467 275.338 106.959 275.081 107.265C274.289 108.201 272.596 107.914 271.651 107.394C270.147 106.568 269.881 104.411 271.506 103.375C272.013 103.052 272.604 102.98 273.179 102.847C273.497 102.774 273.649 102.27 273.312 102.101C272.021 101.448 270.432 102.286 269.668 103.383C268.868 104.536 268.9 106.181 269.64 107.354C270.469 108.668 272.145 109.321 273.653 109.305C276.786 109.269 277.876 106.04 275.938 104.681Z" fill="#3C8F7C"/>
<path d="M214.093 201.545C213.997 201.876 213.94 201.989 213.82 202.21C213.032 203.645 211.206 205.693 211.206 205.693L209.794 202.505C209.794 202.505 210.024 201.505 210.426 200.07C211.789 200.428 213.088 200.634 214.093 201.545Z" fill="#F8A492"/>
<path d="M205.998 198.776C205.998 198.776 213.876 202.178 214.129 202.11C214.294 202.069 217.363 196.921 217.395 192.079C217.411 189.846 215.094 187.153 212.509 187.685C211.21 187.951 211.23 188.314 209.304 191.12C207.377 193.922 205.998 198.772 205.998 198.772V198.776Z" fill="#466EB6"/>
<path d="M199.27 259.751C199.27 259.751 199.455 262.852 199.459 262.86C199.528 263.255 199.797 264.226 199.797 264.585C199.797 265.932 193.427 263.444 194.855 262.848C194.984 262.795 195.659 262.384 195.704 261.928C195.768 261.223 195.937 259.796 195.937 259.796L199.27 259.751Z" fill="#F7A491"/>
<path d="M194.871 262.831C194.871 262.831 196.367 263.243 197.131 263.347C197.895 263.452 198.909 262.585 199.447 262.819C200.043 263.077 200.018 265.395 200.018 265.395C200.018 265.395 192 266.057 189.744 265.371C188.851 265.101 191.811 263.791 194.867 262.835L194.871 262.831Z" fill="#3C8F7C"/>
<path d="M212.304 259.751C212.304 259.751 212.489 262.852 212.493 262.86C212.561 263.255 212.83 264.226 212.83 264.585C212.83 265.932 206.461 263.444 207.888 262.848C208.017 262.795 208.894 262.082 208.938 261.622C209.002 260.917 208.97 259.796 208.97 259.796L212.304 259.751Z" fill="#F7A491"/>
<path d="M207.904 262.831C207.904 262.831 209.4 263.243 210.164 263.347C210.928 263.452 211.942 262.585 212.481 262.819C213.076 263.077 213.1 265.395 213.1 265.395C213.1 265.395 205.045 266.165 202.777 265.371C201.896 265.065 204.844 263.791 207.9 262.835L207.904 262.831Z" fill="#3C8F7C"/>
<path d="M211.713 182.63L212.436 187.209C212.436 187.209 209.686 189.423 208.081 188.959C206.734 188.568 207.659 186.802 207.659 186.802C207.659 186.802 208.375 184.359 208.158 183.077C207.936 181.795 211.717 182.634 211.717 182.634L211.713 182.63Z" fill="#F7A491"/>
<path d="M211.194 184.016C210.502 184.343 209.139 184.79 208.077 184.895C208.178 184.254 208.238 183.577 208.15 183.077C208.049 182.484 208.797 182.347 209.637 182.367C210.735 182.46 211.712 182.633 211.712 182.633L211.853 183.512C211.644 183.734 211.427 183.907 211.198 184.016H211.194Z" fill="#FE875E"/>
<path d="M215.183 177.348C215.295 177.348 214.097 182.464 212.235 183.343C210.377 184.222 207.603 183.766 207.084 182.388C206.509 180.864 208.608 175.647 211.222 174.982C213.836 174.321 215.183 177.348 215.183 177.348Z" fill="#F7A491"/>
<path d="M213.031 172.648C214.515 173.506 215.199 174.78 215.428 175.3C216.124 175.631 216.968 176.348 217.375 178.284C217.873 180.658 216.104 182.492 214.226 183.041C212.348 183.593 212.058 184.835 212.058 184.835L211.845 183.496C211.845 183.496 212.263 182.331 212.891 181.747C213.518 181.162 212.593 180.311 212.513 179.618C212.448 179.082 212.842 178.046 212.758 177.171C212.758 177.171 211.716 175.586 210.687 175.195C208.934 174.526 211.125 171.547 213.031 172.648Z" fill="#13375B"/>
<path d="M212.243 180.509C212.002 181.102 212.099 181.686 212.464 181.819C212.83 181.952 213.325 181.581 213.566 180.989C213.808 180.396 213.711 179.811 213.345 179.678C212.979 179.545 212.485 179.916 212.243 180.509Z" fill="#F7A491"/>
<path d="M205.319 203.388L194.497 201.618C194.497 201.618 195.728 198.51 196.17 198.51C196.612 198.51 204.353 201.9 204.353 201.9L204.969 203.142L205.323 203.392L205.319 203.388Z" fill="#F8A492"/>
<path d="M210.86 210.826C210.86 210.826 211.938 216.058 211.499 220.025C211.061 223.992 211.025 238.086 211.025 238.086L212.702 260.634L208.717 260.723C208.717 260.723 203.992 238.187 204.08 238.764C204.168 239.344 202.496 222.896 202.496 222.896L208.126 210.334L210.852 210.83L210.86 210.826Z" fill="#184655"/>
<path d="M209.802 210.58C209.802 210.58 210.506 215.292 209.625 217.356C208.745 219.425 202.077 239.695 201.989 241.348C201.9 243.001 199.685 261.271 199.685 261.271L195.052 261.142L194.051 240.828L196.15 215.296L198.189 208.842L209.802 210.58Z" fill="#13375B"/>
<path d="M212.432 187.209C212.432 187.209 211.29 187.959 210.225 187.874C209.159 187.786 207.655 186.802 207.655 186.802L207.864 186.092C207.864 186.092 210.619 185.689 210.691 185.734C210.76 185.778 212.436 187.213 212.436 187.213L212.432 187.209Z" fill="#F7A491"/>
<path d="M200.26 198.36C200.26 198.36 196.166 202.234 194.32 201.573C192.474 200.912 191.706 198.65 196.218 195.345C200.252 192.386 200.264 198.36 200.264 198.36H200.26Z" fill="#F8A492"/>
<path d="M197.485 203.142C198.092 199.824 202.5 189.503 202.854 187.604C203.026 186.681 205.403 186.661 207.667 186.782C210.06 186.911 212.436 187.213 212.436 187.213C212.436 187.213 214.556 187.56 215.485 188.439C216.418 189.314 216.663 191.732 215.324 196.328C214.266 199.957 212.955 201.944 212.308 204.589C212.175 205.476 212.062 206.351 211.914 207.371C211.676 211.321 211.914 216.538 211.914 216.538C211.914 216.538 200.388 218.937 196.078 215.296C196.078 215.296 196.862 206.544 197.485 203.146V203.142Z" fill="#50BFA5"/>
<path d="M194.545 196.01C194.545 196.01 199.069 199.751 199.331 199.751C199.5 199.751 205.785 195.115 207.237 191.309C208.037 189.205 206.356 186.85 204.434 186.858C203.103 186.862 202.512 187.209 199.87 189.439C197.232 191.672 194.541 196.01 194.541 196.01H194.545Z" fill="#466EB6"/>
<path d="M207.406 180.174L209.103 181.106C209.103 181.106 208.656 181.819 207.896 181.436C206.971 180.964 207.406 180.174 207.406 180.174Z" fill="white"/>
<path d="M99.9146 200.122C99.7819 199.739 101.632 199.433 101.732 199.046C101.833 198.659 99.3959 198.63 99.3074 198.292C99.1465 197.667 101.978 198.159 101.921 197.868C101.865 197.578 98.9696 196.925 99.2833 196.421C99.5969 195.921 102.215 197.413 102.295 197.07C102.376 196.732 99.7337 195.901 99.7819 195.155C99.8061 194.756 104.113 197.143 104.612 196.925C105.11 196.707 104.073 194.833 104.471 194.555C104.869 194.276 106.011 198.364 106.284 198.501C106.558 198.638 112.377 201.964 114.444 202.497C114.697 201.803 117.661 197.498 117.882 196.84C119.044 197.671 120.235 197.784 121.433 198.538C120.564 200.719 116.579 206.774 115.972 207.048C114.13 207.883 107.004 201.96 105.585 200.944C104.161 199.929 103.345 200.259 102.384 199.937C101.423 199.614 100.043 200.497 99.9106 200.114L99.9146 200.122Z" fill="#F7A491"/>
<path d="M139.441 184.319C138.375 181.469 135.588 179.747 132.689 180.279C131.8 178.84 130.316 177.772 128.7 177.421C125.515 176.736 121.208 177.997 121.324 181.38C120.09 183.65 120.042 186.899 121.932 188.624C121.272 191.68 124.127 194.631 127.835 194.522C129.126 196.659 131.587 198.03 134.036 197.74C134.623 197.671 135.52 197.522 135.669 197.558C135.484 197.522 139.601 200.687 143.088 195.821C146.647 190.854 144.146 184.843 139.441 184.315V184.319Z" fill="#184655"/>
<path d="M129.443 211.781C129.548 211.825 128.044 213.769 126.576 215.147C125.394 216.635 124.284 218.397 123.902 220.316C123.323 223.234 123.806 237.659 123.299 238.687C118.96 242.94 115.815 253.616 114.934 256.873C114.762 257.506 114.416 258.078 113.933 258.526L114.126 262.207L116.282 264.198C116.282 264.198 115.803 261.199 116.76 258.973C116.76 258.973 127.686 242.384 128.334 241.118C129.572 237.506 134.084 219.005 134.084 219.005L135.13 214.752C135.13 214.752 129.448 211.789 129.439 211.785L129.443 211.781Z" fill="#F7A491"/>
<path d="M111.573 259.707C111.573 259.707 112.936 261.816 113.052 262.638C113.169 263.46 113.897 265.323 114.701 265.44C114.882 265.468 118.011 265.698 117.987 265.307C117.97 265.009 116.836 264.581 116.314 264.214C115.405 263.585 113.993 258.461 113.993 258.461C113.993 258.461 111.629 259.05 111.573 259.707Z" fill="#355389"/>
<path d="M129.902 189.253C129.902 189.253 134.474 181.009 135.588 179.255C136.702 177.501 139.597 170.539 139.702 170.265C139.806 169.991 137.707 166.693 138.174 166.58C138.644 166.467 139.159 168.318 139.662 168.096C140.16 167.874 141.62 163.42 141.906 163.641C142.44 164.057 141.117 166.403 141.403 166.552C141.688 166.701 142.549 163.968 143.104 164.048C143.663 164.129 142.042 166.552 142.199 166.77C142.356 166.983 144.037 164.698 144.339 165.185C144.503 165.451 142.794 167.181 143.12 167.342C143.45 167.503 144.97 166.387 145.131 166.709C145.292 167.032 143.723 167.471 143.253 168.342C142.782 169.209 141.986 169.584 141.652 171.192C141.318 172.801 140.824 178.618 139.127 181.521C137.426 184.424 133.69 190.846 133.69 190.846L129.894 189.253H129.902Z" fill="#F79C8D"/>
<path d="M138.781 218.175C138.781 218.175 145.818 233.261 145.863 235.913C145.903 238.187 144.632 250.943 144.986 261.566C144.998 261.949 145.485 262.461 146.188 262.783C146.586 262.965 148.501 263.823 148.501 263.823L148.762 264.509L142.163 264.037L142.07 262.231C142.07 262.231 139.445 246.343 139.71 241.848C139.75 241.142 140.096 236.917 140.096 236.917L132.158 221.553L137.148 214.978L138.777 218.179L138.781 218.175Z" fill="#F7A491"/>
<path d="M132.717 193.716C132.906 192.555 134.695 189.652 134.981 188.943C134.981 188.943 132.906 186.298 131.221 186.5C131.221 186.5 128.957 190.261 127.67 190.39C126.383 190.515 121.855 190.713 121.059 191.196C120.267 191.68 116.897 196.865 116.897 196.865C116.897 196.865 119.925 199.965 121.139 199.957C121.139 199.957 121.787 198.679 122.044 198.401C122.229 198.993 125.048 208.153 125.044 210.229L125.064 210.245C127.702 212.39 131.547 211.894 133.581 209.149C133.581 209.149 133.344 206.294 133.477 203.662C133.69 199.537 134.522 197.344 132.717 193.724V193.716Z" fill="#3C8F7C"/>
<path d="M147.395 229.149L133.581 209.145C132.729 209.491 131.925 209.79 131.012 209.967C129.033 210.35 127.047 210.289 125.044 210.225C125.044 210.302 125.044 210.366 125.032 210.422C124.803 212.071 122.619 214.627 122.169 219.63C121.658 225.311 121.968 235.18 122.141 235.829C131.321 234.708 144.789 231.894 147.395 229.153V229.149Z" fill="#F7CC7F"/>
<path d="M125.338 187.052C125.338 187.052 125.824 189.677 125.728 190.709C125.631 191.745 126.098 195.079 128.197 195.087C130.296 195.099 128.595 190.846 128.398 189.834C128.201 188.822 128.153 185.681 128.153 185.681L125.338 187.048V187.052Z" fill="#F7A491"/>
<path d="M128.193 187.262C128.161 186.403 128.149 185.685 128.149 185.685L125.334 187.052C125.334 187.052 125.434 187.588 125.535 188.274C126.765 188.532 127.658 188.056 128.193 187.262Z" fill="#F47458"/>
<path d="M124.308 179.816C124.308 179.816 123.222 180.445 122.828 181.803C122.43 183.166 122.885 186.673 125.684 187.524C128.482 188.37 129.697 185.593 129.122 183.416C128.547 181.243 127.292 178.489 124.312 179.816H124.308Z" fill="#F7A491"/>
<path d="M129.472 182.573C129.415 183.158 129.11 183.601 128.784 183.569C128.458 183.537 128.237 183.037 128.293 182.452C128.35 181.868 128.655 181.42 128.981 181.456C129.307 181.489 129.528 181.989 129.472 182.573Z" fill="#F7A491"/>
<path d="M123.637 184.823C123.966 185.335 123.966 185.935 123.637 186.165C123.307 186.399 122.772 186.173 122.442 185.661C122.113 185.149 122.113 184.548 122.442 184.319C122.772 184.085 123.307 184.311 123.637 184.823Z" fill="#F7A491"/>
<path d="M142.147 265.295H150.483C150.793 265.267 150.865 265.017 150.761 264.863C150.54 264.545 149.566 264.315 148.477 263.811C146.558 264.013 142.384 262.699 142.079 262.255C141.906 263.138 141.974 265.255 142.147 265.295Z" fill="#355389"/>
<path d="M125.736 185.403L127.525 184.875C127.525 184.875 127.686 185.581 126.906 185.839C125.953 186.149 125.736 185.407 125.736 185.407V185.403Z" fill="white"/>
<path d="M80.3266 143.988C80.5598 143.996 81.1992 144.214 82.1322 145.979C83.3265 148.237 85.0678 155.062 85.0678 155.062L79.8641 157.005L79.1966 155.582L78.0947 144.617C78.0947 144.617 80.2622 143.988 80.3266 143.988Z" fill="#3C8F7C"/>
<path d="M73.4501 143.004C74.938 143.004 78.6175 143.439 80.3266 143.988C80.3266 143.988 81.5813 154.8 79.1966 163.02C78.6618 164.859 79.639 170.644 79.639 170.644L64.2251 170.438C64.2251 170.438 66.0508 156.449 65.3631 154.191C64.6755 151.934 64.6594 144.056 64.6594 144.056C64.6594 144.056 64.764 144.04 68.1218 143.46C69.6861 143.189 71.8617 143 73.4501 143V143.004Z" fill="#96D9C9"/>
<path d="M71.6526 190.72C71.6526 190.72 71.9944 194.667 72.6218 195.76C73.2491 196.852 72.5896 198.711 72.5574 198.965C72.5253 199.219 71.2384 199.586 69.1916 199.364C67.1447 199.146 67.1769 198.671 67.3417 197.909C67.5066 197.143 68.5964 196.159 68.6607 195.433C68.7251 194.704 68.0334 192.083 68.0334 192.083L71.6526 190.724V190.72Z" fill="#F7A491"/>
<path d="M77.8977 167.39C77.8977 167.39 88.5382 166.798 90.9149 168.241C93.2915 169.684 89.2259 176.763 89.2259 176.763C89.2259 176.763 81.8226 176.421 67.3175 177.259C63.8833 177.457 63.5857 168.281 64.2291 167.523C64.8725 166.765 77.8977 167.39 77.8977 167.39Z" fill="#355389"/>
<path d="M68.9342 199.67C66.827 199.445 67.0884 198.409 67.2573 197.618C67.3618 197.126 67.9691 196.542 68.327 195.994C68.516 196.143 68.8216 196.409 69.7384 196.679C70.6875 196.961 71.9904 196.405 72.8228 196.054C73.1204 197.159 73.1325 198.566 73.1043 198.779C73.0722 199.041 71.0414 199.892 68.9342 199.666V199.67Z" fill="#13375B"/>
<path d="M70.0963 175.022C70.5225 178.247 72.6257 194.305 72.6257 194.305L67.7397 194.913C67.7397 194.913 61.7318 173.958 62.0415 170.753C62.3511 167.548 64.5991 167.278 64.5991 167.278C64.5991 167.278 68.9703 166.487 70.0963 175.026V175.022Z" fill="#466EB6"/>
<path d="M64.4906 145.266C65.9302 144.726 66.638 157.743 66.831 163.101C69.3845 163.347 73.8322 163.101 74.938 163.02C75.4608 162.98 76.6592 162.541 77.1779 162.472C77.7088 162.404 78.1913 162.367 78.4527 162.412C78.5492 162.428 81.2073 163.52 81.4366 163.758C81.7181 164.057 82.4821 164.802 82.3534 165.125C82.2247 165.447 80.8856 164.222 80.8856 164.222L80.2301 163.855C81.0465 164.653 82.5987 165.701 82.3735 166.084C82.1564 166.459 80.7529 165.391 79.7556 164.665C80.6122 165.439 81.6778 166.83 81.4325 167.044C81.2114 167.237 80.0009 165.633 78.7061 165.169C78.2275 164.996 77.749 165.472 77.371 165.532C77.0935 165.572 76.6672 165.665 76.3938 165.588L74.9943 165.189C74.5158 165.234 74.5037 165.516 74.0252 165.617C73.4662 165.738 72.5494 165.863 71.8336 166.036C67.7318 167.04 66.3645 167.507 65.1058 167.507C61.3016 167.507 61.0804 146.544 64.4865 145.262L64.4906 145.266Z" fill="#F7A491"/>
<path d="M61.752 157.489C61.4826 151.998 61.5228 145.233 64.5911 144.08C65.8015 143.625 67.9368 146.362 67.5548 157.602C65.9181 157.739 63.5093 157.848 61.752 157.489Z" fill="#3C8F7C"/>
<path d="M85.9365 194.095C85.9365 194.095 85.5102 195.466 86.2743 196.373C87.0383 197.28 90.2072 198.167 90.6254 198.659C91.0436 199.15 91.0115 199.566 91.0115 199.566L82.1122 199.32L82.2087 196.627L82.6189 194.692L85.9405 194.099L85.9365 194.095Z" fill="#F7A491"/>
<path d="M86.8252 196.824C86.8252 196.824 84.537 197.751 83.4352 197.203C82.3293 196.655 82.3655 196.502 82.0438 196.707C81.7261 196.913 81.6095 199.436 81.6095 199.436L91.6187 199.731C92.3144 199.715 92.6682 199.199 92.1012 198.759C91.7152 198.457 91.2648 198.255 91.0114 198.11C90.2273 197.659 86.8292 196.824 86.8292 196.824H86.8252Z" fill="#13375B"/>
<path d="M85.5986 169.918C86.2863 168.467 87.8506 166.576 90.6052 167.717C93.2312 168.801 93.9349 171.47 93.1065 174.204C92.2781 176.937 86.8251 192.994 86.6361 195.199L82.281 195.228C82.281 195.228 83.0732 182.512 83.2662 179.44C83.4512 176.485 84.4083 172.434 85.5986 169.922V169.918Z" fill="#466EB6"/>
<path d="M92.6682 155.131H78.1149C77.7289 155.131 77.383 155.365 77.2383 155.723L72.7585 166.717H64.7359C64.5107 166.717 64.3297 166.899 64.3297 167.124C64.3297 167.35 64.5107 167.532 64.7359 167.532H87.5732C88.2005 167.532 88.7715 167.161 89.0289 166.584L93.5409 156.473C93.8224 155.84 93.3639 155.127 92.6763 155.127L92.6682 155.131Z" fill="#12353D"/>
<path d="M84.8306 161.533C84.7341 162.028 84.3038 162.355 83.8735 162.27C83.4432 162.186 83.1738 161.714 83.2743 161.218C83.3709 160.722 83.8011 160.396 84.2314 160.48C84.6617 160.565 84.9311 161.037 84.8306 161.533Z" fill="white"/>
<path d="M76.9085 129.797C76.4701 129.648 76.0399 129.483 75.6216 129.281C75.1511 129.051 74.5399 128.785 74.1538 128.725C73.3415 128.6 71.9461 128.684 71.174 129.519C70.2129 130.563 68.5078 129.708 68.8537 135.175C69.2438 141.363 72.674 140.686 72.7584 140.581C72.8429 140.476 75.8187 136.622 75.8187 136.622C75.8187 136.622 76.8602 138.904 76.8602 138.823C76.8602 138.743 82.1764 131.575 76.9085 129.797Z" fill="#0E2E35"/>
<path d="M74.3026 141.041L74.6002 143.254C74.6002 143.254 75.2637 146.439 74.4112 147.056C73.5587 147.668 70.7799 143.165 70.7799 143.165L71.0735 137.562L74.3066 141.045L74.3026 141.041Z" fill="#F7A491"/>
<path d="M70.9769 139.376C71.6807 141.287 73.3616 142.464 74.5559 142.919L74.3066 141.045L71.0734 137.562L70.9769 139.38V139.376Z" fill="#F47458"/>
<path d="M74.1257 131.458C75.9353 131.164 77.5599 132.623 77.5116 134.441C77.4915 135.232 77.4272 136.215 77.2623 137.28C76.8682 139.831 75.131 142.081 73.9809 141.879C72.8308 141.678 69.9394 139.477 70.4501 135.844C70.7638 133.603 72.2195 131.769 74.1216 131.462L74.1257 131.458Z" fill="#F7A491"/>
<path d="M71.2544 136.276C71.1579 136.836 70.7075 137.227 70.2531 137.146C69.7987 137.066 69.5051 136.546 69.6016 135.985C69.6981 135.425 70.1485 135.034 70.6029 135.115C71.0574 135.195 71.3509 135.715 71.2544 136.276Z" fill="#F7A491"/>
<path d="M70.603 135.114C70.603 135.114 71.9904 135.461 72.5091 134.566C73.0239 133.671 74.8697 131.736 77.2101 132.538C79.5545 133.341 75.1471 130.591 74.9622 130.591C74.7772 130.591 72.5252 130.575 72.5252 130.575C72.5252 130.575 70.792 132.006 70.7277 132.163C70.6633 132.321 70.1647 134.034 70.1647 134.034L70.603 135.118V135.114Z" fill="#0E2E35"/>
<path d="M73.1445 138.852L75.674 139.335C75.674 139.335 75.4327 140.291 74.3147 140.109C72.9515 139.888 73.1445 138.852 73.1445 138.852Z" fill="white"/>
<path d="M292.152 265.125H28.5999C28.0852 265.125 27.667 265.545 27.667 266.061C27.667 266.577 28.0852 266.996 28.5999 266.996H292.152C292.667 266.996 293.085 266.577 293.085 266.061C293.085 265.545 292.667 265.125 292.152 265.125Z" fill="#12353D"/>
<path d="M238.209 197.074C238.076 196.691 239.926 196.385 240.027 195.998C240.127 195.611 237.69 195.583 237.602 195.244C237.441 194.619 240.272 195.111 240.216 194.821C240.16 194.53 237.264 193.877 237.578 193.373C237.891 192.873 240.509 194.365 240.59 194.022C240.67 193.684 238.028 192.853 238.077 192.107C238.101 191.708 242.407 194.095 242.906 193.877C243.405 193.66 242.367 191.785 242.765 191.507C243.164 191.229 244.306 195.316 244.579 195.454C244.852 195.591 250.671 198.917 252.738 199.449C252.988 198.755 253.535 197.816 253.756 197.159C254.918 197.989 255.779 198.405 256.977 199.158C256.108 201.339 254.874 203.73 254.266 204.004C252.425 204.839 245.299 198.917 243.879 197.901C242.456 196.885 241.643 197.215 240.678 196.893C239.717 196.574 238.338 197.453 238.205 197.07L238.209 197.074Z" fill="#F7A491"/>
<path d="M259.699 192.914C260.25 195.188 257.315 200.251 257.315 200.251C257.315 200.251 253.133 198.272 252.397 197.421C252.397 197.421 255.236 192.507 255.425 192.208C256.269 190.854 257.411 190.854 258.159 190.942C258.758 191.015 259.699 192.918 259.699 192.918V192.914Z" fill="#EAB765"/>
</g>
<defs>
<clipPath id="clip0_69_268">
<rect width="302" height="267" fill="white"/>
</clipPath>
</defs>
</svg>
