<svg width="71" height="72" viewBox="0 0 71 72" fill="none" xmlns="http://www.w3.org/2000/svg">
<g clip-path="url(#clip0_57_1239)">
<path d="M28.1551 16.7585H20.8102C19.4582 16.7585 18.362 17.87 18.362 19.2413V21.724H30.6034V19.2413C30.6035 17.87 29.5073 16.7585 28.1551 16.7585Z" fill="#FFDC64"/>
<path d="M69.7758 63.9309H1.2242C0.547615 63.9309 0 63.375 0 62.6894C0 62.0039 0.547477 61.448 1.2242 61.448H69.7759C70.4525 61.448 71.0001 62.0039 71.0001 62.6894C71.0001 63.375 70.4525 63.9309 69.7758 63.9309Z" fill="#F5DCB4"/>
<path d="M58.7586 32.8965H12.2414C11.5648 32.8965 11.0172 32.3406 11.0172 31.655C11.0172 30.9695 11.5647 30.4136 12.2414 30.4136H58.7586C59.4352 30.4136 59.9828 30.9695 59.9828 31.655C59.9828 32.3406 59.4353 32.8965 58.7586 32.8965Z" fill="#F5DCB4"/>
<path d="M30.6035 30.4139H18.3621C17.6861 30.4139 17.1379 29.858 17.1379 29.1724V21.7241C17.1379 21.0386 17.6861 20.4827 18.3621 20.4827H30.6035C31.2795 20.4827 31.8277 21.0386 31.8277 21.7241V29.1724C31.8276 29.858 31.2795 30.4139 30.6035 30.4139Z" fill="#D5DCED"/>
<path d="M24.4828 27C25.3279 27 26.0129 26.3053 26.0129 25.4484C26.0129 24.5914 25.3279 23.8967 24.4828 23.8967C23.6377 23.8967 22.9527 24.5914 22.9527 25.4484C22.9527 26.3053 23.6377 27 24.4828 27Z" fill="white"/>
<path d="M24.4828 19.2414C23.4687 19.2414 22.6466 18.4076 22.6466 17.3793V15.5173H26.3191V17.3793C26.3189 18.4076 25.4968 19.2414 24.4828 19.2414Z" fill="#D29B6E"/>
<path d="M24.6929 16.7585H24.2728C23.6236 16.7585 23.0008 16.4969 22.5417 16.0313L21.5276 15.0029C21.0684 14.5373 20.8105 13.9059 20.8105 13.2474V10.5516C20.8105 9.18035 21.9065 8.06885 23.2587 8.06885H25.707C27.0592 8.06885 28.1552 9.18035 28.1552 10.5516V13.2474C28.1552 13.9058 27.8973 14.5373 27.4382 15.0029L26.4241 16.0313C25.9649 16.4969 25.3421 16.7585 24.6929 16.7585Z" fill="#F0C087"/>
<path d="M25.7069 8.06885H23.2586C21.9064 8.06885 20.8103 9.18035 20.8103 10.5516V11.793C20.8103 11.793 24.4828 11.793 28.1552 10.5516C28.1551 9.18035 27.059 8.06885 25.7069 8.06885Z" fill="#694B4B"/>
<path d="M50.1898 11.793H42.8449V17.9999H50.1898V11.793Z" fill="#694B4B"/>
<path d="M48.9655 16.7585H44.0689C42.7168 16.7585 41.6207 17.87 41.6207 19.2413V21.724H51.4138V19.2413C51.4138 17.87 50.3178 16.7585 48.9655 16.7585Z" fill="#00C3FF"/>
<path d="M52.6379 30.4139H40.3965C39.7205 30.4139 39.1723 29.858 39.1723 29.1724V21.7241C39.1723 21.0386 39.7205 20.4827 40.3965 20.4827H52.6379C53.3139 20.4827 53.8621 21.0386 53.8621 21.7241V29.1724C53.8621 29.858 53.3139 30.4139 52.6379 30.4139Z" fill="#D5DCED"/>
<path d="M46.5172 27C47.3623 27 48.0473 26.3053 48.0473 25.4484C48.0473 24.5914 47.3623 23.8967 46.5172 23.8967C45.6721 23.8967 44.9871 24.5914 44.9871 25.4484C44.9871 26.3053 45.6721 27 46.5172 27Z" fill="white"/>
<path d="M46.5172 19.2414C45.5031 19.2414 44.681 18.4076 44.681 17.3793V15.5173H48.3535V17.3793C48.3535 18.4076 47.5313 19.2414 46.5172 19.2414Z" fill="#D29B6E"/>
<path d="M44.8333 16.2923L43.5621 15.0032C43.103 14.5376 42.845 13.9062 42.845 13.2476V10.5518C42.845 9.18059 43.9411 8.06909 45.2933 8.06909H47.7415C49.0937 8.06909 50.1898 9.18059 50.1898 10.5518V13.2476C50.1898 13.906 49.9319 14.5376 49.4727 15.0032L48.2015 16.2923C47.2712 17.2353 45.7634 17.2353 44.8333 16.2923Z" fill="#F0C087"/>
<path d="M47.7414 8.06885H45.2931C43.941 8.06885 42.8449 9.18035 42.8449 10.5516V11.793C42.8449 11.793 46.5173 11.793 50.1898 10.5516C50.1897 9.18035 49.0936 8.06885 47.7414 8.06885Z" fill="#694B4B"/>
<path d="M39.1724 42.8276H31.8276V49.0345H39.1724V42.8276Z" fill="#694B4B"/>
<path d="M37.9482 47.793H33.0517C31.6996 47.793 30.6035 48.9045 30.6035 50.2757V52.7584H40.3966V50.2757C40.3965 48.9045 39.3004 47.793 37.9482 47.793Z" fill="#FF5050"/>
<path d="M41.6207 61.4483H29.3793C28.7033 61.4483 28.1551 60.8924 28.1551 60.2069V52.7585C28.1551 52.073 28.7033 51.5171 29.3793 51.5171H41.6207C42.2967 51.5171 42.8449 52.073 42.8449 52.7585V60.2069C42.8449 60.8924 42.2967 61.4483 41.6207 61.4483Z" fill="#D5DCED"/>
<path d="M35.5 58.0345C36.3451 58.0345 37.0301 57.3398 37.0301 56.4828C37.0301 55.6259 36.3451 54.9312 35.5 54.9312C34.6549 54.9312 33.9699 55.6259 33.9699 56.4828C33.9699 57.3398 34.6549 58.0345 35.5 58.0345Z" fill="white"/>
<path d="M35.5 50.2758C34.4859 50.2758 33.6638 49.442 33.6638 48.4138V46.5518H37.3363V48.4138C37.3362 49.442 36.5141 50.2758 35.5 50.2758Z" fill="#D29B6E"/>
<path d="M33.8161 47.3267L32.5449 46.0376C32.0858 45.572 31.8278 44.9406 31.8278 44.282V41.5862C31.8278 40.215 32.9239 39.1035 34.2761 39.1035H36.7243C38.0765 39.1035 39.1726 40.215 39.1726 41.5862V44.282C39.1726 44.9404 38.9147 45.572 38.4555 46.0376L37.1843 47.3267C36.254 48.2699 34.746 48.2699 33.8161 47.3267Z" fill="#F0C087"/>
<path d="M36.7242 39.1035H34.2759C32.9238 39.1035 31.8277 40.215 31.8277 41.5862V42.8277C31.8277 42.8277 35.5001 42.8277 39.1726 41.5862C39.1725 40.215 38.0764 39.1035 36.7242 39.1035Z" fill="#694B4B"/>
<path d="M17.1379 47.793H9.79315C8.4411 47.793 7.34489 48.9045 7.34489 50.2757V52.7584H19.5863V50.2757C19.5862 48.9045 18.49 47.793 17.1379 47.793Z" fill="#5B5D6E"/>
<path d="M19.5862 61.4483H7.34489C6.66887 61.4483 6.1207 60.8924 6.1207 60.2069V52.7585C6.1207 52.073 6.66887 51.5171 7.34489 51.5171H19.5863C20.2623 51.5171 20.8105 52.073 20.8105 52.7585V60.2069C20.8103 60.8924 20.2622 61.4483 19.5862 61.4483Z" fill="#D5DCED"/>
<path d="M13.4655 58.0345C14.3105 58.0345 14.9956 57.3398 14.9956 56.4828C14.9956 55.6259 14.3105 54.9312 13.4655 54.9312C12.6204 54.9312 11.9353 55.6259 11.9353 56.4828C11.9353 57.3398 12.6204 58.0345 13.4655 58.0345Z" fill="white"/>
<path d="M13.4655 50.2758C12.4513 50.2758 11.6293 49.442 11.6293 48.4138V46.5518H15.3018V48.4138C15.3018 49.442 14.4796 50.2758 13.4655 50.2758Z" fill="#D29B6E"/>
<path d="M13.6755 47.7932H13.2556C12.6064 47.7932 11.9836 47.5316 11.5245 47.066L10.5104 46.0376C10.0512 45.572 9.79329 44.9406 9.79329 44.282V41.5863C9.79329 40.215 10.8894 39.1035 12.2415 39.1035H14.6898C16.042 39.1035 17.138 40.215 17.138 41.5863V44.282C17.138 44.9404 16.8801 45.572 16.421 46.0376L15.4069 47.066C14.9476 47.5316 14.3248 47.7932 13.6755 47.7932Z" fill="#F0C087"/>
<path d="M14.6897 39.1035H12.2414C10.8892 39.1035 9.79315 40.215 9.79315 41.5862V42.8277C9.79315 42.8277 13.4656 42.8277 17.138 41.5862C17.1379 40.215 16.0418 39.1035 14.6897 39.1035Z" fill="#694B4B"/>
<path d="M61.2069 47.793H53.862C52.5099 47.793 51.4137 48.9045 51.4137 50.2757V52.7584H63.6551V50.2757C63.6551 48.9045 62.5589 47.793 61.2069 47.793Z" fill="#A0FFB4"/>
<path d="M63.6551 61.4483H51.4137C50.7377 61.4483 50.1895 60.8924 50.1895 60.2069V52.7585C50.1895 52.073 50.7377 51.5171 51.4137 51.5171H63.6551C64.3311 51.5171 64.8793 52.073 64.8793 52.7585V60.2069C64.8793 60.8924 64.3313 61.4483 63.6551 61.4483Z" fill="#D5DCED"/>
<path d="M57.5345 58.0345C58.3796 58.0345 59.0647 57.3398 59.0647 56.4828C59.0647 55.6259 58.3796 54.9312 57.5345 54.9312C56.6895 54.9312 56.0044 55.6259 56.0044 56.4828C56.0044 57.3398 56.6895 58.0345 57.5345 58.0345Z" fill="white"/>
<path d="M57.5345 50.2758C56.5204 50.2758 55.6984 49.442 55.6984 48.4138V46.5518H59.3708V48.4138C59.3707 49.442 58.5485 50.2758 57.5345 50.2758Z" fill="#D29B6E"/>
<path d="M57.7446 47.7932H57.3246C56.6753 47.7932 56.0526 47.5316 55.5934 47.066L54.5793 46.0376C54.1202 45.572 53.8622 44.9406 53.8622 44.282V41.5863C53.8622 40.215 54.9583 39.1035 56.3105 39.1035H58.7587C60.1109 39.1035 61.207 40.215 61.207 41.5863V44.282C61.207 44.9404 60.9491 45.572 60.4899 46.0376L59.4758 47.066C59.0167 47.5316 58.3939 47.7932 57.7446 47.7932Z" fill="#F0C087"/>
<path d="M58.7586 39.1035H56.3104C54.9582 39.1035 53.8621 40.215 53.8621 41.5862V42.8277C53.8621 42.8277 57.5345 42.8277 61.207 41.5862C61.2069 40.215 60.1108 39.1035 58.7586 39.1035Z" fill="#694B4B"/>
</g>
<defs>
<clipPath id="clip0_57_1239">
<rect width="71" height="72" fill="white"/>
</clipPath>
</defs>
</svg>
