<svg width="60" height="60" viewBox="0 0 60 60" fill="none" xmlns="http://www.w3.org/2000/svg">
<path d="M47.2455 17.0534C45.2573 11.6023 42.0275 2.83917 40.9587 0.488158C39.6754 -2.33594 14.5185 7.80452 7.56257 12.6759C6.16453 13.6544 6.45421 15.0212 6.77191 15.3666C7.53937 16.1978 16.7107 25.4677 22.9291 31.8137C27.018 28.4123 36.0385 21.5655 47.2455 17.0534ZM39.5977 7.95652L40.6329 10.7248L38.4593 11.5364L37.4252 8.7691L39.5977 7.95652ZM34.0503 9.92374L35.1854 12.6493L33.0418 13.5431L31.9068 10.8153L34.0503 9.92374ZM28.5599 12.596L29.8526 15.2543L27.7623 16.2698L26.4721 13.6115L28.5599 12.596ZM18.2351 21.9481L16.4719 19.5761L18.3326 18.1897L20.0969 20.5604L18.2351 21.9481ZM23.3661 15.3818L24.9428 17.8824L22.9813 19.1206L21.4046 16.6211L23.3661 15.3818Z" fill="#ED5564"/>
<path d="M53.3041 29.4521C52.8299 28.8192 50.931 26.6038 50.6144 25.9707C50.2969 25.3377 48.8732 21.5387 48.8732 21.5387C48.8732 21.5387 48.7712 21.2546 48.5904 20.7561C43.9971 22.4498 33.6248 26.8159 25.3195 34.2586C26.8765 35.8572 28.03 37.0524 28.4555 37.5243C30.8645 40.1895 29.2959 43.4123 26.7142 47.3379C22.7576 53.3524 21.4916 59.9999 21.4916 59.9999H41.9093C41.9093 59.9999 40.6421 50.0287 40.6421 49.3957C40.6421 48.7627 43.4917 43.3811 44.2823 42.1141C45.0742 40.8481 46.6566 39.8987 48.8732 40.2152C51.0886 40.5316 51.8804 39.7411 51.8804 38.9492C51.8804 38.3336 51.899 36.5668 51.9083 35.5908C51.9105 35.3114 52.037 35.0076 52.0474 34.9033C52.1216 34.1984 50.6098 34.6529 51.6949 34.2913C52.474 34.0315 51.8803 33.0924 51.8803 33.0924C51.8803 33.0924 51.405 31.3523 52.3546 31.0358C53.3041 30.7193 53.7793 30.0852 53.3041 29.4521Z" fill="#ED5564"/>
</svg>
