<svg width="60" height="60" viewBox="0 0 60 60" fill="none" xmlns="http://www.w3.org/2000/svg">
<g clip-path="url(#clip0_57_1185)">
<path d="M0 17.9226V57.0564C0 57.5753 0.420586 57.9959 0.939492 57.9959H59.0606C59.5794 57.9959 60.0001 57.5755 60.0001 57.0564V17.9226H0Z" fill="#ECEDEF"/>
<path d="M2.06684 57.0564V17.9226H0V57.0564C0 57.5753 0.420586 57.9959 0.939492 57.9959H3.00633C2.48742 57.9959 2.06684 57.5753 2.06684 57.0564Z" fill="#D9DCDF"/>
<path d="M55.0522 11.0229H4.94777C2.2152 11.0229 0 13.2381 0 15.9707V20.9185H60V15.9707C60 13.2381 57.7848 11.0229 55.0522 11.0229Z" fill="#FF8C78"/>
<path d="M7.01461 11.0229H4.94777C2.2152 11.0229 0 13.2381 0 15.9707V20.9185H2.06684V15.9707C2.06684 13.2381 4.28203 11.0229 7.01461 11.0229Z" fill="#DF7A6E"/>
<path d="M14.9687 37.2652C18.9748 37.2652 22.2339 34.006 22.2339 30C22.2339 25.9941 18.9749 22.7349 14.9687 22.7349C10.9625 22.7349 7.70355 25.9941 7.70355 30C7.70355 34.006 10.9625 37.2652 14.9687 37.2652Z" fill="#B3B9BF"/>
<path d="M19.9792 37.0771H9.95824C7.23012 37.0771 5.01047 39.2968 5.01047 42.0249V53.0479C5.01047 53.5668 5.43105 53.9874 5.94996 53.9874H23.9876C24.5064 53.9874 24.9271 53.567 24.9271 53.0479V42.0249C24.927 39.2968 22.7073 37.0771 19.9792 37.0771Z" fill="#B3B9BF"/>
<path d="M54.0502 35.9498H44.0293C43.5105 35.9498 43.0898 35.5293 43.0898 35.0103C43.0898 34.4913 43.5104 34.0708 44.0293 34.0708H54.0502C54.5689 34.0708 54.9896 34.4913 54.9896 35.0103C54.9896 35.5293 54.5689 35.9498 54.0502 35.9498Z" fill="#B3B9BF"/>
<path d="M54.0502 43.9666H30C29.4812 43.9666 29.0605 43.5462 29.0605 43.0271C29.0605 42.5082 29.4811 42.0876 30 42.0876H54.0502C54.5689 42.0876 54.9896 42.5081 54.9896 43.0271C54.9895 43.546 54.5689 43.9666 54.0502 43.9666Z" fill="#B3B9BF"/>
<path d="M44.0292 51.9832H30C29.4812 51.9832 29.0605 51.5628 29.0605 51.0437C29.0605 50.5247 29.4811 50.1042 30 50.1042H44.0292C44.548 50.1042 44.9687 50.5247 44.9687 51.0437C44.9687 51.5628 44.548 51.9832 44.0292 51.9832Z" fill="#B3B9BF"/>
<path d="M40.0208 35.9498H30C29.4812 35.9498 29.0605 35.5293 29.0605 35.0103C29.0605 34.4913 29.4811 34.0708 30 34.0708H40.0208C40.5396 34.0708 40.9603 34.4913 40.9603 35.0103C40.9603 35.5293 40.5397 35.9498 40.0208 35.9498Z" fill="#B3B9BF"/>
<path d="M25.9916 18.1628H34.0083C35.1465 18.1628 36.1065 17.2738 36.1939 16.1389L36.5873 11.0229H23.4125L23.8061 16.139C23.8934 17.2738 24.8534 18.1628 25.9916 18.1628Z" fill="#DF7A6E"/>
<path d="M35.6998 2.30532C35.5219 2.11325 35.2721 2.00415 35.0105 2.00415H24.9896C24.728 2.00415 24.4782 2.11325 24.3003 2.30532C24.1226 2.49728 24.0329 2.75474 24.053 3.01571L25.055 16.0429C25.0928 16.5322 25.5008 16.9103 25.9917 16.9103H34.0084C34.4993 16.9103 34.9073 16.5322 34.9451 16.0429L35.9471 3.01571C35.9672 2.75474 35.8775 2.49739 35.6998 2.30532ZM27.9959 7.95411C27.9959 6.84728 28.893 5.94997 30 5.94997C31.1069 5.94997 32.0041 6.84739 32.0041 7.95411C32.0041 9.06083 31.1069 9.95825 30 9.95825C28.893 9.95825 27.9959 9.06083 27.9959 7.95411Z" fill="#FFC44F"/>
<path d="M26.9965 16.0429L25.9944 3.01571C25.9744 2.75474 26.064 2.49728 26.2418 2.30532C26.4197 2.11325 26.6694 2.00415 26.9311 2.00415H24.9895C24.7278 2.00415 24.4781 2.11325 24.3002 2.30532C24.1225 2.49728 24.0328 2.75474 24.0528 3.01571L25.0549 16.0429C25.0927 16.5322 25.5007 16.9103 25.9916 16.9103H27.9332C27.4423 16.9103 27.0342 16.5322 26.9965 16.0429Z" fill="#F7B14D"/>
<path d="M54.0502 23.0479H30C29.4812 23.0479 29.0605 23.4683 29.0605 23.9873V27.9957C29.0605 28.5146 29.4811 28.9352 30 28.9352H54.0502C54.5689 28.9352 54.9896 28.5148 54.9896 27.9957V23.9873C54.9895 23.4684 54.5689 23.0479 54.0502 23.0479Z" fill="#8E959F"/>
</g>
<defs>
<clipPath id="clip0_57_1185">
<rect width="60" height="60" fill="white"/>
</clipPath>
</defs>
</svg>
