<svg width="60" height="60" viewBox="0 0 60 60" fill="none" xmlns="http://www.w3.org/2000/svg">
<g clip-path="url(#clip0_57_1162)">
<path d="M52.8387 21.7965C51.4525 18.5207 49.4715 15.5801 46.9444 13.0551C44.4195 10.53 41.4787 8.54699 38.2048 7.1627C34.8137 5.7272 31.2112 5.00024 27.4997 5.00024C23.7872 5.00024 20.1865 5.7272 16.7953 7.1627C13.5205 8.54699 10.5789 10.53 8.05389 13.0551C5.52884 15.5801 3.54674 18.5209 2.16163 21.7965C0.726951 25.1878 0 28.7893 0 32.5009C0 36.2125 0.726951 39.8141 2.16152 43.2053C3.54674 46.4792 5.52884 49.4217 8.05389 51.9468C10.5788 54.4717 13.5205 56.453 16.7953 57.839C20.1865 59.2726 23.7872 59.9997 27.4997 59.9997C31.2112 59.9997 34.8137 59.2728 38.2048 57.839C41.4789 56.453 44.4195 54.4717 46.9444 51.9468C49.4713 49.4217 51.4525 46.4792 52.8387 43.2053C54.2723 39.8141 54.9994 36.2125 54.9994 32.5009C54.9992 28.7893 54.2723 25.1878 52.8387 21.7965Z" fill="#ED5564"/>
<path d="M40.7574 19.2423C37.2161 15.7011 32.5084 13.751 27.4997 13.751C22.4908 13.751 17.7823 15.7011 14.241 19.2423C10.6996 22.7835 8.74966 27.4931 8.74966 32.5009C8.74966 37.5088 10.6998 42.2164 14.241 45.7596C17.7822 49.3009 22.4908 51.2509 27.4997 51.2509C32.5084 51.2509 37.2161 49.3008 40.7574 45.7596C44.3004 42.2166 46.2505 37.5089 46.2505 32.5009C46.2505 27.493 44.3004 22.7835 40.7574 19.2423Z" fill="#E6E9ED"/>
<path d="M27.4997 22.4995C21.9855 22.4995 17.4993 26.9856 17.4993 32.5007C17.4993 38.014 21.9854 42.5001 27.4997 42.5001C33.0139 42.5001 37.4999 38.014 37.4999 32.5007C37.4999 26.9856 33.0139 22.4995 27.4997 22.4995Z" fill="#ED5564"/>
<path d="M59.9303 9.67496C59.771 9.22271 59.3663 8.90043 58.8884 8.84734L51.9268 8.07292L51.154 1.11304C51.1009 0.635124 50.7786 0.230455 50.3246 0.0710717C49.8724 -0.0881942 49.367 0.0271242 49.0265 0.36593L40.188 9.2063C39.9848 9.40952 39.8566 9.67871 39.8291 9.96618L39.1901 16.3987C39.1425 16.8858 39.3824 17.3563 39.8053 17.6034C40.0013 17.717 40.2174 17.772 40.4353 17.772C40.6879 17.772 40.9406 17.6968 41.1566 17.5431L45.584 14.4157L42.4565 18.845C42.1745 19.2442 42.1507 19.7714 42.3979 20.1945C42.6231 20.5826 43.0352 20.8153 43.4764 20.8153C43.5185 20.8153 43.5588 20.8134 43.6009 20.8097L50.0352 20.1724C50.3226 20.1431 50.59 20.0168 50.7949 19.8117L59.6334 10.9733C59.9742 10.6344 60.0877 10.1291 59.9303 9.67496Z" fill="#F6BB42"/>
<path d="M27.4997 33.7496C27.1793 33.7496 26.8597 33.6288 26.6153 33.3834C26.1273 32.8963 26.1273 32.1054 26.6163 31.6164L30.465 27.7676C30.953 27.2786 31.745 27.2786 32.2338 27.7676C32.7209 28.2546 32.7209 29.0474 32.2338 29.5345L28.3832 33.3834C28.1396 33.6288 27.8191 33.7496 27.4997 33.7496Z" fill="#434A54"/>
<path d="M51.6795 8.32171C51.4671 8.10936 51.0917 7.85669 50.5077 7.85669C49.3578 7.85669 47.1733 8.86549 39.0507 16.1825C34.6416 20.1558 30.5162 24.1804 30.4759 24.2208C30.2351 24.457 30.0988 24.7793 30.0988 25.1162V28.6501C30.0988 29.3405 30.6591 29.9008 31.3494 29.9008H34.8851C35.222 29.9008 35.5443 29.7653 35.7787 29.5235C35.8226 29.4796 40.2135 24.9806 44.3571 20.3481C46.8052 17.6107 48.6931 15.3585 49.9693 13.6519C50.7676 12.5845 51.3243 11.7385 51.6721 11.061C51.903 10.6124 52.6043 9.24637 51.6795 8.32171Z" fill="#FFCE54"/>
</g>
<defs>
<clipPath id="clip0_57_1162">
<rect width="60" height="60" fill="white"/>
</clipPath>
</defs>
</svg>
