<svg width="60" height="60" viewBox="0 0 60 60" fill="none" xmlns="http://www.w3.org/2000/svg">
<g clip-path="url(#clip0_57_1154)">
<path d="M21.1697 59.9391H7.07416C5.70248 59.9391 4.59048 58.8271 4.59048 57.4554V22.8001C4.59048 21.4284 5.70248 20.3164 7.07416 20.3164H15.8266C16.9 20.3164 17.852 21.0061 18.1865 22.0262C24.8732 42.4182 23.6534 21.2014 23.6534 57.4554C23.6534 58.827 22.5414 59.9391 21.1697 59.9391Z" fill="#D1D3D4"/>
<path d="M18.6861 59.9391V34.8972C18.6861 33.7508 19.4704 32.7536 20.5844 32.4833C23.3595 31.8117 22.9995 33.8563 29.9999 45.6462C36.8626 34.0879 32.7567 33.156 54.7063 55.7235C55.5103 56.5504 55.6523 57.8404 54.9899 58.838C53.9589 60.3904 55.4024 59.9391 18.6861 59.9391Z" fill="#48AEE2"/>
<path d="M54.7063 55.7238C32.8191 33.2204 36.9138 34.0022 29.9999 45.6462V59.939C54.718 59.939 53.985 60.351 54.9898 58.8381C55.6523 57.8408 55.5103 56.5506 54.7063 55.7238Z" fill="#39A3DB"/>
<path d="M51.1454 59.1869C33.0474 40.5794 32.8837 41.2012 33.7572 39.133C34.612 37.1093 35.0066 37.6157 52.9257 37.6157C54.2974 37.6157 55.4094 38.7276 55.4094 40.0993V57.4553C55.4095 59.6861 52.6905 60.7758 51.1454 59.1869Z" fill="#F59D00"/>
<path d="M55.4095 42.5831C34.3508 42.5831 35.2739 42.8507 34.2891 41.8573C31.5472 39.0908 37.373 35.5721 41.8156 22.0193C42.1493 21.0015 43.1021 20.3164 44.1735 20.3164H52.9258C54.2975 20.3164 55.4095 21.4284 55.4095 22.8001V42.5831Z" fill="#57BDB7"/>
<path d="M29.9999 0C18.7862 0 9.21482 10.6162 13.4667 23.574C16.1766 31.8391 23.6964 45.0461 27.8943 51.7569C28.3483 52.4828 29.1441 52.9235 30.0002 52.9235C30.8562 52.9235 31.6519 52.4825 32.106 51.7569C35.0442 47.0598 43.5314 32.7264 46.5336 23.5743C50.7689 10.6636 41.2516 0 29.9999 0ZM29.9998 26.569C25.1118 26.569 21.1352 22.5917 21.1352 17.7027C21.1352 12.8147 25.112 8.83783 29.9998 8.83783C34.8878 8.83783 38.8647 12.8145 38.8647 17.7027C38.8647 22.5916 34.888 26.569 29.9998 26.569Z" fill="#FF5E5B"/>
<path d="M29.9999 0V8.83783C34.888 8.83795 38.8646 12.8147 38.8646 17.7027C38.8646 22.5916 34.888 26.5689 29.9999 26.569V52.9235C30.856 52.9235 31.6516 52.4825 32.1056 51.7569C35.0437 47.0598 43.5309 32.7264 46.5331 23.5743C50.7689 10.6636 41.2516 0 29.9999 0Z" fill="#FF423D"/>
</g>
<defs>
<clipPath id="clip0_57_1154">
<rect width="60" height="60" fill="white"/>
</clipPath>
</defs>
</svg>
