<svg width="55" height="55" viewBox="0 0 55 55" fill="none" xmlns="http://www.w3.org/2000/svg">
<path d="M30.4701 4.95725C29.4367 4.33107 28.2514 4 27.0431 4C25.8348 4 24.6496 4.33107 23.6161 4.95725L8.18596 14.3094C7.21361 14.8986 6.40958 15.7285 5.8515 16.719C5.29343 17.7096 5.00015 18.8273 5 19.9642V35.0358C5.00015 36.1727 5.29343 37.2904 5.8515 38.281C6.40958 39.2715 7.21361 40.1014 8.18596 40.6906L23.6161 50.0427C24.6496 50.6689 25.8348 51 27.0431 51C28.2514 51 29.4367 50.6689 30.4701 50.0427L45.9002 40.6906C46.8726 40.1014 47.6766 39.2715 48.2347 38.281C48.7928 37.2904 49.0861 36.1727 49.0862 35.0358V19.9642C49.0861 18.8273 48.7928 17.7096 48.2347 16.719C47.6766 15.7285 46.8726 14.8986 45.9002 14.3094L30.4701 4.95725Z" fill="#FF4344"/>
<g clip-path="url(#clip0_1160_593)">
<path fill-rule="evenodd" clip-rule="evenodd" d="M12.8007 16.8097C11.9152 16.8097 11.1972 17.5276 11.1972 18.4132L11.1972 36.0523C11.1972 36.9379 11.9152 37.6558 12.8008 37.6558L14.4043 37.6558L41.6647 37.6557C42.5503 37.6557 43.2682 36.9378 43.2682 36.0522L43.2682 34.4668L43.2682 34.4487L43.2682 34.4303V20.0336L43.2683 20.0167L43.2682 19.9998L43.2681 18.4132C43.2682 17.5275 42.5504 16.8097 41.6646 16.8097L40.0776 16.8097L40.0612 16.8096L40.0447 16.8097L14.4181 16.8096C14.4135 16.8096 14.4089 16.8096 14.4044 16.8096C14.3997 16.8097 14.3952 16.8097 14.3907 16.8097L12.8007 16.8097ZM14.4043 23.2238V31.2416C16.1756 31.2416 17.6115 32.6775 17.6115 34.4487L27.2327 34.4486L36.8541 34.4487C36.854 32.6774 38.2899 31.2415 40.0612 31.2416L40.0613 23.2238C38.2899 23.2238 36.8541 21.788 36.8541 20.0166L27.2496 20.0168C31.0061 20.0272 33.647 23.4938 33.6469 27.2328C33.647 30.9772 30.9983 34.4487 27.2327 34.4486C23.4673 34.4487 20.8185 30.9772 20.8185 27.2327C20.8185 23.4938 23.4594 20.0271 27.216 20.0167L17.6114 20.0168C17.6114 21.788 16.1756 23.2238 14.4043 23.2238C14.4043 23.2238 14.4043 23.2238 14.4043 23.2238ZM24.0257 27.2328C24.0256 24.7778 25.6846 23.2238 27.2328 23.2238C28.781 23.2238 30.4398 24.7779 30.4398 27.2328C30.4398 29.6876 28.781 31.2415 27.2326 31.2416C25.6845 31.2415 24.0257 29.6876 24.0257 27.2328Z" fill="white"/>
</g>
<defs>
<clipPath id="clip0_1160_593">
<rect width="38.4852" height="38.4852" fill="white" transform="translate(0 27.2131) rotate(-45)"/>
</clipPath>
</defs>
</svg>
