<svg width="275" height="113" viewBox="0 0 275 113" fill="none" xmlns="http://www.w3.org/2000/svg">
<path d="M264.109 112.784H165.414C154.391 112.783 143.819 108.835 136.024 101.808L114.68 82.5638C110.821 79.0835 106.239 76.3228 101.196 74.4395C96.1533 72.5562 90.7483 71.5871 85.29 71.5877H11.561C0.538034 71.587 -10.0331 67.6385 -17.8273 60.6107C-25.6214 53.5828 -30 44.0514 -30 34.1129V33.2586C-30 23.3201 -25.6214 13.7887 -17.8273 6.76086C-10.0331 -0.266949 0.538034 -4.21549 11.561 -4.21619H264.438C269.921 -4.21596 275.349 -3.2377 280.411 -1.33774C285.473 0.562221 290.067 3.34632 293.93 6.85421C297.793 10.3621 300.849 14.5244 302.92 19.1015C304.991 23.6785 306.038 28.5799 305.999 33.5231L305.67 75.5761C305.592 85.4683 301.179 94.9312 293.393 101.901C285.608 108.872 275.081 112.783 264.109 112.784Z" fill="#FF4344"/>
</svg>
