<svg width="20" height="20" viewBox="0 0 20 20" fill="none" xmlns="http://www.w3.org/2000/svg">
<path d="M16.6667 3.33337H5.00004C4.08087 3.33337 3.33337 4.08087 3.33337 5.00004V9.16671H5.00004V6.66671L10.3334 10.6667C10.4777 10.7748 10.6531 10.8332 10.8334 10.8332C11.0136 10.8332 11.1891 10.7748 11.3334 10.6667L16.6667 6.66671V14.1667H10V15.8334H16.6667C17.5859 15.8334 18.3334 15.0859 18.3334 14.1667V5.00004C18.3334 4.08087 17.5859 3.33337 16.6667 3.33337ZM10.8334 8.95837L5.55504 5.00004H16.1117L10.8334 8.95837Z" fill="white"/>
<path d="M1.66663 10H7.49996V11.6667H1.66663V10ZM3.33329 12.5H8.33329V14.1667H3.33329V12.5ZM5.83329 15H9.16663V16.6667H5.83329V15Z" fill="white"/>
</svg>
