<svg width="36" height="36" viewBox="0 0 36 36" fill="none" xmlns="http://www.w3.org/2000/svg">
<circle cx="18" cy="18" r="18" fill="white"/>
<path d="M18 10.417C9.7309 10.417 7.24574 17.5854 7.22299 17.658L7.10815 18.0003L7.2219 18.3427C7.24574 18.4152 9.7309 25.5837 18 25.5837C26.2691 25.5837 28.7542 18.4152 28.777 18.3427L28.8918 18.0003L28.7781 17.658C28.7542 17.5854 26.2691 10.417 18 10.417ZM18 22.3337C15.6102 22.3337 13.6667 20.3902 13.6667 18.0003C13.6667 15.6105 15.6102 13.667 18 13.667C20.3898 13.667 22.3333 15.6105 22.3333 18.0003C22.3333 20.3902 20.3898 22.3337 18 22.3337Z" fill="#FF4344"/>
<path d="M18 15.833C16.8257 15.833 15.8334 16.8253 15.8334 17.9997C15.8334 19.174 16.8257 20.1663 18 20.1663C19.1744 20.1663 20.1667 19.174 20.1667 17.9997C20.1667 16.8253 19.1744 15.833 18 15.833Z" fill="#FF4344"/>
</svg>
