<svg width="393" height="371" viewBox="0 0 393 371" fill="none" xmlns="http://www.w3.org/2000/svg">
<rect width="393" height="371"/>
<g id="AKTIVITAS - Laporan Saya">
<g clip-path="url(#clip0_0_1)">
<rect y="-253" width="393" height="852" rx="40" fill="#F5F8FF"/>
<g id="Frame 234" clip-path="url(#clip1_0_1)">
<g id="Gambar 1" clip-path="url(#clip2_0_1)">
<g id="Clip path group">
<mask id="mask0_0_1" style="mask-type:luminance" maskUnits="userSpaceOnUse" x="-11" y="0" width="410" height="384">
<g id="clip-path">
<path id="Vector" d="M398.757 0.0858154H-10.4367V383.87H398.757V0.0858154Z" fill="white"/>
</g>
</mask>
<g mask="url(#mask0_0_1)">
<g id="Group">
<path id="Vector_2" d="M399.087 0.0858154H-10.4367V351.2H399.087V0.0858154Z" fill="url(#paint0_linear_0_1)"/>
<path id="Vector_3" d="M286.081 89.8444C286.832 147.217 335.23 206.993 403.04 206.993C467.635 206.993 520 154.543 520 89.8444C520 54.007 500.252 10.7645 479.031 4.70576C477.562 4.28336 473.43 3.28678 468.604 2.39579C456.219 0.139528 443.598 -0.525827 431.045 0.415824L327.923 0.0858292C320.885 6.49103 285.422 40.0317 286.081 89.8444Z" fill="url(#paint1_linear_0_1)"/>
<path id="Vector_4" d="M40.9596 371C105.555 371 157.919 318.551 157.919 253.852C157.919 189.153 105.555 136.704 40.9596 136.704C-23.6354 136.704 -76 189.153 -76 253.852C-76 318.551 -23.6354 371 40.9596 371Z" fill="url(#paint2_linear_0_1)"/>
<path id="Vector_5" d="M65.7979 121.333C64.3371 120.948 63.0877 119.999 62.3228 118.695C61.5579 117.39 61.3397 115.835 61.7159 114.37L65.0863 101.467C65.4719 100.005 66.4195 98.7554 67.7221 97.9912C69.0247 97.2269 70.5763 97.0101 72.038 97.3882C73.5022 97.7721 74.7545 98.7224 75.5199 100.03C76.2852 101.338 76.5011 102.897 76.12 104.364L72.7529 117.267C72.3637 118.727 71.4143 119.973 70.1115 120.735C68.8087 121.496 67.2582 121.711 65.7979 121.333Z" fill="#FFA68F"/>
<path id="Vector_6" d="M70.0546 106.717C67.9579 106.157 66.0627 105.012 64.5888 103.417C64.5888 103.417 66.951 113.39 73.0231 116.221L75.4907 106.773C73.7012 107.198 71.835 107.179 70.0546 106.717Z" fill="#EA735A"/>
<path id="Vector_7" d="M90.3331 96.6357C89.8817 98.3748 88.2838 99.4637 86.7716 99.0678C85.2593 98.6718 84.3962 96.9393 84.8508 95.2002C85.3055 93.4611 86.9001 92.3688 88.4156 92.7648C89.9312 93.1608 90.7877 94.8966 90.3331 96.6357Z" fill="#EA735A"/>
<path id="Vector_8" d="M56.6619 87.8183C56.2072 89.5574 57.0671 91.2898 58.5794 91.6858C60.0916 92.0818 61.6895 90.9929 62.1442 89.2538C62.5988 87.5147 61.7389 85.7789 60.2267 85.3829C58.7144 84.9869 57.1034 86.0759 56.6619 87.8183Z" fill="#FFA68F"/>
<path id="Vector_9" d="M88.073 94.2004C88.085 94.1859 88.1001 94.1741 88.1172 94.1661C88.1343 94.1581 88.1529 94.1539 88.1718 94.1539C88.1907 94.1539 88.2093 94.1581 88.2264 94.1661C88.2435 94.1741 88.2586 94.1859 88.2706 94.2004C88.2968 94.23 88.3113 94.2681 88.3113 94.3076C88.3113 94.3472 88.2968 94.3853 88.2706 94.4149C88.2706 94.4149 87.2823 95.4973 87.3119 96.7248C87.3247 97.0937 87.4325 97.4529 87.6249 97.7676C88.3728 96.9922 87.8061 96.0319 87.783 95.989C87.763 95.9546 87.7563 95.9141 87.7642 95.8752C87.7721 95.8362 87.7941 95.8015 87.8259 95.7778C87.8403 95.7663 87.8571 95.758 87.875 95.7536C87.8929 95.7492 87.9116 95.7487 87.9297 95.7521C87.9478 95.7556 87.965 95.7629 87.9801 95.7736C87.9951 95.7843 88.0077 95.7981 88.017 95.8141C88.017 95.8141 88.7517 97.0549 87.7797 98.0151C87.8936 98.1615 88.0205 98.2974 88.1586 98.421C88.1842 98.4509 88.1982 98.4889 88.1982 98.5283C88.1982 98.5676 88.1842 98.6056 88.1586 98.6355C88.1424 98.6577 88.12 98.6746 88.0942 98.684C88.0684 98.6934 88.0403 98.6949 88.0137 98.6883C87.9933 98.6844 87.9748 98.674 87.961 98.6586C87.677 98.4251 87.4461 98.1335 87.2836 97.8035C87.1211 97.4734 87.0308 97.1124 87.0187 96.7446C87.0055 95.3785 88.0367 94.2466 88.073 94.2004Z" fill="#310B02"/>
<path id="Vector_10" d="M59.8181 86.7986C59.8149 86.7799 59.8076 86.7622 59.7968 86.7466C59.7861 86.731 59.7721 86.7179 59.7559 86.7082C59.7396 86.6985 59.7214 86.6924 59.7026 86.6903C59.6838 86.6883 59.6648 86.6903 59.6468 86.6963C59.6102 86.7111 59.58 86.7385 59.5619 86.7736C59.5438 86.8087 59.5388 86.8492 59.548 86.8877C59.548 86.8877 59.8774 88.3133 59.2581 89.3627C59.0665 89.6784 58.7963 89.9388 58.4739 90.1184C58.2005 89.0789 59.1625 88.5179 59.2053 88.4915C59.24 88.4719 59.2663 88.4402 59.279 88.4024C59.2918 88.3647 59.2902 88.3235 59.2745 88.2869C59.2672 88.2697 59.2563 88.2541 59.2426 88.2413C59.2289 88.2286 59.2128 88.2188 59.1951 88.2125C59.1775 88.2063 59.1587 88.2039 59.1401 88.2053C59.1214 88.2068 59.1032 88.2121 59.0867 88.2209C59.0867 88.2209 57.8381 88.9436 58.217 90.2569C58.0469 90.3303 57.8704 90.3878 57.6898 90.4286C57.6516 90.438 57.6184 90.4617 57.5969 90.4948C57.5755 90.5279 57.5675 90.5679 57.5745 90.6067C57.5773 90.6341 57.5882 90.6601 57.6058 90.6812C57.6234 90.7024 57.6469 90.7178 57.6733 90.7255C57.6937 90.7321 57.7156 90.7321 57.7359 90.7255C58.0975 90.6609 58.4412 90.5197 58.7441 90.3114C59.0469 90.1031 59.3018 89.8326 59.492 89.5178C60.1773 88.3529 59.8346 86.8745 59.8181 86.7986Z" fill="#310B02"/>
<path id="Vector_11" d="M88.2374 93.3964C90.7072 83.933 86.5444 74.6471 78.9393 72.6559C71.3343 70.6646 63.167 76.722 60.6971 86.1854C58.2272 95.6488 62.3901 104.935 69.9951 106.926C77.6002 108.917 85.7675 102.86 88.2374 93.3964Z" fill="#FFA68F"/>
<path id="Vector_12" d="M78.7425 96.8337C78.8052 96.6699 78.8326 96.4948 78.8231 96.3196C78.8136 96.1445 78.7673 95.9734 78.6872 95.8174C78.6072 95.6614 78.4952 95.5241 78.3586 95.4144C78.222 95.3047 78.0639 95.225 77.8945 95.1807C77.7251 95.1363 77.5482 95.1283 77.3755 95.157C77.2028 95.1857 77.038 95.2506 76.892 95.3475C76.746 95.4443 76.6221 95.5708 76.5282 95.7189C76.4344 95.867 76.3727 96.0332 76.3474 96.2067L78.7425 96.8337Z" fill="#EA735A"/>
<path id="Vector_13" d="M76.8712 95.6457C76.8529 95.6408 76.8358 95.6321 76.821 95.6202C76.8062 95.6083 76.7942 95.5933 76.7855 95.5764C76.7678 95.5409 76.7636 95.5001 76.774 95.4618C76.7843 95.4234 76.8084 95.3902 76.8415 95.3685C76.9953 95.2631 77.1697 95.1915 77.3531 95.1585C77.5366 95.1255 77.7249 95.1318 77.9057 95.1771C78.0816 95.224 78.2458 95.3068 78.3882 95.4204C78.5305 95.534 78.6478 95.6759 78.7327 95.8371C78.751 95.8727 78.7557 95.9138 78.746 95.9526C78.7363 95.9915 78.7128 96.0255 78.68 96.0483C78.6643 96.0586 78.6466 96.0655 78.628 96.0684C78.6095 96.0714 78.5906 96.0703 78.5725 96.0653C78.5544 96.0603 78.5375 96.0515 78.5231 96.0394C78.5087 96.0274 78.497 96.0124 78.4889 95.9955C78.421 95.8632 78.3257 95.7469 78.2094 95.6544C78.093 95.5619 77.9584 95.4953 77.8143 95.4591C77.6702 95.4229 77.5201 95.4178 77.374 95.4443C77.2278 95.4708 77.089 95.5282 76.9667 95.6127C76.954 95.6246 76.9389 95.6336 76.9224 95.6393C76.906 95.645 76.8885 95.6472 76.8712 95.6457Z" fill="#310B02"/>
<path id="Vector_14" d="M72.4959 92.1544C72.3279 92.8144 71.9227 93.2632 71.5932 93.1774C71.2637 93.0916 71.1385 92.4943 71.3066 91.8574C71.4746 91.2205 71.8831 90.7486 72.2093 90.8344C72.5355 90.9202 72.6672 91.4944 72.4959 92.1544Z" fill="#310B02"/>
<path id="Vector_15" d="M84.7092 95.3487C84.5378 96.0087 84.1359 96.4575 83.8064 96.3717C83.477 96.2859 83.3518 95.6886 83.5198 95.0518C83.6878 94.4149 84.0931 93.943 84.4225 94.0288C84.752 94.1146 84.8805 94.6987 84.7092 95.3487Z" fill="#310B02"/>
<path id="Vector_16" d="M73.0362 96.2001C72.7825 97.1703 71.4416 97.6587 70.0381 97.2924C68.6346 96.9261 67.7055 95.8404 67.9592 94.8735C68.2129 93.9066 69.5538 93.4149 70.954 93.7812C72.3542 94.1475 73.2866 95.2332 73.0362 96.2001Z" fill="#FF8F7F"/>
<path id="Vector_17" d="M86.0962 99.6222C85.8425 100.592 84.5016 101.081 83.1013 100.711C81.7011 100.342 80.7687 99.2625 81.0191 98.2923C81.2695 97.3221 82.6137 96.8337 84.0173 97.2033C85.4208 97.5729 86.3499 98.652 86.0962 99.6222Z" fill="#FF8F7F"/>
<path id="Vector_18" d="M70.4697 89.2372C70.4313 89.2262 70.3958 89.2069 70.3656 89.1807C70.3355 89.1545 70.3114 89.1219 70.2951 89.0854C70.2637 89.0123 70.2598 88.9303 70.284 88.8545C70.3082 88.7787 70.359 88.7142 70.4269 88.6729C72.9111 87.244 74.1235 89.6365 74.1334 89.6629C74.1669 89.7349 74.1733 89.8166 74.1515 89.8929C74.1298 89.9693 74.0812 90.0353 74.0148 90.0787C73.9835 90.0992 73.9481 90.1127 73.9111 90.1183C73.8741 90.1239 73.8364 90.1215 73.8004 90.1111C73.7645 90.1008 73.7312 90.0828 73.7028 90.0584C73.6744 90.034 73.6516 90.0038 73.6359 89.9698C73.5963 89.8906 72.6475 88.0657 70.6707 89.2108C70.6096 89.2451 70.5376 89.2545 70.4697 89.2372Z" fill="#2B0D06"/>
<path id="Vector_19" d="M83.0289 92.524C82.9905 92.513 82.9549 92.4938 82.9248 92.4675C82.8946 92.4413 82.8705 92.4088 82.8543 92.3722C82.8226 92.2995 82.8181 92.2177 82.8417 92.142C82.8653 92.0662 82.9154 92.0015 82.9828 91.9597C85.4702 90.5309 86.6793 92.9266 86.6925 92.9497C86.726 93.0217 86.7325 93.1034 86.7107 93.1798C86.6889 93.2562 86.6403 93.3221 86.5739 93.3655C86.5425 93.3855 86.5071 93.3986 86.4703 93.4039C86.4334 93.4092 86.3958 93.4066 86.36 93.3963C86.3242 93.386 86.291 93.3683 86.2626 93.3442C86.2341 93.3201 86.2111 93.2903 86.195 93.2566C86.1555 93.1774 85.2066 91.3525 83.2299 92.4976C83.1688 92.5322 83.0968 92.5417 83.0289 92.524Z" fill="#2B0D06"/>
<path id="Vector_20" d="M79.8364 99.4143C79.8364 99.4143 76.5417 101.368 73.906 97.8633L79.8364 99.4143Z" fill="white"/>
<path id="Vector_21" d="M94.0033 73.4668C92.6869 73.2503 91.3397 73.3144 90.0497 73.6549C89.4643 73.7101 88.8872 73.833 88.3299 74.0212C88.3102 71.0512 87.0681 68.2133 83.9744 66.9593C80.2844 65.4644 76.6966 67.1474 74.5419 70.0381C72.8451 67.9658 70.0777 66.824 67.2937 67.6622C66.2817 67.965 65.3464 68.4816 64.5507 69.1773C63.755 69.8729 63.1175 70.7313 62.6812 71.6947C62.2159 72.8017 62.0314 74.0068 62.1442 75.2026C62.1099 75.3856 62.089 75.5709 62.0816 75.7569C61.1515 75.573 60.1895 75.6355 59.291 75.9384C58.605 76.05 57.9712 76.3743 57.479 76.8657C57.4559 76.8888 57.4394 76.9185 57.4164 76.9449C57.2978 77.0373 57.1824 77.133 57.0704 77.2353C54.9553 79.1757 54.5665 82.5152 55.5878 85.1156C55.7789 85.6007 56.6751 86.2112 56.9485 86.66C57.5218 85.9571 57.7722 85.34 58.7573 85.34C59.4638 85.3701 60.1507 85.5813 60.7524 85.9534C61.354 86.3255 61.8503 86.846 62.1936 87.4652C62.6804 88.3661 62.8858 89.3927 62.7833 90.412C65.3004 90.4582 67.6989 89.2372 69.3726 87.3266C70.4816 86.043 71.3079 84.5396 71.7975 82.9145C71.8831 82.634 71.9556 82.3436 72.0248 82.05C75.6752 82.7363 78.11 81.3735 79.497 80.1228C79.3268 81.5506 79.3645 82.9957 79.609 84.4127C79.9639 86.5881 80.9373 88.6149 82.4128 90.2503C83.396 91.3668 84.6169 92.2479 85.9854 92.8288C87.3539 93.4096 88.8352 93.6754 90.3199 93.6064C90.87 93.7285 91.4354 93.7664 91.9969 93.7186C93.5394 93.5695 95.0231 93.0494 96.3218 92.2025C97.6205 91.3556 98.6957 90.207 99.4559 88.8544C102.494 83.5217 100.922 74.6152 94.0033 73.4668Z" fill="#2B0D06"/>
<path id="Vector_22" d="M33.4709 268.721L30.453 287.795C30.453 287.795 33.5928 293.151 39.4178 290.491L46.0894 271.764L33.4709 268.721Z" fill="#FFA68F"/>
<path id="Vector_23" d="M40.9761 287.082C40.9761 287.082 46.6627 292.854 49.1666 293.89C51.6705 294.926 55.4033 296.764 55.1958 299.556L26.8322 292.131L30.4168 284.769C30.4168 284.769 35.2138 289.808 38.3239 288.194C38.3239 288.194 39.3123 286.162 40.9761 287.082Z" fill="#4252D4"/>
<path id="Vector_24" d="M37.8034 294.989C37.775 294.994 37.7461 294.994 37.7177 294.989C37.6853 294.978 37.6552 294.961 37.6294 294.939C37.6035 294.916 37.5823 294.889 37.567 294.858C37.5517 294.828 37.5426 294.794 37.5402 294.76C37.5378 294.726 37.5421 294.692 37.553 294.659C37.6945 294.174 37.9352 293.724 38.2596 293.337C38.584 292.95 38.9851 292.635 39.4375 292.412C40.6565 291.818 42.0732 291.95 42.999 292.135L38.8577 287.749C38.8339 287.724 38.8153 287.694 38.803 287.661C38.7907 287.629 38.7849 287.594 38.786 287.559C38.787 287.525 38.7949 287.49 38.8092 287.459C38.8235 287.427 38.8439 287.398 38.8692 287.374C38.8945 287.351 38.9242 287.332 38.9567 287.32C38.9892 287.307 39.0238 287.302 39.0585 287.303C39.0933 287.304 39.1274 287.312 39.1591 287.326C39.1908 287.34 39.2193 287.361 39.2431 287.386L44.0269 292.448C44.0683 292.492 44.0934 292.548 44.0982 292.608C44.103 292.668 44.0871 292.728 44.0533 292.778C44.0207 292.828 43.9726 292.865 43.9165 292.884C43.8604 292.903 43.7996 292.903 43.7436 292.884C43.7205 292.884 41.3945 292.055 39.6681 292.884C39.2803 293.079 38.9368 293.351 38.6591 293.685C38.3813 294.019 38.1752 294.407 38.0538 294.824C38.0333 294.874 37.9985 294.916 37.9539 294.945C37.9092 294.974 37.8568 294.99 37.8034 294.989Z" fill="#471006"/>
<path id="Vector_25" d="M55.1958 299.556C55.3309 297.711 53.7494 296.286 51.9374 295.233C51.8951 295.288 51.8618 295.349 51.8385 295.415C51.8385 295.415 49.8123 295.223 49.2819 298.008L55.1958 299.556Z" fill="#FCD87A"/>
<path id="Vector_26" d="M25.8043 293.755L55.3605 301.49C55.6056 301.553 55.8657 301.517 56.0842 301.389C56.3027 301.261 56.4618 301.052 56.5268 300.807C56.59 300.562 56.5537 300.302 56.4259 300.083C56.2981 299.865 56.0892 299.706 55.8448 299.642L26.2886 291.904C26.0436 291.841 25.7839 291.878 25.5656 292.006C25.3473 292.133 25.1881 292.342 25.1223 292.587C25.0599 292.832 25.0965 293.092 25.2241 293.311C25.3518 293.529 25.5602 293.689 25.8043 293.755Z" fill="#471006"/>
<path id="Vector_27" d="M79.586 274.691L85.3351 293.121C85.3351 293.121 90.5209 296.527 94.5601 291.55L92.2539 271.804L79.586 274.691Z" fill="#FFA68F"/>
<path id="Vector_28" d="M94.4481 287.808C94.4481 287.808 102.102 290.448 104.803 290.267C107.505 290.085 111.666 290.065 112.71 292.663L84.0041 298.619L83.9448 290.435C83.9448 290.435 90.4747 292.818 92.5603 289.983C92.5668 289.983 92.5471 287.722 94.4481 287.808Z" fill="#4252D4"/>
<path id="Vector_29" d="M95.1103 296.302C95.0847 296.316 95.0568 296.325 95.028 296.329C94.9587 296.337 94.8889 296.319 94.833 296.277C94.7771 296.235 94.7395 296.173 94.7282 296.104C94.6412 295.606 94.6581 295.096 94.7778 294.604C94.8974 294.113 95.1172 293.652 95.4233 293.25C96.2536 292.178 97.5945 291.659 98.4906 291.419L92.8403 289.333C92.7775 289.308 92.7264 289.26 92.6971 289.199C92.6678 289.138 92.6625 289.068 92.6822 289.003C92.706 288.939 92.7538 288.887 92.8153 288.858C92.8769 288.829 92.9474 288.825 93.0116 288.848L99.5416 291.257C99.5973 291.278 99.6444 291.317 99.6754 291.368C99.7065 291.418 99.7197 291.478 99.7129 291.537C99.7058 291.597 99.6788 291.652 99.6363 291.694C99.5938 291.736 99.5384 291.762 99.479 291.768C99.456 291.768 97.008 292.072 95.8319 293.59C95.5702 293.936 95.3829 294.332 95.282 294.754C95.1811 295.176 95.1686 295.615 95.2454 296.042C95.2517 296.094 95.2421 296.146 95.218 296.193C95.1939 296.239 95.1564 296.278 95.1103 296.302Z" fill="#471006"/>
<path id="Vector_30" d="M112.717 292.663C112.022 290.947 109.972 290.376 107.88 290.234C107.869 290.303 107.869 290.373 107.88 290.442C107.88 290.442 105.979 291.174 106.74 293.903L112.717 292.663Z" fill="#FCD87A"/>
<path id="Vector_31" d="M83.8097 300.53L113.725 294.322C113.972 294.269 114.189 294.121 114.328 293.909C114.466 293.697 114.516 293.439 114.466 293.191C114.413 292.943 114.265 292.726 114.053 292.587C113.842 292.448 113.584 292.398 113.336 292.448L83.4242 298.659C83.1767 298.71 82.9598 298.858 82.8208 299.069C82.6819 299.281 82.6323 299.539 82.6829 299.787C82.7345 300.035 82.882 300.252 83.0932 300.392C83.3044 300.531 83.562 300.58 83.8097 300.53Z" fill="#471006"/>
<path id="Vector_32" d="M100.233 144.954C100.362 145.736 107.261 164.638 105.699 168.416C104.138 172.195 86.4454 188.117 86.4454 188.117L85.0683 176.326C85.0683 176.326 92.0957 168.205 92.4845 164.684C92.8733 161.163 89.8191 153.035 89.8191 153.035L100.233 144.954Z" fill="#FF957E"/>
<path id="Vector_33" d="M43.5492 179.676L45.1504 147.594L26.5654 141.159C26.5654 141.159 36.6997 111.347 61.8575 111.99C61.8575 111.99 65.4816 118.518 73.649 112.406C73.649 112.406 97.5483 113.726 102.513 144.046L87.4536 154.639L85.5295 180.639L43.5492 179.676Z" fill="#FCD87A"/>
<path id="Vector_34" d="M45.1504 148.055C45.0846 148.057 45.0193 148.043 44.9593 148.016C44.9018 147.991 44.8497 147.955 44.8061 147.909C44.7625 147.864 44.7283 147.811 44.7053 147.752C44.6824 147.694 44.6712 147.631 44.6724 147.568C44.6736 147.505 44.6871 147.443 44.7122 147.386L51.8649 130.939C51.9156 130.822 52.0104 130.731 52.1284 130.684C52.2464 130.638 52.378 130.64 52.4942 130.691C52.6104 130.742 52.7017 130.837 52.7481 130.955C52.7944 131.073 52.792 131.205 52.7413 131.321L45.5919 147.768C45.5541 147.854 45.4923 147.927 45.4139 147.978C45.3355 148.029 45.2439 148.056 45.1504 148.055Z" fill="#471006"/>
<path id="Vector_35" d="M87.4536 155.117C87.3271 155.117 87.2058 155.068 87.1158 154.979C87.0257 154.89 86.9743 154.769 86.9726 154.642L86.8309 133.704C86.8409 133.584 86.8957 133.471 86.9845 133.389C87.0733 133.308 87.1896 133.262 87.3103 133.262C87.431 133.262 87.5472 133.308 87.636 133.389C87.7248 133.471 87.7797 133.584 87.7896 133.704L87.9313 154.642C87.9322 154.705 87.9206 154.768 87.8971 154.826C87.8737 154.885 87.8388 154.938 87.7947 154.982C87.7506 155.027 87.698 155.063 87.64 155.087C87.582 155.111 87.5197 155.124 87.4569 155.124L87.4536 155.117Z" fill="#471006"/>
<path id="Vector_36" d="M106.633 144.541L99.6712 135.111C99.2503 134.541 98.4478 134.421 97.8787 134.842L78.1614 149.445C77.5923 149.866 77.4721 150.67 77.8929 151.24L84.8545 160.67C85.2753 161.24 86.0778 161.361 86.6469 160.939L106.364 146.336C106.933 145.915 107.054 145.111 106.633 144.541Z" fill="#2B0D06"/>
<path id="Vector_37" d="M96.471 149.276C95.8179 149.759 95.0364 150.038 94.2255 150.076C93.4146 150.114 92.6106 149.91 91.9151 149.491C91.2197 149.071 90.664 148.455 90.3184 147.719C89.9727 146.983 89.8527 146.161 89.9733 145.357C90.094 144.553 90.45 143.803 90.9963 143.202C91.5426 142.6 92.2547 142.174 93.0426 141.978C93.8304 141.782 94.6586 141.824 95.4225 142.1C96.1864 142.375 96.8517 142.871 97.3342 143.525C97.6547 143.959 97.8867 144.452 98.0167 144.977C98.1468 145.501 98.1725 146.046 98.0924 146.58C98.0122 147.114 97.8278 147.627 97.5496 148.09C97.2714 148.552 96.9049 148.956 96.471 149.276Z" fill="white"/>
<path id="Vector_38" d="M99.4296 142.343L96.5896 138.496C96.4412 138.287 96.3796 138.028 96.4177 137.774C96.4558 137.521 96.5906 137.292 96.7939 137.136C97.0025 136.987 97.2606 136.926 97.5138 136.964C97.767 137.002 97.9955 137.137 98.1513 137.341L100.991 141.188C101.14 141.397 101.201 141.656 101.163 141.909C101.125 142.163 100.99 142.392 100.787 142.548C100.578 142.697 100.32 142.758 100.067 142.72C99.8138 142.682 99.5853 142.547 99.4296 142.343Z" fill="white"/>
<path id="Vector_39" d="M29.9523 141.324L25.8043 159.708C25.8043 159.708 25.1026 173.967 42.9694 168.159L72.7694 161.453L71.4845 154.382L39.51 155.371L43.0122 147.013L29.9523 141.324Z" fill="#FFA68F"/>
<path id="Vector_40" d="M70.2819 162.064C70.2819 162.064 75.3985 160.694 76.746 160.872C80.3998 161.354 86.8276 162.14 95.8154 158.447C95.8154 158.447 99.4032 155.754 99.0309 153.919C98.6586 152.085 96.7016 151.342 96.7016 151.342L83.7899 151.814C83.7899 151.814 84.1754 150.164 84.9925 149.778C85.8096 149.392 87.0055 147.857 86.6398 146.841C86.6398 146.841 77.1677 150.214 76.5253 151.27C75.8828 152.326 75.6785 153.375 73.8896 153.675C72.1006 153.976 69.3265 154.335 69.3265 154.335C69.3265 154.335 64.9215 158.767 70.2819 162.064Z" fill="#FFA68F"/>
<path id="Vector_41" d="M88.5672 158.737C88.5752 158.784 88.6005 158.825 88.6378 158.853C88.6751 158.881 88.7217 158.894 88.7681 158.889C96.7082 157.945 96.7675 157.899 96.8235 157.84C96.8579 157.805 96.8772 157.758 96.8772 157.709C96.8772 157.661 96.8579 157.614 96.8235 157.579C96.7986 157.551 96.7656 157.531 96.7291 157.522C96.6926 157.514 96.6543 157.516 96.6193 157.53C96.2898 157.606 91.73 158.163 88.7121 158.52C88.6637 158.525 88.6195 158.55 88.5892 158.589C88.559 158.627 88.5451 158.676 88.5507 158.724L88.5672 158.737Z" fill="#EA735A"/>
<path id="Vector_42" d="M88.6693 156.543C88.6781 156.59 88.7045 156.632 88.7431 156.66C88.7817 156.688 88.8295 156.701 88.8769 156.695C98.9123 155.375 98.9222 155.345 98.9782 155.213C98.9983 155.169 98.9998 155.118 98.9825 155.072C98.9652 155.026 98.9305 154.989 98.886 154.969C98.8405 154.951 98.7898 154.951 98.7443 154.969C98.3918 155.048 92.6426 155.824 88.8274 156.332C88.8034 156.335 88.7803 156.343 88.7593 156.355C88.7384 156.367 88.7201 156.384 88.7054 156.403C88.6907 156.422 88.68 156.444 88.6738 156.468C88.6676 156.491 88.666 156.516 88.6693 156.54V156.543Z" fill="#EA735A"/>
<path id="Vector_43" d="M87.8127 154.273C87.8216 154.32 87.8479 154.361 87.8865 154.39C87.9251 154.418 87.9729 154.43 88.0203 154.424L98.5631 152.982C98.6119 152.975 98.6558 152.949 98.6854 152.909C98.715 152.87 98.7279 152.82 98.7212 152.771C98.718 152.747 98.7101 152.724 98.6978 152.703C98.6856 152.683 98.6693 152.664 98.65 152.65C98.6307 152.635 98.6087 152.625 98.5853 152.619C98.5618 152.613 98.5375 152.612 98.5137 152.616L87.9708 154.058C87.9468 154.061 87.9237 154.069 87.9027 154.082C87.8818 154.094 87.8635 154.11 87.8488 154.129C87.8341 154.149 87.8234 154.171 87.8172 154.194C87.811 154.218 87.8095 154.242 87.8127 154.266V154.273Z" fill="#EA735A"/>
<path id="Vector_44" d="M85.5295 180.636L96.9652 283.383L79.6584 286.271L64.9149 201.878L45.0351 284.126L27.4088 280.275L43.5492 179.676L85.5295 180.636Z" fill="#3C4875"/>
<path id="Vector_45" d="M49.6509 239.566L38.9236 237.619C38.2822 237.498 37.7146 237.128 37.3443 236.59C36.9741 236.052 36.8312 235.389 36.9468 234.745C37.0677 234.103 37.4371 233.534 37.9746 233.163C38.5121 232.793 39.1741 232.649 39.8164 232.765L50.5404 234.712C51.1818 234.833 51.7494 235.203 52.1197 235.742C52.4899 236.28 52.6328 236.943 52.5172 237.586C52.3971 238.229 52.0283 238.797 51.4914 239.168C50.9544 239.539 50.2928 239.682 49.6509 239.566Z" fill="#FFA68F"/>
<path id="Vector_46" d="M87.8852 238.091L77.0853 239.543C76.4365 239.629 75.7802 239.453 75.2598 239.056C74.7394 238.658 74.3972 238.071 74.308 237.421C74.2245 236.772 74.4001 236.116 74.7968 235.596C75.1935 235.076 75.7791 234.733 76.4264 234.643L87.2295 233.191C87.878 233.105 88.5339 233.281 89.0538 233.678C89.5736 234.076 89.9151 234.664 90.0036 235.313C90.0889 235.962 89.9139 236.619 89.5169 237.14C89.1199 237.661 88.5332 238.003 87.8852 238.091Z" fill="#FFA68F"/>
<path id="Vector_47" d="M64.915 202.409C64.8455 202.409 64.7766 202.395 64.7125 202.368C64.6483 202.342 64.59 202.302 64.541 202.253C64.492 202.204 64.4533 202.145 64.427 202.081C64.4007 202.016 64.3874 201.947 64.3878 201.878V185.378C64.388 185.285 64.4124 185.194 64.4585 185.114C64.5047 185.033 64.571 184.967 64.651 184.92C64.7309 184.873 64.8217 184.848 64.9142 184.848C65.0068 184.847 65.0979 184.87 65.1785 184.916C65.363 185.021 69.7054 187.454 71.837 183.926C71.8702 183.861 71.9163 183.804 71.9726 183.757C72.0288 183.711 72.094 183.677 72.164 183.657C72.2339 183.637 72.3073 183.632 72.3794 183.642C72.4515 183.651 72.5209 183.676 72.5832 183.713C72.6455 183.751 72.6994 183.801 72.7416 183.86C72.7837 183.92 72.8132 183.987 72.8282 184.059C72.8431 184.13 72.8433 184.204 72.8287 184.275C72.814 184.346 72.7849 184.414 72.743 184.474C70.875 187.576 67.5078 187.114 65.4454 186.239V201.878C65.4454 202.019 65.3895 202.154 65.29 202.253C65.1906 202.353 65.0556 202.409 64.915 202.409Z" fill="#471006"/>
<path id="Vector_48" d="M161.873 104.391H112.7C111.032 104.391 109.433 105.054 108.253 106.236C107.074 107.417 106.411 109.019 106.411 110.69C106.411 112.361 107.074 113.963 108.253 115.145C109.433 116.326 111.032 116.99 112.7 116.99H113.771L116.13 126.804L120.163 117H161.873C162.699 117 163.517 116.837 164.28 116.52C165.043 116.204 165.736 115.74 166.32 115.155C166.904 114.57 167.367 113.875 167.684 113.111C168 112.347 168.162 111.527 168.162 110.7C168.162 109.873 168 109.054 167.684 108.289C167.367 107.525 166.904 106.831 166.32 106.246C165.736 105.661 165.043 105.197 164.28 104.88C163.517 104.563 162.699 104.401 161.873 104.401V104.391Z" fill="#FF1A1A"/>
<path id="Vector_49" d="M118.268 110.492C118.268 111.111 118.085 111.716 117.742 112.23C117.399 112.745 116.911 113.146 116.34 113.382C115.77 113.619 115.142 113.681 114.536 113.56C113.93 113.44 113.373 113.142 112.936 112.704C112.5 112.267 112.202 111.709 112.082 111.103C111.961 110.496 112.023 109.867 112.259 109.295C112.496 108.723 112.896 108.235 113.41 107.891C113.923 107.547 114.527 107.364 115.145 107.364C115.555 107.363 115.962 107.444 116.341 107.601C116.72 107.758 117.064 107.989 117.355 108.279C117.645 108.57 117.875 108.915 118.031 109.295C118.188 109.674 118.269 110.081 118.268 110.492Z" fill="white"/>
<path id="Vector_50" d="M161.731 110.492C161.731 111.111 161.548 111.716 161.205 112.231C160.861 112.745 160.373 113.146 159.802 113.383C159.231 113.619 158.603 113.681 157.997 113.56C157.391 113.439 156.835 113.141 156.398 112.703C155.962 112.265 155.664 111.708 155.544 111.101C155.424 110.493 155.486 109.864 155.723 109.293C155.96 108.721 156.361 108.233 156.875 107.89C157.389 107.546 157.993 107.363 158.611 107.364C159.021 107.364 159.427 107.445 159.806 107.602C160.185 107.759 160.529 107.99 160.819 108.28C161.108 108.571 161.338 108.916 161.495 109.295C161.651 109.675 161.732 110.082 161.731 110.492Z" fill="white"/>
<path id="Vector_51" d="M146.302 110.492C146.302 111.111 146.119 111.716 145.776 112.23C145.433 112.745 144.945 113.146 144.374 113.382C143.804 113.619 143.176 113.681 142.57 113.56C141.964 113.44 141.407 113.142 140.971 112.704C140.534 112.267 140.236 111.709 140.116 111.103C139.995 110.496 140.057 109.867 140.294 109.295C140.53 108.723 140.93 108.235 141.444 107.891C141.958 107.547 142.561 107.364 143.179 107.364C144.007 107.364 144.802 107.693 145.388 108.28C145.973 108.867 146.302 109.663 146.302 110.492Z" fill="white"/>
<path id="Vector_52" d="M131.625 110.492C131.625 111.111 131.442 111.716 131.098 112.23C130.755 112.745 130.267 113.146 129.697 113.382C129.126 113.619 128.498 113.681 127.892 113.56C127.286 113.44 126.73 113.142 126.293 112.704C125.856 112.267 125.559 111.709 125.438 111.103C125.318 110.496 125.379 109.867 125.616 109.295C125.852 108.723 126.253 108.235 126.766 107.891C127.28 107.547 127.884 107.364 128.501 107.364C128.912 107.363 129.318 107.444 129.697 107.601C130.076 107.758 130.421 107.989 130.711 108.279C131.001 108.57 131.231 108.915 131.388 109.295C131.545 109.674 131.625 110.081 131.625 110.492Z" fill="white"/>
<path id="Vector_53" d="M241.139 263.752C239.873 298.787 216.393 302.361 186.164 302.361C155.936 302.361 129.496 303.853 131.43 263.851C132.462 242.632 155.942 225.357 186.164 225.357C216.386 225.357 241.909 242.5 241.139 263.752Z" fill="#AA6E2D"/>
<path id="Vector_54" d="M230.24 276.542C221.005 275.317 211.639 275.484 202.453 277.037C193.301 278.558 184.407 281.355 176.03 285.346C171.306 287.573 166.807 290.25 162.594 293.339C162.163 293.669 162.7 294.398 163.151 294.105C170.871 289.099 179.064 284.865 187.808 281.981C196.509 279.1 205.564 277.434 214.719 277.031C219.885 276.802 225.062 276.964 230.204 277.516C230.843 277.588 230.853 276.621 230.24 276.542Z" fill="#471006"/>
<path id="Vector_55" d="M183.634 281.875C181.288 279.79 178.567 278.08 175.878 276.473C173.185 274.861 170.402 273.403 167.543 272.107C161.764 269.487 155.501 267.197 149.152 266.55C145.512 266.181 141.759 266.425 138.333 267.788C137.539 268.118 138.046 269.296 138.843 269.009C144.945 266.811 151.515 267.877 157.554 269.748C163.373 271.565 168.978 274.012 174.267 277.047C177.288 278.776 180.089 280.809 183.008 282.69C183.116 282.765 183.25 282.796 183.38 282.776C183.51 282.756 183.628 282.686 183.708 282.581C183.789 282.476 183.826 282.345 183.812 282.213C183.798 282.082 183.734 281.961 183.634 281.875Z" fill="#471006"/>
<path id="Vector_56" d="M206.209 197.829C207.695 198.095 209.225 197.762 210.467 196.902C211.708 196.042 212.559 194.725 212.834 193.238L215.226 180.118C215.492 178.628 215.159 177.094 214.298 175.85C213.437 174.606 212.12 173.755 210.633 173.482C209.148 173.215 207.617 173.547 206.375 174.406C205.133 175.266 204.281 176.582 204.005 178.068L201.616 191.189C201.349 192.679 201.682 194.215 202.543 195.459C203.404 196.704 204.722 197.556 206.209 197.829Z" fill="#FFD199"/>
<path id="Vector_57" d="M208.515 182.778C210.655 183.157 212.858 182.919 214.867 182.091C214.867 182.091 208.518 190.133 201.82 190.127L203.57 180.52C205.01 181.666 206.707 182.441 208.515 182.778Z" fill="#FFB76B"/>
<path id="Vector_58" d="M194.388 165.06C194.058 166.829 195.047 168.492 196.592 168.773C198.137 169.053 199.643 167.849 199.965 166.08C200.288 164.311 199.307 162.648 197.761 162.364C196.216 162.08 194.711 163.288 194.388 165.06Z" fill="#FFB76B"/>
<path id="Vector_59" d="M228.629 171.317C228.299 173.089 226.797 174.287 225.255 174.013C223.713 173.739 222.728 172.069 223.051 170.301C223.374 168.532 224.883 167.331 226.425 167.604C227.967 167.878 228.952 169.548 228.629 171.317Z" fill="#FFD199"/>
<path id="Vector_60" d="M197.455 163.806C197.45 163.788 197.441 163.771 197.429 163.757C197.417 163.743 197.402 163.731 197.386 163.723C197.369 163.714 197.351 163.709 197.332 163.708C197.313 163.707 197.295 163.71 197.277 163.717C197.241 163.734 197.212 163.763 197.195 163.799C197.179 163.836 197.176 163.877 197.188 163.915C197.188 163.915 197.623 165.311 197.086 166.407C196.92 166.736 196.672 167.015 196.364 167.218C196.012 166.202 196.928 165.568 196.971 165.542C197.003 165.519 197.026 165.484 197.035 165.446C197.044 165.407 197.039 165.366 197.02 165.331C197.012 165.314 197.001 165.299 196.987 165.287C196.973 165.275 196.956 165.266 196.938 165.261C196.92 165.257 196.901 165.256 196.883 165.259C196.865 165.263 196.847 165.27 196.832 165.281C196.832 165.281 195.643 166.096 196.117 167.377C195.953 167.462 195.781 167.532 195.603 167.585C195.567 167.599 195.536 167.625 195.518 167.66C195.499 167.694 195.493 167.734 195.501 167.773C195.506 167.8 195.519 167.825 195.539 167.845C195.558 167.865 195.583 167.879 195.61 167.885C195.63 167.888 195.65 167.888 195.669 167.885C196.023 167.791 196.352 167.623 196.636 167.392C196.92 167.161 197.152 166.872 197.317 166.545C197.933 165.331 197.481 163.869 197.455 163.806Z" fill="#310B02"/>
<path id="Vector_61" d="M226.197 169.06C226.208 169.044 226.222 169.032 226.239 169.022C226.255 169.013 226.273 169.007 226.292 169.005C226.31 169.003 226.329 169.005 226.347 169.011C226.365 169.017 226.381 169.027 226.395 169.04C226.421 169.07 226.436 169.108 226.436 169.147C226.436 169.187 226.421 169.225 226.395 169.254C226.395 169.254 225.496 170.406 225.614 171.62C225.654 171.987 225.788 172.337 226.003 172.637C226.692 171.809 226.056 170.895 226.026 170.852C226.005 170.818 225.995 170.779 226 170.74C226.005 170.7 226.024 170.664 226.052 170.637C226.066 170.624 226.083 170.615 226.101 170.609C226.119 170.603 226.138 170.601 226.156 170.604C226.175 170.606 226.193 170.612 226.209 170.622C226.226 170.631 226.239 170.645 226.25 170.66C226.25 170.66 227.074 171.842 226.178 172.871C226.301 173.01 226.436 173.137 226.583 173.251C226.613 173.276 226.633 173.311 226.638 173.351C226.644 173.39 226.635 173.429 226.612 173.462C226.598 173.485 226.577 173.503 226.553 173.515C226.528 173.526 226.501 173.531 226.474 173.528C226.454 173.522 226.435 173.514 226.418 173.501C226.118 173.29 225.866 173.016 225.68 172.699C225.493 172.382 225.377 172.029 225.337 171.663C225.216 170.317 226.158 169.109 226.197 169.06Z" fill="#310B02"/>
<path id="Vector_62" d="M225.643 168.12C227.396 158.498 222.548 149.551 214.815 148.138C207.082 146.725 199.392 153.38 197.64 163.003C195.887 172.625 200.735 181.571 208.468 182.985C216.201 184.398 223.89 177.743 225.643 168.12Z" fill="#FFD199"/>
<path id="Vector_63" d="M204.812 170.145C204.824 169.97 204.873 169.8 204.955 169.644C205.037 169.489 205.151 169.354 205.29 169.246C205.428 169.138 205.588 169.061 205.758 169.019C205.928 168.977 206.106 168.972 206.278 169.003C206.451 169.035 206.615 169.103 206.759 169.202C206.904 169.301 207.026 169.43 207.117 169.58C207.208 169.73 207.267 169.897 207.29 170.072C207.312 170.246 207.297 170.423 207.247 170.591L204.812 170.145Z" fill="#FFB76B"/>
<path id="Vector_64" d="M207.009 169.865C207.028 169.868 207.047 169.867 207.065 169.862C207.083 169.858 207.1 169.85 207.115 169.838C207.145 169.813 207.166 169.777 207.172 169.738C207.179 169.699 207.171 169.658 207.151 169.624C207.055 169.464 206.926 169.326 206.773 169.219C206.621 169.111 206.448 169.037 206.265 169C206.084 168.969 205.899 168.975 205.72 169.02C205.542 169.064 205.375 169.145 205.23 169.258C205.199 169.283 205.178 169.318 205.171 169.358C205.164 169.397 205.171 169.438 205.191 169.472C205.201 169.488 205.214 169.502 205.229 169.512C205.245 169.522 205.262 169.529 205.281 169.532C205.299 169.536 205.318 169.535 205.336 169.53C205.354 169.525 205.371 169.517 205.385 169.505C205.503 169.417 205.637 169.353 205.779 169.319C205.922 169.284 206.071 169.279 206.215 169.304C206.362 169.332 206.502 169.391 206.624 169.477C206.747 169.563 206.85 169.674 206.927 169.802C206.935 169.818 206.947 169.832 206.961 169.843C206.975 169.854 206.992 169.861 207.009 169.865Z" fill="#310B02"/>
<path id="Vector_65" d="M212.449 168.545C212.327 169.205 212.502 169.792 212.834 169.865C213.167 169.937 213.536 169.436 213.658 168.776C213.78 168.116 213.605 167.528 213.269 167.456C212.933 167.383 212.567 167.882 212.449 168.545Z" fill="#310B02"/>
<path id="Vector_66" d="M200.031 166.274C199.909 166.934 200.081 167.522 200.417 167.594C200.753 167.667 201.119 167.169 201.237 166.505C201.356 165.842 201.188 165.258 200.852 165.185C200.516 165.113 200.15 165.611 200.031 166.274Z" fill="#310B02"/>
<path id="Vector_67" d="M210.251 171.987C210.07 172.977 211.082 173.983 212.505 174.244C213.928 174.505 215.233 173.914 215.411 172.924C215.589 171.934 214.58 170.944 213.157 170.667C211.734 170.39 210.429 171.003 210.251 171.987Z" fill="#FF8F7F"/>
<path id="Vector_68" d="M196.971 169.561C196.789 170.551 197.801 171.541 199.224 171.815C200.647 172.089 201.952 171.485 202.13 170.495C202.308 169.505 201.3 168.515 199.877 168.241C198.453 167.967 197.149 168.575 196.971 169.561Z" fill="#FF8F7F"/>
<path id="Vector_69" d="M215.513 166.76C215.553 166.766 215.593 166.764 215.632 166.753C215.671 166.742 215.706 166.723 215.737 166.697C215.796 166.644 215.835 166.572 215.845 166.493C215.855 166.414 215.837 166.334 215.793 166.268C214.146 163.922 212.034 165.578 212.014 165.608C211.954 165.659 211.914 165.73 211.902 165.808C211.89 165.887 211.906 165.966 211.948 166.034C211.968 166.065 211.994 166.092 212.026 166.112C212.057 166.133 212.092 166.146 212.128 166.152C212.165 166.158 212.203 166.156 212.239 166.147C212.275 166.137 212.308 166.12 212.337 166.096C212.406 166.04 214.024 164.776 215.345 166.664C215.387 166.715 215.447 166.75 215.513 166.76Z" fill="#2B0D06"/>
<path id="Vector_70" d="M202.743 164.423C202.782 164.43 202.823 164.428 202.862 164.417C202.901 164.406 202.936 164.387 202.967 164.361C203.027 164.308 203.066 164.235 203.076 164.155C203.087 164.075 203.068 163.995 203.023 163.928C201.376 161.582 199.267 163.239 199.244 163.268C199.183 163.32 199.143 163.392 199.131 163.47C199.119 163.549 199.135 163.63 199.178 163.697C199.198 163.729 199.224 163.756 199.256 163.776C199.287 163.797 199.322 163.81 199.359 163.816C199.396 163.822 199.433 163.819 199.469 163.809C199.505 163.799 199.538 163.781 199.567 163.757C199.636 163.704 201.254 162.437 202.575 164.324C202.617 164.377 202.676 164.412 202.743 164.423Z" fill="#2B0D06"/>
<path id="Vector_71" d="M202.746 172.013C202.746 172.013 204.917 175.184 208.765 173.112L202.746 172.013Z" fill="white"/>
<path id="Vector_72" d="M194.892 153.253C195.241 152.586 195.724 151.999 196.31 151.527C196.896 151.055 197.573 150.709 198.298 150.511C199.137 150.288 200.008 150.218 200.871 150.306C201.235 150.343 201.595 150.408 201.949 150.501C202.087 150.537 202.226 150.583 202.361 150.626C202.404 150.455 202.446 150.296 202.483 150.184C202.647 149.718 202.868 149.275 203.141 148.864C203.677 148.044 204.366 147.337 205.171 146.782C206.809 145.715 208.686 145.074 210.634 144.917C212.575 144.714 214.538 144.903 216.405 145.472C218.272 146.042 220.007 146.981 221.506 148.234C222.772 149.303 223.844 150.584 224.675 152.019C224.916 151.768 225.156 151.514 225.407 151.27C225.601 151.063 225.866 150.939 226.149 150.922C226.432 150.905 226.71 150.996 226.928 151.177C227.146 151.358 227.286 151.616 227.321 151.897C227.356 152.179 227.283 152.463 227.117 152.692C227.845 152.866 228.53 153.189 229.13 153.639C230.447 154.629 231.255 156.22 231.62 157.797C231.905 159.014 231.982 160.27 231.848 161.513C230.484 167.433 224.576 167.357 224.576 167.357C223.396 166.586 222.492 165.458 221.997 164.136C221.18 162.104 220.866 159.904 221.081 157.724C219.815 158.44 218.493 159.049 217.127 159.546C212.88 161.09 208.288 161.592 203.794 161.592C201.385 161.592 198.707 161.681 196.819 159.942L196.793 159.909C196.026 159.341 195.401 158.602 194.968 157.751C194.608 157.058 194.414 156.291 194.401 155.511C194.388 154.73 194.556 153.957 194.892 153.253Z" fill="#2B0D06"/>
<path id="Vector_73" d="M201.929 191.483C201.929 191.483 194.971 187.668 188.678 198.287C182.385 208.907 178.409 220.021 178.409 220.021L164.99 221.842L167.955 232.293L175.411 233.613C175.411 233.613 201.481 191.265 201.929 191.483Z" fill="#E06363"/>
<path id="Vector_74" d="M201.929 191.483C201.481 191.265 175.427 233.623 175.427 233.623L222.965 244.074C222.965 244.074 233.979 239.929 233.399 229.475C232.82 219.021 231.778 199.386 230.701 194.991C229.624 190.595 220.438 185.213 213.928 189.575C207.668 193.756 205.985 193.463 201.929 191.483Z" fill="#FA7C77"/>
<path id="Vector_75" d="M207.23 227.637C207.12 227.637 207.013 227.6 206.927 227.531C206.841 227.462 206.781 227.366 206.756 227.258C206.732 227.151 206.745 227.038 206.794 226.939C206.842 226.84 206.923 226.76 207.023 226.713L212.442 224.152L217.193 204.306C217.224 204.183 217.303 204.076 217.412 204.01C217.52 203.944 217.651 203.924 217.775 203.953C217.899 203.983 218.006 204.06 218.073 204.168C218.141 204.276 218.163 204.406 218.135 204.531L213.332 224.604C213.315 224.676 213.283 224.743 213.236 224.8C213.19 224.857 213.132 224.903 213.065 224.934L207.434 227.574C207.372 227.611 207.302 227.633 207.23 227.637Z" fill="#471006"/>
<path id="Vector_76" d="M222.965 234.442C222.937 234.445 222.908 234.445 222.88 234.442C222.817 234.431 222.758 234.408 222.704 234.374C222.651 234.34 222.605 234.296 222.568 234.244C222.532 234.192 222.506 234.134 222.492 234.072C222.478 234.01 222.477 233.946 222.488 233.884C222.488 233.805 223.183 228.571 212.703 224.974C212.642 224.952 212.587 224.919 212.54 224.876C212.493 224.833 212.454 224.781 212.427 224.723C212.4 224.665 212.384 224.602 212.381 224.538C212.378 224.474 212.388 224.411 212.409 224.35C212.431 224.29 212.464 224.235 212.507 224.187C212.55 224.14 212.602 224.102 212.66 224.074C212.718 224.047 212.78 224.031 212.844 224.028C212.908 224.025 212.972 224.035 213.032 224.057C224.389 227.964 223.496 233.808 223.453 234.055C223.43 234.167 223.368 234.267 223.279 234.337C223.19 234.408 223.079 234.445 222.965 234.442Z" fill="#471006"/>
<path id="Vector_77" d="M148.108 265.732C148.108 265.732 139.298 266.933 134.32 265.702C129.342 264.471 119.408 265.28 120.229 272.962C121.329 283.254 152.16 275.292 152.16 275.292L148.108 265.732Z" fill="#FFBA3D"/>
<path id="Vector_78" d="M128.627 265.286C124.149 265.652 119.669 267.685 120.229 272.942C120.627 276.674 124.933 278.004 130.261 278.186C130.32 278.073 130.376 277.965 130.432 277.856C134.142 270.236 129.15 265.732 128.627 265.286Z" fill="#FCD87A"/>
<path id="Vector_79" d="M189.993 264.979C189.458 264.716 188.877 264.563 188.282 264.531C187.688 264.499 187.093 264.587 186.533 264.791C184.062 265.676 178.923 267.071 175.885 264.765C171.78 261.646 160.73 257.601 157.87 264.633C155.053 271.592 176.649 283.367 190.184 272.784C190.508 272.528 190.794 272.228 191.034 271.893C192.019 270.523 194.002 266.992 189.993 264.979Z" fill="#FFBA3D"/>
<path id="Vector_80" d="M164.034 273.348C169.665 269.388 169.665 261.686 169.665 261.686V261.666C165.052 260.171 159.715 260.059 157.863 264.636C156.756 267.375 159.425 270.856 163.899 273.43C163.948 273.401 163.991 273.378 164.034 273.348Z" fill="#FCD87A"/>
<path id="Vector_81" d="M189.993 264.979C189.578 264.773 189.133 264.636 188.675 264.573C187.561 266.174 186.579 269.081 191.248 271.576C192.269 270.038 193.719 266.854 189.993 264.979Z" fill="#FCD87A"/>
<path id="Vector_82" d="M154.598 225.964L126.653 227.036L183.96 234.531L190.905 230.947L154.598 225.964Z" fill="#A38888"/>
<path id="Vector_83" d="M167.971 232.293L160.186 205.583L120.601 208.072L126.653 227.036L167.971 232.293Z" fill="#91A7CA"/>
<path id="Vector_84" d="M149.268 220.143C149.264 221.249 148.934 222.329 148.318 223.246C147.702 224.164 146.829 224.878 145.808 225.299C144.787 225.72 143.665 225.828 142.582 225.61C141.5 225.392 140.507 224.858 139.727 224.075C138.948 223.291 138.418 222.294 138.204 221.21C137.991 220.125 138.103 219.001 138.526 217.98C138.95 216.959 139.666 216.086 140.585 215.473C141.503 214.859 142.583 214.532 143.686 214.533C144.421 214.533 145.148 214.679 145.826 214.961C146.505 215.244 147.121 215.657 147.639 216.178C148.157 216.699 148.568 217.318 148.848 217.998C149.127 218.678 149.27 219.407 149.268 220.143Z" fill="white"/>
<path id="Vector_85" d="M184.369 234.428C184.369 234.428 216.521 213.18 222.847 242.876C229.172 272.572 202.156 286.96 186.345 265.316L153.02 276.763L147.472 264.26L150.108 262.412C150.108 262.412 109.129 248.291 126.653 227.043L184.369 234.428Z" fill="#4252D4"/>
<path id="Vector_86" d="M181.733 266.854C181.619 266.853 181.51 266.813 181.423 266.739C181.336 266.666 181.278 266.564 181.258 266.452C181.238 266.34 181.259 266.225 181.315 266.126C181.372 266.028 181.462 265.952 181.568 265.913L215.575 253.522C215.636 253.496 215.701 253.483 215.767 253.483C215.833 253.483 215.898 253.497 215.958 253.523C216.019 253.55 216.073 253.588 216.118 253.636C216.163 253.684 216.198 253.741 216.221 253.803C216.243 253.865 216.253 253.931 216.249 253.997C216.245 254.063 216.228 254.127 216.198 254.186C216.168 254.245 216.127 254.297 216.077 254.34C216.026 254.382 215.968 254.414 215.905 254.433L181.908 266.837C181.851 266.854 181.792 266.859 181.733 266.854Z" fill="#471006"/>
<path id="Vector_87" d="M199.379 260.706C199.251 260.706 199.127 260.655 199.037 260.564C198.946 260.473 198.895 260.349 198.895 260.221C198.895 260.092 198.946 259.969 199.037 259.878C199.127 259.787 199.251 259.736 199.379 259.736L212.558 259.472C212.686 259.472 212.809 259.523 212.9 259.614C212.991 259.705 213.042 259.828 213.042 259.957C213.042 260.085 212.991 260.209 212.9 260.3C212.809 260.391 212.686 260.442 212.558 260.442L199.379 260.706Z" fill="#471006"/>
<path id="Vector_88" d="M163.962 251.314C163.863 251.314 163.767 251.284 163.685 251.228L142.599 236.445C142.547 236.408 142.503 236.361 142.469 236.308C142.434 236.254 142.411 236.194 142.4 236.131C142.389 236.068 142.39 236.004 142.404 235.942C142.418 235.879 142.444 235.82 142.481 235.768C142.517 235.716 142.564 235.671 142.617 235.637C142.671 235.603 142.731 235.58 142.794 235.569C142.856 235.558 142.921 235.559 142.983 235.573C143.045 235.587 143.104 235.613 143.156 235.649L164.242 250.433C164.325 250.492 164.388 250.577 164.421 250.674C164.454 250.771 164.455 250.877 164.424 250.975C164.393 251.073 164.332 251.158 164.25 251.219C164.167 251.28 164.068 251.314 163.965 251.314H163.962Z" fill="#471006"/>
<path id="Vector_89" d="M150.108 262.894C150.008 262.895 149.909 262.865 149.827 262.808C149.745 262.75 149.683 262.669 149.649 262.574C149.615 262.48 149.612 262.377 149.639 262.281C149.666 262.184 149.723 262.098 149.801 262.036L184.066 234.052C184.165 233.971 184.293 233.932 184.421 233.945C184.549 233.958 184.666 234.022 184.748 234.121C184.829 234.221 184.867 234.349 184.854 234.477C184.841 234.605 184.778 234.723 184.678 234.805L150.414 262.785C150.328 262.857 150.22 262.896 150.108 262.894Z" fill="#471006"/>
<path id="Vector_90" d="M164.785 166.406L154.319 180.216C153.856 180.827 153.975 181.699 154.586 182.163L163.529 188.962C164.139 189.426 165.009 189.307 165.473 188.695L175.938 174.885C176.401 174.274 176.282 173.403 175.672 172.939L166.728 166.139C166.118 165.675 165.248 165.795 164.785 166.406Z" fill="#FD807B"/>
<path id="Vector_91" d="M166.815 163.78C166.746 163.774 166.676 163.782 166.61 163.803C166.543 163.824 166.482 163.858 166.429 163.903C166.376 163.949 166.333 164.004 166.301 164.066C166.269 164.128 166.25 164.195 166.245 164.265L165.135 177.989L152.22 182.754C152.147 182.772 152.079 182.805 152.02 182.851C151.961 182.897 151.912 182.955 151.877 183.021C151.842 183.087 151.821 183.16 151.816 183.235C151.811 183.31 151.822 183.385 151.848 183.455C151.874 183.525 151.914 183.589 151.967 183.643C152.019 183.696 152.082 183.738 152.152 183.765C152.221 183.793 152.296 183.805 152.371 183.801C152.445 183.798 152.519 183.778 152.585 183.744L165.655 178.917C165.749 178.881 165.832 178.819 165.892 178.738C165.919 178.703 165.941 178.664 165.958 178.623C165.994 178.595 166.026 178.563 166.054 178.527C166.114 178.446 166.15 178.35 166.159 178.25L167.286 164.344C167.295 164.207 167.251 164.072 167.164 163.967C167.076 163.862 166.951 163.795 166.815 163.78Z" fill="#FEDEC4"/>
<path id="Vector_92" d="M147.335 195.093L138.129 180.41C137.722 179.76 136.866 179.564 136.217 179.972L126.708 185.954C126.06 186.362 125.864 187.219 126.271 187.869L135.478 202.552C135.885 203.201 136.741 203.397 137.39 202.989L146.898 197.008C147.547 196.6 147.743 195.742 147.335 195.093Z" fill="#FFC646"/>
<path id="Vector_93" d="M149.04 197.888C149.1 197.761 149.107 197.615 149.059 197.482C149.012 197.35 148.914 197.242 148.787 197.182L136.359 191.295L136.461 177.524C136.467 177.451 136.458 177.378 136.434 177.308C136.41 177.239 136.372 177.175 136.322 177.122C136.272 177.068 136.212 177.025 136.145 176.995C136.078 176.966 136.006 176.951 135.933 176.951C135.859 176.951 135.787 176.966 135.72 176.995C135.653 177.025 135.593 177.068 135.543 177.122C135.493 177.175 135.455 177.239 135.431 177.308C135.407 177.378 135.398 177.451 135.404 177.524L135.298 191.483C135.298 191.584 135.326 191.683 135.377 191.77C135.401 191.808 135.43 191.842 135.463 191.872C135.478 191.916 135.498 191.958 135.522 191.998C135.574 192.084 135.651 192.152 135.743 192.192L148.335 198.159C148.399 198.188 148.468 198.205 148.539 198.207C148.609 198.209 148.679 198.197 148.745 198.172C148.81 198.147 148.87 198.109 148.921 198.06C148.972 198.011 149.012 197.953 149.04 197.888Z" fill="#FEDEC4"/>
<path id="Vector_94" d="M153.093 162.533L139.819 151.404C139.232 150.912 138.357 150.99 137.865 151.578L130.659 160.202C130.167 160.79 130.244 161.667 130.832 162.159L144.106 173.287C144.693 173.78 145.568 173.702 146.06 173.114L153.266 164.49C153.758 163.901 153.68 163.025 153.093 162.533Z" fill="#4252D4"/>
<path id="Vector_95" d="M155.59 164.674C155.608 164.535 155.569 164.394 155.484 164.282C155.398 164.171 155.271 164.098 155.132 164.08L141.496 162.311L137.361 149.178C137.317 149.043 137.222 148.932 137.096 148.868C136.97 148.804 136.824 148.792 136.69 148.836C136.556 148.88 136.445 148.975 136.381 149.101C136.317 149.227 136.306 149.373 136.349 149.508L140.54 162.813C140.56 162.885 140.596 162.951 140.644 163.008C140.693 163.065 140.753 163.111 140.82 163.143C140.846 163.179 140.876 163.212 140.909 163.242C140.987 163.307 141.082 163.348 141.183 163.361L154.997 165.153C155.067 165.161 155.139 165.155 155.207 165.135C155.275 165.116 155.338 165.082 155.394 165.038C155.449 164.993 155.495 164.938 155.528 164.876C155.562 164.813 155.583 164.745 155.59 164.674Z" fill="#FEDEC4"/>
<path id="Vector_96" d="M330.608 235.95C330.05 235.951 329.515 236.174 329.121 236.569C328.727 236.964 328.504 237.5 328.503 238.058V269.589C328.387 269.559 328.269 269.543 328.15 269.543H284.47V238.058C284.468 237.5 284.246 236.964 283.851 236.569C283.457 236.174 282.922 235.951 282.364 235.95C281.807 235.951 281.272 236.174 280.878 236.569C280.483 236.964 280.261 237.5 280.259 238.058V288.663C280.261 289.222 280.483 289.757 280.878 290.152C281.272 290.547 281.807 290.77 282.364 290.772C282.922 290.771 283.457 290.548 283.852 290.153C284.247 289.758 284.469 289.222 284.47 288.663V272.523H328.15C328.269 272.521 328.387 272.506 328.503 272.477V288.646C328.503 289.206 328.724 289.742 329.119 290.138C329.514 290.533 330.049 290.755 330.608 290.755C331.166 290.755 331.702 290.533 332.096 290.138C332.491 289.742 332.713 289.206 332.713 288.646V238.058C332.711 237.5 332.489 236.964 332.095 236.569C331.7 236.174 331.166 235.951 330.608 235.95Z" fill="#846E6E"/>
<path id="Vector_97" d="M334.861 237.128C334.205 237.13 333.577 237.393 333.113 237.858C332.65 238.323 332.389 238.952 332.387 239.609V276.701C332.251 276.665 332.112 276.646 331.972 276.645H280.575V239.609C280.574 238.952 280.312 238.323 279.849 237.858C279.385 237.393 278.757 237.13 278.101 237.128C277.445 237.129 276.815 237.391 276.351 237.856C275.887 238.321 275.625 238.952 275.624 239.609V299.14C275.625 299.798 275.887 300.428 276.351 300.893C276.815 301.358 277.445 301.62 278.101 301.622C278.757 301.619 279.385 301.357 279.849 300.892C280.312 300.427 280.574 299.797 280.575 299.14V280.152H331.972C332.112 280.151 332.251 280.132 332.387 280.096V299.14C332.362 299.481 332.408 299.822 332.52 300.144C332.633 300.466 332.811 300.761 333.043 301.011C333.275 301.261 333.556 301.46 333.868 301.596C334.18 301.732 334.517 301.803 334.858 301.803C335.198 301.803 335.535 301.732 335.848 301.596C336.16 301.46 336.441 301.261 336.672 301.011C336.904 300.761 337.082 300.466 337.195 300.144C337.308 299.822 337.354 299.481 337.329 299.14V239.609C337.327 238.953 337.067 238.325 336.605 237.86C336.143 237.395 335.516 237.132 334.861 237.128Z" fill="white"/>
<path id="Vector_98" d="M337.088 228.182H268.481C266.79 228.182 265.42 229.554 265.42 231.247V235.847C265.42 237.541 266.79 238.913 268.481 238.913H337.088C338.779 238.913 340.149 237.541 340.149 235.847V231.247C340.149 229.554 338.779 228.182 337.088 228.182Z" fill="#4252D4"/>
<path id="Vector_99" d="M330.674 195.354C331.817 195.482 343.127 212.662 334.739 228.188H287.474L274.006 253.895L256.726 243.969L280.612 200.191C280.612 200.191 283.409 186.573 302.722 196.373V194.948L330.674 195.354Z" fill="#FCD87A"/>
<path id="Vector_100" d="M314.415 227.934C314.415 227.169 303.994 212.154 303.994 212.154C303.994 212.154 285.949 205.788 285.949 221.842C285.949 237.897 286.203 263.092 286.203 263.092H305.008L305.391 227.967L314.415 227.934Z" fill="#FCD87A"/>
<path id="Vector_101" d="M305.391 228.419C305.262 228.419 305.139 228.368 305.048 228.277C304.957 228.186 304.906 228.063 304.906 227.934V222.172C304.906 222.044 304.957 221.92 305.048 221.829C305.139 221.738 305.262 221.687 305.391 221.687C305.519 221.687 305.642 221.738 305.733 221.829C305.824 221.92 305.875 222.044 305.875 222.172V227.937C305.874 228.065 305.823 228.188 305.732 228.278C305.641 228.368 305.518 228.419 305.391 228.419Z" fill="#471006"/>
<path id="Vector_102" d="M329.267 207.019C329.205 207.019 329.143 207.008 329.086 206.986C319.254 203.006 304.29 197.086 302.817 196.849C302.709 196.868 302.158 196.373 302.297 196.139C302.58 195.624 302.663 195.479 316.269 200.825C322.799 203.396 329.382 206.059 329.448 206.085C329.552 206.128 329.637 206.205 329.69 206.304C329.744 206.402 329.761 206.516 329.74 206.626C329.718 206.737 329.659 206.836 329.573 206.907C329.487 206.979 329.379 207.018 329.267 207.019Z" fill="#471006"/>
<path id="Vector_103" d="M330.199 200.34H330.183L310.791 199.733C310.662 199.728 310.541 199.673 310.453 199.579C310.365 199.485 310.318 199.36 310.323 199.231C310.327 199.102 310.382 198.981 310.476 198.893C310.57 198.805 310.695 198.758 310.823 198.762L330.206 199.386C330.327 199.396 330.44 199.451 330.522 199.541C330.605 199.631 330.65 199.748 330.65 199.87C330.65 199.991 330.605 200.109 330.522 200.198C330.44 200.288 330.327 200.343 330.206 200.353L330.199 200.34Z" fill="#471006"/>
<path id="Vector_104" d="M285.962 229.32C285.845 229.32 285.732 229.278 285.644 229.201C285.556 229.124 285.5 229.017 285.484 228.901C285.432 228.525 284.295 219.608 289.642 215.041C293.072 212.117 298.34 211.715 305.305 213.837L305.361 213.86L333.82 226.753C333.937 226.806 334.028 226.903 334.074 227.023C334.119 227.144 334.115 227.277 334.062 227.395C334.009 227.512 333.912 227.603 333.792 227.649C333.672 227.694 333.538 227.69 333.421 227.637L304.992 214.767C298.38 212.758 293.428 213.117 290.272 215.79C285.33 220.004 286.43 228.69 286.443 228.779C286.46 228.906 286.426 229.035 286.348 229.137C286.27 229.239 286.155 229.306 286.028 229.323L285.962 229.32Z" fill="#471006"/>
<path id="Vector_105" d="M362.816 162.394C360.935 153.58 352.135 149.432 345.803 144.191C344.106 142.837 342.583 141.278 341.266 139.552C339.992 137.783 339.003 135.825 338.334 133.75C336.953 129.635 336.436 125.286 335.072 121.168C334.443 119.173 333.538 117.277 332.384 115.535L332.311 115.439C330.074 111.885 325.241 106.701 316.078 106.77C306.636 106.842 300.475 117 297.487 123.527C296.714 125.117 296.053 126.758 295.51 128.441C295.404 128.748 295.352 128.919 295.352 128.919C294.655 131.07 294.26 133.308 294.179 135.569C294.171 137.772 294.533 139.96 295.25 142.043C295.945 144.188 296.824 146.264 297.556 148.392C298.308 150.468 298.878 152.606 299.259 154.781C299.636 156.917 299.6 159.106 299.154 161.229C298.683 163.298 297.612 165.083 296.624 166.935C295.701 168.647 294.927 170.449 294.897 172.426C294.913 174.42 295.483 176.371 296.544 178.059C298.653 181.537 302.303 183.744 305.885 185.451C309.743 187.285 350.32 191.621 356.253 185.837C359.067 183.094 360.866 179.448 361.923 175.699C362.481 173.714 362.865 171.683 363.07 169.631C363.365 167.22 363.279 164.778 362.816 162.394Z" fill="#2B0D06"/>
<path id="Vector_106" d="M317.446 158.444C318.955 158.439 320.401 157.837 321.469 156.768C322.536 155.699 323.138 154.25 323.142 152.738V139.403C323.139 137.891 322.537 136.441 321.47 135.371C320.403 134.301 318.956 133.698 317.446 133.694C315.935 133.698 314.488 134.301 313.42 135.371C312.352 136.441 311.75 137.89 311.746 139.403V152.738C311.751 154.25 312.353 155.699 313.421 156.768C314.489 157.837 315.936 158.439 317.446 158.444Z" fill="#E2A052"/>
<path id="Vector_107" d="M317.017 143.224C319.19 143.212 321.314 142.582 323.142 141.406C323.142 141.406 318.339 150.458 311.746 151.659V141.895C313.369 142.76 315.178 143.217 317.017 143.224Z" fill="#AA6E2D"/>
<path id="Vector_108" d="M299.945 128.335C299.945 130.134 301.213 131.592 302.778 131.592C304.343 131.592 305.611 130.134 305.611 128.335C305.611 126.537 304.343 125.078 302.778 125.078C301.213 125.078 299.945 126.533 299.945 128.335Z" fill="#AA6E2D"/>
<path id="Vector_109" d="M334.749 128.335C334.749 130.134 333.481 131.592 331.916 131.592C330.351 131.592 329.082 130.134 329.082 128.335C329.082 126.537 330.351 125.078 331.916 125.078C333.481 125.078 334.749 126.533 334.749 128.335Z" fill="#E2A052"/>
<path id="Vector_110" d="M302.742 126.546C302.734 126.53 302.722 126.515 302.707 126.503C302.693 126.49 302.676 126.482 302.658 126.477C302.64 126.472 302.621 126.471 302.603 126.474C302.584 126.476 302.566 126.483 302.551 126.494C302.518 126.516 302.495 126.55 302.486 126.588C302.476 126.626 302.482 126.667 302.501 126.702C302.501 126.702 303.16 127.998 302.831 129.173C302.728 129.527 302.534 129.847 302.267 130.1C301.74 129.163 302.528 128.378 302.564 128.342C302.589 128.312 302.603 128.274 302.603 128.234C302.603 128.195 302.589 128.157 302.564 128.127C302.551 128.113 302.536 128.102 302.519 128.094C302.502 128.086 302.484 128.082 302.465 128.082C302.446 128.082 302.428 128.086 302.411 128.094C302.394 128.102 302.378 128.113 302.366 128.127C302.366 128.127 301.341 129.144 302.037 130.315C301.892 130.431 301.735 130.532 301.569 130.615C301.535 130.635 301.509 130.667 301.497 130.705C301.485 130.743 301.487 130.784 301.503 130.82C301.513 130.845 301.53 130.868 301.552 130.883C301.574 130.899 301.601 130.908 301.628 130.909C301.648 130.913 301.668 130.913 301.687 130.909C302.021 130.755 302.318 130.531 302.558 130.253C302.798 129.974 302.977 129.648 303.081 129.295C303.48 127.962 302.771 126.606 302.742 126.546Z" fill="#310B02"/>
<path id="Vector_111" d="M331.952 126.546C331.96 126.53 331.972 126.515 331.986 126.503C332.001 126.49 332.017 126.482 332.036 126.477C332.054 126.472 332.073 126.471 332.091 126.474C332.11 126.476 332.127 126.483 332.143 126.494C332.176 126.516 332.199 126.55 332.208 126.588C332.217 126.626 332.212 126.667 332.192 126.702C332.192 126.702 331.533 127.998 331.863 129.173C331.966 129.527 332.16 129.847 332.426 130.1C332.954 129.163 332.166 128.378 332.13 128.342C332.104 128.312 332.09 128.274 332.09 128.234C332.09 128.195 332.104 128.157 332.13 128.127C332.142 128.113 332.157 128.102 332.174 128.094C332.191 128.086 332.21 128.082 332.229 128.082C332.247 128.082 332.266 128.086 332.283 128.094C332.3 128.102 332.315 128.113 332.328 128.127C332.328 128.127 333.352 129.144 332.657 130.315C332.802 130.431 332.959 130.532 333.125 130.615C333.159 130.635 333.184 130.667 333.197 130.705C333.209 130.743 333.207 130.784 333.191 130.82C333.181 130.845 333.164 130.868 333.142 130.883C333.119 130.899 333.093 130.908 333.066 130.909C333.046 130.913 333.026 130.913 333.006 130.909C332.673 130.755 332.376 130.531 332.136 130.253C331.895 129.974 331.717 129.648 331.613 129.295C331.217 127.962 331.922 126.606 331.952 126.546Z" fill="#310B02"/>
<path id="Vector_112" d="M317.017 143.452C324.878 143.452 331.25 135.523 331.25 125.741C331.25 115.96 324.878 108.03 317.017 108.03C309.157 108.03 302.785 115.96 302.785 125.741C302.785 135.523 309.157 143.452 317.017 143.452Z" fill="#E2A052"/>
<path id="Vector_113" d="M311.12 131.46C311.102 131.286 311.121 131.111 311.175 130.945C311.229 130.779 311.317 130.626 311.434 130.496C311.551 130.367 311.693 130.263 311.853 130.192C312.012 130.121 312.184 130.085 312.359 130.085C312.533 130.085 312.705 130.121 312.865 130.192C313.024 130.263 313.167 130.367 313.283 130.496C313.4 130.626 313.489 130.779 313.543 130.945C313.597 131.111 313.615 131.286 313.598 131.46H311.12Z" fill="#AA6E2D"/>
<path id="Vector_114" d="M313.229 130.79C313.247 130.79 313.266 130.785 313.283 130.778C313.3 130.77 313.315 130.758 313.327 130.744C313.354 130.715 313.369 130.676 313.369 130.637C313.369 130.597 313.354 130.559 313.327 130.529C313.204 130.388 313.052 130.275 312.882 130.197C312.711 130.118 312.526 130.076 312.339 130.074C312.153 130.072 311.968 130.11 311.797 130.186C311.627 130.261 311.474 130.373 311.351 130.513C311.324 130.543 311.309 130.582 311.309 130.622C311.309 130.662 311.324 130.701 311.351 130.731C311.363 130.745 311.378 130.756 311.394 130.764C311.411 130.771 311.429 130.775 311.448 130.775C311.466 130.775 311.485 130.771 311.501 130.764C311.518 130.756 311.533 130.745 311.545 130.731C311.643 130.619 311.763 130.529 311.899 130.467C312.034 130.406 312.181 130.374 312.329 130.374C312.478 130.374 312.625 130.406 312.76 130.467C312.895 130.529 313.016 130.619 313.113 130.731C313.127 130.749 313.144 130.764 313.164 130.774C313.184 130.784 313.206 130.79 313.229 130.79Z" fill="#310B02"/>
<path id="Vector_115" d="M318.335 128.513C318.335 129.173 318.609 129.734 318.948 129.734C319.287 129.734 319.564 129.186 319.564 128.513C319.564 127.84 319.287 127.296 318.948 127.296C318.609 127.296 318.335 127.84 318.335 128.513Z" fill="#310B02"/>
<path id="Vector_116" d="M305.71 128.513C305.71 129.173 305.987 129.734 306.326 129.734C306.666 129.734 306.939 129.186 306.939 128.513C306.939 127.84 306.666 127.296 306.326 127.296C305.987 127.296 305.71 127.84 305.71 128.513Z" fill="#310B02"/>
<path id="Vector_117" d="M316.79 132.298C316.79 133.288 317.966 134.11 319.426 134.11C320.885 134.11 322.061 133.298 322.061 132.298C322.061 131.298 320.885 130.483 319.426 130.483C317.966 130.483 316.79 131.295 316.79 132.298Z" fill="#FF8F7F"/>
<path id="Vector_118" d="M303.292 132.298C303.292 133.288 304.465 134.11 305.928 134.11C307.39 134.11 308.563 133.298 308.563 132.298C308.563 131.298 307.387 130.483 305.928 130.483C304.468 130.483 303.292 131.295 303.292 132.298Z" fill="#FF8F7F"/>
<path id="Vector_119" d="M321.03 126.207C321.07 126.207 321.11 126.198 321.146 126.18C321.182 126.162 321.213 126.136 321.238 126.104C321.287 126.042 321.312 125.964 321.309 125.884C321.305 125.805 321.273 125.73 321.218 125.672C319.172 123.662 317.396 125.672 317.38 125.692C317.328 125.752 317.299 125.829 317.299 125.908C317.299 125.987 317.328 126.064 317.38 126.124C317.405 126.152 317.435 126.174 317.469 126.189C317.503 126.204 317.54 126.212 317.577 126.212C317.615 126.212 317.652 126.204 317.686 126.189C317.72 126.174 317.75 126.152 317.775 126.124C317.831 126.055 319.198 124.527 320.836 126.141C320.889 126.187 320.959 126.211 321.03 126.207Z" fill="#2B0D06"/>
<path id="Vector_120" d="M308.049 126.207C308.09 126.207 308.129 126.198 308.165 126.18C308.201 126.162 308.233 126.136 308.257 126.104C308.306 126.042 308.331 125.964 308.328 125.884C308.324 125.805 308.292 125.73 308.237 125.672C306.191 123.659 304.415 125.672 304.399 125.692C304.347 125.752 304.318 125.829 304.318 125.908C304.318 125.987 304.347 126.064 304.399 126.124C304.424 126.152 304.454 126.174 304.489 126.189C304.523 126.204 304.559 126.212 304.597 126.212C304.634 126.212 304.671 126.204 304.705 126.189C304.739 126.174 304.769 126.152 304.794 126.124C304.85 126.055 306.218 124.527 307.855 126.141C307.909 126.187 307.978 126.211 308.049 126.207Z" fill="#2B0D06"/>
<path id="Vector_121" d="M309.413 133.674C309.413 133.674 312.118 136.403 315.532 133.674H309.413Z" fill="white"/>
<path id="Vector_122" d="M316.899 107.641C310.501 107.641 305.081 112.921 303.216 120.181C304.336 119.752 312.283 116.607 314.471 112.571C314.471 112.571 315.769 118.669 322.981 118.841C322.981 118.841 322.134 122.986 327.468 125.25C329.043 125.91 330.315 125.778 331.26 125.098C330.987 115.396 324.664 107.641 316.899 107.641Z" fill="#2B0D06"/>
<path id="Vector_123" d="M310.659 110.614C310.213 111.742 309.642 112.816 308.955 113.815C308.617 114.289 308.249 114.741 307.855 115.168C307.433 115.62 306.939 116.02 306.557 116.508C306.495 116.572 306.459 116.656 306.455 116.745C306.45 116.833 306.477 116.921 306.532 116.991C306.586 117.061 306.664 117.109 306.751 117.126C306.838 117.144 306.928 117.129 307.005 117.085C307.569 116.774 308.075 116.365 308.497 115.878C308.947 115.411 309.361 114.911 309.736 114.383C310.492 113.346 311.071 112.191 311.449 110.964C311.575 110.492 310.856 110.152 310.659 110.614Z" fill="#471006"/>
<path id="Vector_124" d="M323.063 117.049C322.849 116.719 322.404 116.703 322.075 116.564C321.759 116.424 321.455 116.256 321.169 116.062C320.562 115.685 320.017 115.215 319.554 114.67C318.623 113.57 318.079 112.193 318.006 110.753C318.006 110.663 317.97 110.576 317.906 110.513C317.843 110.449 317.756 110.413 317.666 110.413C317.576 110.413 317.49 110.449 317.426 110.513C317.363 110.576 317.327 110.663 317.327 110.753C317.192 112.408 317.708 114.05 318.764 115.33C319.271 115.978 319.896 116.525 320.605 116.94C320.967 117.137 321.348 117.298 321.742 117.419C322.071 117.531 322.608 117.749 322.935 117.538C323.015 117.489 323.074 117.411 323.098 117.319C323.122 117.228 323.109 117.131 323.063 117.049Z" fill="#471006"/>
<path id="Vector_125" d="M328.532 122.547C328.341 122.293 328.094 122.299 327.811 122.217C327.589 122.135 327.382 122.018 327.198 121.87C326.779 121.578 326.439 121.185 326.209 120.729C325.639 119.58 325.844 118.181 326.209 117.003C326.228 116.933 326.229 116.859 326.21 116.789C326.192 116.719 326.155 116.655 326.104 116.604C326.037 116.529 325.943 116.484 325.844 116.478H325.811C325.721 116.48 325.635 116.511 325.564 116.565C325.492 116.62 325.441 116.696 325.415 116.782C324.921 118.234 324.638 119.857 325.34 121.293C325.625 121.895 326.074 122.405 326.634 122.765C326.902 122.919 327.192 123.03 327.494 123.095C327.797 123.161 328.262 123.256 328.483 122.979C328.537 122.923 328.572 122.85 328.581 122.771C328.59 122.693 328.573 122.614 328.532 122.547Z" fill="#471006"/>
<path id="Vector_126" d="M339.213 150.587L339.233 150.53C339.233 150.53 333.724 142.132 323.027 146.211C322.981 146.231 324.397 154.302 317.426 154.065C313.07 153.913 311.723 151.507 311.723 148.352C311.724 147.984 311.76 147.616 311.832 147.254C309.051 146.455 303.499 145.99 298.913 152.649C298.788 152.834 298.679 153.019 298.584 153.2C290.548 166.4 302.719 194.948 302.719 194.948L331.863 195.03L331.649 173.02L344.696 167.324C345.163 159.82 341.668 153.646 339.213 150.587Z" fill="#FF1A1A"/>
<path id="Vector_127" d="M331.484 172.841C331.42 172.841 331.357 172.829 331.299 172.805C331.24 172.78 331.187 172.744 331.142 172.699C331.097 172.654 331.061 172.601 331.037 172.542C331.012 172.483 331 172.42 331 172.356V162.245C331 162.117 331.051 161.993 331.142 161.902C331.232 161.811 331.356 161.76 331.484 161.76C331.613 161.76 331.736 161.811 331.827 161.902C331.917 161.993 331.968 162.117 331.968 162.245V172.343C331.97 172.408 331.959 172.472 331.935 172.533C331.912 172.593 331.876 172.648 331.831 172.695C331.786 172.741 331.732 172.778 331.673 172.803C331.613 172.829 331.549 172.842 331.484 172.841Z" fill="#471006"/>
<path id="Vector_128" d="M304.201 172.841C304.136 172.843 304.07 172.831 304.01 172.806C303.949 172.782 303.894 172.745 303.848 172.698C303.801 172.652 303.765 172.596 303.741 172.535C303.717 172.474 303.705 172.409 303.707 172.343V162.245C303.707 162.117 303.758 161.993 303.849 161.902C303.94 161.811 304.063 161.76 304.191 161.76C304.32 161.76 304.443 161.811 304.534 161.902C304.625 161.993 304.676 162.117 304.676 162.245V172.343C304.677 172.407 304.666 172.471 304.644 172.531C304.621 172.59 304.586 172.645 304.542 172.691C304.498 172.738 304.445 172.775 304.387 172.8C304.328 172.826 304.265 172.84 304.201 172.841Z" fill="#471006"/>
<path id="Vector_129" d="M271.255 192.305L270.701 164.585C270.697 164.313 270.745 164.043 270.845 163.79C270.945 163.537 271.093 163.307 271.282 163.111C271.471 162.916 271.696 162.76 271.946 162.652C272.195 162.544 272.463 162.487 272.734 162.483L301.826 162.077C302.101 162.074 302.374 162.125 302.629 162.229C302.883 162.332 303.115 162.486 303.31 162.681C303.504 162.875 303.658 163.107 303.762 163.362C303.866 163.617 303.918 163.89 303.915 164.166L303.585 192.687C303.582 192.959 303.525 193.228 303.418 193.478C303.311 193.728 303.156 193.954 302.961 194.144C302.766 194.333 302.536 194.482 302.284 194.582C302.031 194.683 301.761 194.732 301.49 194.727C295.645 194.618 279.086 194.321 273.314 194.314C272.777 194.315 272.26 194.106 271.875 193.73C271.491 193.354 271.268 192.843 271.255 192.305Z" fill="#91A7CA"/>
<path id="Vector_130" d="M277.699 166.733C277.699 167.009 277.617 167.279 277.464 167.509C277.311 167.738 277.093 167.917 276.839 168.023C276.584 168.129 276.304 168.156 276.034 168.102C275.763 168.048 275.515 167.916 275.32 167.72C275.125 167.525 274.992 167.276 274.939 167.006C274.885 166.735 274.912 166.454 275.018 166.199C275.123 165.944 275.302 165.726 275.531 165.573C275.76 165.419 276.03 165.337 276.306 165.337C276.675 165.337 277.03 165.484 277.291 165.746C277.552 166.008 277.699 166.363 277.699 166.733Z" fill="white"/>
<path id="Vector_131" d="M331.827 172.888C331.827 172.888 332.015 190.783 330.776 190.645C329.537 190.506 306.507 192.351 306.507 192.351L306.217 196.251C306.217 196.251 338.301 201.881 339.955 198.429C341.609 194.977 343.18 167.915 343.18 167.915L331.827 172.888Z" fill="#E2A052"/>
<path id="Vector_132" d="M306.982 196.235C306.982 196.235 296.202 196.136 294.947 195.113C293.691 194.09 289.046 188.183 289.863 186.695C290.68 185.206 295.843 190.028 295.843 190.028L299.592 189.909C299.592 189.909 296.798 189.272 296.508 188.259C296.218 187.246 301.908 188.589 301.908 188.589C301.908 188.589 305.41 191.938 308.023 192.641C310.636 193.344 309.239 196.284 306.982 196.235Z" fill="#E2A052"/>
<path id="Vector_133" d="M289.632 186.728C289.621 186.755 289.615 186.784 289.615 186.813C289.615 186.843 289.621 186.872 289.632 186.899C291.089 190.767 294.924 194.073 294.963 194.106C295.005 194.136 295.056 194.148 295.106 194.142C295.156 194.135 295.203 194.11 295.236 194.071C295.269 194.032 295.286 193.983 295.284 193.932C295.283 193.881 295.262 193.833 295.227 193.796C295.19 193.763 291.431 190.526 290.015 186.757C290.005 186.732 289.991 186.709 289.972 186.69C289.954 186.67 289.932 186.654 289.907 186.643C289.883 186.632 289.856 186.626 289.83 186.625C289.803 186.625 289.776 186.629 289.751 186.639C289.702 186.652 289.659 186.684 289.632 186.728Z" fill="#AA6E2D"/>
<path id="Vector_134" d="M290.848 186.447C290.837 186.474 290.831 186.503 290.831 186.533C290.831 186.562 290.837 186.591 290.848 186.619C292.308 190.493 295.747 193.1 295.79 193.126C295.811 193.142 295.835 193.154 295.861 193.161C295.887 193.168 295.914 193.169 295.94 193.166C295.966 193.162 295.992 193.153 296.015 193.14C296.037 193.126 296.057 193.108 296.073 193.087C296.105 193.043 296.119 192.99 296.111 192.937C296.104 192.883 296.076 192.835 296.034 192.803C296.001 192.776 292.654 190.235 291.24 186.473C291.231 186.448 291.216 186.425 291.198 186.406C291.179 186.386 291.157 186.37 291.133 186.359C291.108 186.348 291.082 186.342 291.055 186.341C291.028 186.341 291.002 186.345 290.977 186.355C290.924 186.369 290.878 186.402 290.848 186.447Z" fill="#AA6E2D"/>
<path id="Vector_135" d="M259.328 245.533L251.289 263.092C251.289 263.092 252.871 269.098 259.196 268.108L270.662 251.872L259.328 245.533Z" fill="#E2A052"/>
<path id="Vector_136" d="M253.243 256.792C253.243 256.792 247.026 265.56 242.7 266.085C238.374 266.609 227.927 262.963 225.848 266.745C225.848 266.745 233.096 275.407 242.624 276.222L256.027 282.231L264.379 262.531C264.379 262.531 261.895 260.66 260.551 263.108C259.206 265.557 256.686 270.368 256.686 270.368L252.624 265.072L255.18 259.911C255.18 259.911 255.991 257.053 253.243 256.792Z" fill="#FFC646"/>
<path id="Vector_137" d="M260.551 263.102L254.913 260.303L252.624 265.058L256.686 270.361L260.551 263.102Z" fill="#471006"/>
<path id="Vector_138" d="M247.28 279.126L246.95 278.872C251.233 273.529 258.976 274.724 259.052 274.737L258.986 275.136C258.926 275.123 251.424 273.981 247.28 279.126Z" fill="#471006"/>
<path id="Vector_139" d="M242.611 276.229C233.083 275.414 225.835 266.751 225.835 266.751C227.881 274.569 246.611 279.09 246.611 279.09L246.133 280.459L255.21 284.324L256.027 282.228L242.611 276.229Z" fill="#471006"/>
<path id="Vector_140" d="M290.14 263.23L292.037 282.449C292.037 282.449 296.426 286.838 301.391 282.779L303.117 262.979L290.14 263.23Z" fill="#E2A052"/>
<path id="Vector_141" d="M289.985 268.613C289.985 268.613 288.545 279.268 284.944 281.75C281.343 284.231 270.411 285.858 270.329 290.181C270.329 290.181 280.763 294.471 289.58 290.772L304.244 289.841L302.508 268.51C302.508 268.51 299.44 268.009 299.381 270.804C299.322 273.599 299.325 279.027 299.325 279.027L293.27 276.222L293.141 270.461C293.141 270.461 292.538 267.563 289.985 268.613Z" fill="#FFC646"/>
<path id="Vector_142" d="M299.381 270.8L293.092 270.942L293.27 276.219L299.325 279.027L299.381 270.8Z" fill="#471006"/>
<path id="Vector_143" d="M295.059 291.164L294.66 291.085C295.978 284.357 303.388 281.819 303.46 281.796L303.588 282.179C303.516 282.202 296.337 284.667 295.059 291.164Z" fill="#471006"/>
<path id="Vector_144" d="M289.58 290.772C280.763 294.481 270.329 290.181 270.329 290.181C275.765 296.154 294.449 291.442 294.449 291.442L294.663 292.877L304.491 292.079L304.244 289.841L289.58 290.772Z" fill="#471006"/>
<path id="Vector_145" d="M265.041 146.25C265.371 146.32 273.663 154.89 273.663 154.89L271.541 144.924L265.041 146.25Z" fill="#FFFFFD"/>
<path id="Vector_146" d="M279.294 117.234H244.367V146.277H279.294V117.234Z" fill="#FFFFFD"/>
<path id="Vector_147" d="M274.078 121.795H265.684V130.203H274.078V121.795Z" fill="#4252D4"/>
<path id="Vector_148" d="M274.078 133.169H265.684V141.578H274.078V133.169Z" fill="#4252D4"/>
<path id="Vector_149" d="M248.278 121.969H261.766C261.806 121.969 261.843 121.985 261.871 122.013C261.899 122.041 261.915 122.078 261.915 122.118C261.915 122.138 261.911 122.157 261.904 122.176C261.897 122.194 261.886 122.211 261.872 122.225C261.859 122.239 261.842 122.25 261.824 122.258C261.806 122.266 261.786 122.27 261.766 122.27H248.278C248.238 122.27 248.199 122.254 248.171 122.225C248.142 122.197 248.126 122.158 248.126 122.118C248.127 122.078 248.144 122.04 248.172 122.013C248.2 121.985 248.238 121.969 248.278 121.969Z" fill="#4252D4"/>
<path id="Vector_150" d="M261.829 123.474H248.212C248.165 123.474 248.126 123.513 248.126 123.56V123.689C248.126 123.736 248.165 123.775 248.212 123.775H261.829C261.876 123.775 261.915 123.736 261.915 123.689V123.56C261.915 123.513 261.876 123.474 261.829 123.474Z" fill="#4252D4"/>
<path id="Vector_151" d="M248.278 125.352H254.096C254.136 125.352 254.174 125.336 254.202 125.309C254.231 125.281 254.247 125.243 254.248 125.203C254.247 125.163 254.231 125.125 254.203 125.097C254.174 125.069 254.136 125.052 254.096 125.052H248.278C248.238 125.052 248.2 125.069 248.172 125.097C248.144 125.125 248.127 125.163 248.126 125.203C248.127 125.243 248.144 125.281 248.172 125.309C248.2 125.336 248.238 125.352 248.278 125.352Z" fill="#4252D4"/>
<path id="Vector_152" d="M248.215 133.493H261.7C261.74 133.494 261.778 133.51 261.805 133.538C261.833 133.567 261.849 133.605 261.849 133.645C261.849 133.684 261.833 133.722 261.805 133.75C261.777 133.777 261.74 133.793 261.7 133.793H248.215C248.176 133.793 248.138 133.778 248.109 133.75C248.081 133.722 248.065 133.684 248.064 133.645C248.065 133.605 248.081 133.566 248.109 133.538C248.137 133.51 248.176 133.494 248.215 133.493Z" fill="#4252D4"/>
<path id="Vector_153" d="M248.215 134.998H261.7C261.74 134.998 261.778 135.015 261.805 135.043C261.833 135.072 261.849 135.11 261.849 135.149C261.849 135.189 261.833 135.227 261.805 135.254C261.777 135.282 261.74 135.298 261.7 135.298H248.215C248.176 135.298 248.138 135.282 248.109 135.255C248.081 135.227 248.065 135.189 248.064 135.149C248.065 135.109 248.081 135.071 248.109 135.043C248.137 135.015 248.176 134.998 248.215 134.998Z" fill="#4252D4"/>
<path id="Vector_154" d="M248.215 136.879H254.034C254.074 136.878 254.112 136.861 254.14 136.833C254.168 136.805 254.185 136.767 254.185 136.727C254.185 136.687 254.168 136.649 254.14 136.62C254.112 136.592 254.074 136.576 254.034 136.575H248.215C248.176 136.576 248.137 136.592 248.109 136.62C248.081 136.649 248.065 136.687 248.064 136.727C248.065 136.767 248.081 136.805 248.109 136.833C248.137 136.861 248.176 136.878 248.215 136.879Z" fill="#4252D4"/>
<path id="Vector_155" d="M272.774 129.586C272.739 129.586 272.704 129.579 272.672 129.565C272.64 129.551 272.61 129.532 272.586 129.507L266.115 123.025C266.091 123.001 266.071 122.972 266.058 122.94C266.044 122.908 266.037 122.873 266.037 122.839C266.037 122.804 266.043 122.769 266.057 122.737C266.07 122.705 266.089 122.676 266.114 122.651C266.138 122.626 266.167 122.607 266.199 122.593C266.231 122.58 266.265 122.573 266.3 122.573C266.335 122.572 266.369 122.579 266.401 122.592C266.434 122.605 266.463 122.625 266.488 122.649L272.961 129.134C273.011 129.183 273.038 129.25 273.038 129.32C273.038 129.39 273.011 129.457 272.961 129.507C272.912 129.557 272.844 129.585 272.774 129.586Z" fill="#2B0D06"/>
<path id="Vector_156" d="M266.313 129.586C266.278 129.586 266.244 129.579 266.212 129.565C266.181 129.552 266.152 129.532 266.128 129.506C266.104 129.482 266.084 129.453 266.07 129.421C266.057 129.389 266.05 129.355 266.05 129.32C266.05 129.285 266.057 129.251 266.07 129.219C266.084 129.187 266.104 129.158 266.128 129.134L272.573 122.649C272.624 122.607 272.689 122.586 272.755 122.589C272.821 122.592 272.884 122.62 272.931 122.667C272.978 122.714 273.005 122.776 273.009 122.843C273.012 122.909 272.99 122.974 272.948 123.025L266.474 129.506C266.432 129.551 266.374 129.58 266.313 129.586Z" fill="#2B0D06"/>
<path id="Vector_157" d="M273.126 140.763C273.091 140.763 273.057 140.756 273.024 140.742C272.992 140.728 272.963 140.708 272.938 140.683L266.468 134.202C266.439 134.179 266.415 134.149 266.399 134.116C266.382 134.083 266.372 134.046 266.37 134.009C266.369 133.972 266.375 133.934 266.388 133.899C266.401 133.865 266.422 133.833 266.448 133.807C266.475 133.78 266.506 133.76 266.541 133.746C266.576 133.733 266.613 133.727 266.65 133.729C266.687 133.731 266.724 133.74 266.757 133.757C266.79 133.774 266.82 133.797 266.843 133.826L273.314 140.307C273.363 140.357 273.391 140.425 273.391 140.495C273.391 140.566 273.363 140.633 273.314 140.683C273.289 140.708 273.26 140.728 273.228 140.742C273.196 140.756 273.161 140.763 273.126 140.763Z" fill="#2B0D06"/>
<path id="Vector_158" d="M266.642 140.763C266.607 140.763 266.573 140.756 266.54 140.742C266.508 140.728 266.479 140.708 266.455 140.683C266.405 140.633 266.377 140.566 266.377 140.495C266.377 140.425 266.405 140.357 266.455 140.307L272.925 133.826C272.949 133.797 272.978 133.774 273.012 133.757C273.045 133.74 273.081 133.731 273.118 133.729C273.156 133.727 273.193 133.733 273.228 133.746C273.262 133.76 273.294 133.78 273.32 133.807C273.347 133.833 273.367 133.865 273.38 133.899C273.394 133.934 273.4 133.972 273.398 134.009C273.396 134.046 273.387 134.083 273.37 134.116C273.353 134.149 273.33 134.179 273.301 134.202L266.83 140.683C266.78 140.734 266.713 140.762 266.642 140.763Z" fill="#2B0D06"/>
</g>
</g>
</g>
</g>
</g>
</g>
</g>
<defs>
<linearGradient id="paint0_linear_0_1" x1="194.325" y1="176.013" x2="195.313" y2="-229.356" gradientUnits="userSpaceOnUse">
<stop stop-color="#E6F1F4"/>
<stop offset="1" stop-color="#FF4344"/>
</linearGradient>
<linearGradient id="paint1_linear_0_1" x1="402.75" y1="206.993" x2="403.256" y2="-0.0956643" gradientUnits="userSpaceOnUse">
<stop stop-color="#E6F1F4"/>
<stop offset="1" stop-color="#FFC9BF"/>
</linearGradient>
<linearGradient id="paint2_linear_0_1" x1="40.673" y1="371" x2="41.2481" y2="136.704" gradientUnits="userSpaceOnUse">
<stop stop-color="#E6F1F4"/>
<stop offset="1" stop-color="#FFC9BF"/>
</linearGradient>
<clipPath id="clip0_0_1">
<rect y="-253" width="393" height="852" rx="40" fill="white"/>
</clipPath>
<clipPath id="clip1_0_1">
<rect width="596" height="520" fill="white" transform="translate(-76)"/>
</clipPath>
<clipPath id="clip2_0_1">
<rect width="596" height="371" fill="white" transform="translate(-76)"/>
</clipPath>
</defs>
</svg>
