<svg width="45" height="47" viewBox="0 0 45 47" fill="none" xmlns="http://www.w3.org/2000/svg">
<path d="M25.4701 0.957248C24.4367 0.331068 23.2514 0 22.0431 0C20.8348 0 19.6496 0.331068 18.6161 0.957248L3.18597 10.3094C2.21361 10.8986 1.40958 11.7285 0.851506 12.719C0.29343 13.7096 0.000157185 14.8273 3.8147e-06 15.9642V31.0358C0.000157185 32.1727 0.29343 33.2904 0.851506 34.281C1.40958 35.2715 2.21361 36.1014 3.18597 36.6906L18.6161 46.0427C19.6496 46.6689 20.8348 47 22.0431 47C23.2514 47 24.4367 46.6689 25.4701 46.0427L40.9002 36.6906C41.8726 36.1014 42.6766 35.2715 43.2347 34.281C43.7928 33.2904 44.0861 32.1727 44.0862 31.0358V15.9642C44.0861 14.8273 43.7928 13.7096 43.2347 12.719C42.6766 11.7285 41.8726 10.8986 40.9002 10.3094L25.4701 0.957248Z" fill="#FF4344"/>
<g clip-path="url(#clip0_1169_598)">
<path d="M22 6.33333C31.2047 6.33333 38.6667 13.7952 38.6667 23C38.6667 32.2047 31.2047 39.6667 22 39.6667C12.7953 39.6667 5.33334 32.2047 5.33334 23C5.33334 13.7952 12.7953 6.33333 22 6.33333ZM22 9.66666C14.6362 9.66666 8.66667 15.6362 8.66667 23C8.66667 30.3638 14.6362 36.3333 22 36.3333C29.3638 36.3333 35.3333 30.3638 35.3333 23C35.3333 15.6362 29.3638 9.66666 22 9.66666ZM21.9833 19.6667C22.913 19.6667 23.6667 20.4203 23.6667 21.35V29.8897C24.1648 30.1778 24.5 30.7165 24.5 31.3333C24.5 32.2538 23.7538 33 22.8333 33H22.0167C21.0868 33 20.3333 32.2463 20.3333 31.3167V23C19.4128 23 18.6667 22.2538 18.6667 21.3333C18.6667 20.4128 19.4128 19.6667 20.3333 19.6667H21.9833ZM22 14.6667C22.9205 14.6667 23.6667 15.4129 23.6667 16.3333C23.6667 17.2538 22.9205 18 22 18C21.0795 18 20.3333 17.2538 20.3333 16.3333C20.3333 15.4129 21.0795 14.6667 22 14.6667Z" fill="white"/>
</g>
<defs>
<clipPath id="clip0_1169_598">
<rect width="40" height="40" fill="white" transform="translate(2 3)"/>
</clipPath>
</defs>
</svg>
