<svg width="19" height="19" viewBox="0 0 19 19" fill="none" xmlns="http://www.w3.org/2000/svg">
<path d="M9.50004 13.4584L10.2917 11.875V7.80429C11.6542 7.45042 12.6667 6.22096 12.6667 4.75004C12.6667 3.00362 11.2465 1.58337 9.50004 1.58337C7.75362 1.58337 6.33337 3.00362 6.33337 4.75004C6.33337 6.22096 7.34592 7.45042 8.70837 7.80429V11.875L9.50004 13.4584Z" fill="white"/>
<path d="M12.8781 8.36236L12.4561 9.8887C14.5073 10.4555 15.8334 11.5457 15.8334 12.6667C15.8334 14.1645 13.2327 15.8333 9.50004 15.8333C5.76733 15.8333 3.16671 14.1645 3.16671 12.6667C3.16671 11.5457 4.49275 10.4555 6.54475 9.88791L6.12279 8.36157C3.32267 9.13582 1.58337 10.7849 1.58337 12.6667C1.58337 15.3298 5.06117 17.4167 9.50004 17.4167C13.9389 17.4167 17.4167 15.3298 17.4167 12.6667C17.4167 10.7849 15.6774 9.13582 12.8781 8.36236Z" fill="white"/>
</svg>
