<svg width="19" height="19" viewBox="0 0 19 19" fill="none" xmlns="http://www.w3.org/2000/svg">
<path d="M15.8333 8.70758H17.4166C17.4166 4.64633 14.3505 1.58337 10.2837 1.58337V3.16671C13.4994 3.16671 15.8333 5.49658 15.8333 8.70758Z" fill="white"/>
<path d="M10.2916 6.33336C11.9565 6.33336 12.6666 7.04348 12.6666 8.70836H14.25C14.25 6.15523 12.8448 4.75003 10.2916 4.75003V6.33336ZM13.0007 10.6424C12.8486 10.5041 12.6487 10.4304 12.4432 10.4368C12.2378 10.4431 12.0428 10.529 11.8995 10.6764L10.0051 12.6247C9.54906 12.5377 8.63231 12.2519 7.68865 11.3106C6.74498 10.3661 6.45919 9.44698 6.37448 8.99415L8.32119 7.0989C8.46876 6.95571 8.55484 6.76072 8.56119 6.55519C8.56754 6.34966 8.49368 6.14973 8.35523 5.99769L5.43002 2.78115C5.29151 2.62864 5.09901 2.53613 4.89339 2.52327C4.68778 2.51041 4.48524 2.57821 4.32881 2.71228L2.6109 4.18557C2.47403 4.32293 2.39233 4.50576 2.38131 4.69936C2.36944 4.89728 2.14302 9.58553 5.77835 13.2224C8.94977 16.3931 12.9224 16.625 14.0164 16.625C14.1764 16.625 14.2745 16.6203 14.3006 16.6187C14.4942 16.6079 14.6769 16.5258 14.8136 16.3883L16.2861 14.6696C16.4203 14.5133 16.4882 14.3108 16.4755 14.1052C16.4628 13.8996 16.3705 13.707 16.2181 13.5684L13.0007 10.6424Z" fill="white"/>
</svg>
